<svg width="424" height="424" viewBox="0 0 441 441" fill="none" xmlns="http://www.w3.org/2000/svg">
<path d="M242.393 235.581C244.692 235.802 246.986 236.118 249.267 236.524C246.309 236.175 243.868 236.007 242.39 235.927C242.392 235.812 242.393 235.697 242.393 235.581ZM324.262 240.056C323.842 240.166 323.406 240.174 323.194 239.979C322.5 239.346 321.787 238.751 321.06 238.181C317.618 236.19 312.465 233.276 307.059 230.46C305.242 229.69 303.405 228.947 301.569 228.187C301.323 228.086 301.076 227.99 300.83 227.891C300.417 228.057 299.937 228.109 299.65 227.925C299.019 227.522 298.401 227.1 297.783 226.679C290.881 224.007 283.944 221.82 276.66 220.137C268.98 218.362 261.699 215.51 254.576 212.162C254.57 212.161 254.554 212.154 254.554 212.154C254.554 212.154 254.536 212.145 254.508 212.131C254.48 212.118 254.452 212.106 254.424 212.093C250.134 210.071 245.899 207.829 241.519 206.476C239.579 206.198 235.565 205.692 232.39 205.299C230.888 205.414 229.355 205.696 227.786 206.188C226.864 206.478 226.485 206.019 226.814 205.592C226.294 205.681 225.769 205.746 225.236 205.761C220.088 205.898 216.507 202.885 212.15 200.883C209.174 205.016 207.543 209.486 205.999 214.296C206.011 214.335 206.024 214.373 206.028 214.417C206.187 216.118 205.649 217.198 204.729 217.853L204.547 219.193L203.718 218.364C201.37 219.179 197.807 218.433 195.693 217.752C189.552 215.772 183.539 209.603 182.814 203.004C181.237 203.233 179.66 203.359 178.081 203.421C177.552 203.758 176.62 203.902 176.397 203.539C176.382 203.514 176.365 203.491 176.349 203.465C171.111 203.527 165.869 203.039 160.622 203.459C153.075 204.064 147.221 207.311 142.255 212.819C138.919 216.517 136.002 220.582 133.375 224.839C132.362 226.572 131.333 228.341 130.342 230.051C128.629 233.168 127.037 236.347 125.529 239.531C118.197 255.009 111.478 271.888 107.844 288.872C107.417 290.864 107.035 292.858 106.697 294.85C106.659 295.074 106.615 295.298 106.578 295.522C105.222 303.79 109.998 311.27 117.638 314.67C127.918 319.244 140.19 318.201 151.026 316.633C161.902 315.061 172.529 312.368 183.257 310.043C184.039 309.873 187.573 308.894 190.801 308.484C190.813 308.478 190.832 308.47 190.844 308.465C191.53 308.122 192.215 308.133 192.836 308.311C193.676 308.283 194.437 308.326 195.046 308.471C197.434 304.111 197.767 298.437 196.852 293.381C196.35 293.174 196.405 292.839 196.692 292.555C196.459 291.444 196.167 290.37 195.823 289.354C183.589 289.312 170.989 288.992 158.964 286.724C148.971 284.838 136.803 282.831 128.213 289.686C127.898 289.937 127.455 289.988 127.086 289.908C126.484 289.775 126.085 289.288 126.793 288.722C127.941 287.806 129.155 287.045 130.416 286.395C130.679 286.22 130.944 286.043 131.207 285.864C135.718 282.799 140.054 279.255 144.678 276.366C147.149 263.851 155.852 253.8 158.966 241.506C159.121 240.894 161.25 240.563 161.096 241.172C158.071 253.115 149.779 262.943 147.041 274.967C151.387 272.546 156.039 270.842 161.353 270.74C167.265 270.626 173.004 271.89 177.943 275.265C183.109 278.795 187.303 283.468 191.828 287.745C193.533 287.779 195.239 287.799 196.948 287.803C197.644 287.804 197.905 288.159 197.858 288.529C197.887 288.561 197.908 288.598 197.924 288.639C198.324 289.797 198.651 291.029 198.902 292.302C200.782 292.827 202.574 292.749 204.316 292.332C204.142 292.183 204.084 291.955 204.255 291.645C209.678 281.793 215.268 272.025 221.062 262.384C223.875 257.704 226.658 252.717 229.71 247.931C226.864 244.167 225.103 237.917 224.955 233.289C224.931 232.526 227.083 232.124 227.101 232.714C227.232 236.793 228.636 242.288 230.954 246.017C233.529 242.133 236.31 238.429 239.477 235.195C239.681 234.986 239.995 234.876 240.318 234.846C240.715 234.178 242.276 234.032 242.386 234.901C242.768 234.737 243.199 234.61 243.391 234.628C253.471 235.55 263.601 238.207 272.845 242.325C281.235 246.063 290.098 251.308 294.557 259.632C295.327 258.903 296.301 257.992 297.419 256.986C304.572 248.753 314.116 243.042 324.574 240.243C324.481 240.186 324.373 240.121 324.262 240.056ZM201.751 217.124L194.997 215.565C196.756 216.313 199.73 217.267 201.751 217.124ZM211.956 198.82L211.945 198.842C212.05 198.882 212.153 198.922 212.258 198.966L211.956 198.82ZM292.707 261.42C292.707 261.42 292.781 261.346 292.919 261.21C292.672 260.698 292.408 260.195 292.128 259.703C292.469 260.826 292.707 261.42 292.707 261.42ZM214.645 200.118C217.206 201.507 219.731 203.192 222.437 203.88L214.645 200.118Z" fill="#FBC02D"/>
<path d="M242.707 180.951C242.739 180.934 242.751 180.933 242.76 180.934C242.764 180.921 242.763 180.917 242.776 180.888C242.821 180.797 242.83 180.776 242.844 180.673C242.879 180.441 242.853 180.254 242.786 180.028C242.529 179.159 244.674 178.573 244.932 179.453C245.191 180.33 244.906 181.3 244.085 181.771C243.647 182.023 243.032 182.217 242.556 181.934C242.125 181.678 242.35 181.157 242.707 180.951ZM223.567 175.912C224.045 176.194 224.659 176.001 225.096 175.749C225.917 175.277 226.202 174.308 225.945 173.431C225.685 172.551 223.542 173.137 223.799 174.005C223.866 174.232 223.891 174.419 223.858 174.651C223.843 174.753 223.833 174.775 223.788 174.865C223.774 174.894 223.775 174.9 223.772 174.912C223.762 174.911 223.752 174.912 223.719 174.93C223.361 175.136 223.135 175.657 223.567 175.912ZM231.391 191.428C232.988 191.836 235.151 191.729 235.882 189.981C236.467 188.579 235.724 186.634 235.438 185.241C235.29 184.518 233.135 185.055 233.292 185.816C233.5 186.833 233.766 187.837 233.866 188.872C233.912 189.343 233.883 189.806 233.736 190.258C233.703 190.36 233.629 190.432 233.592 190.473C233.321 190.479 232.928 190.337 232.71 190.282C232.046 190.112 230.182 191.119 231.391 191.428ZM222.09 192.442C222.567 192.394 223.162 192.267 223.527 191.932C223.886 191.6 223.209 191.564 223.019 191.584C221.329 191.758 219.976 190.659 219.922 188.946C219.91 188.58 217.756 188.92 217.775 189.521C217.85 191.85 220.066 192.652 222.09 192.442ZM223.177 160.27C222.21 160.114 220.957 161.461 222.397 161.694C224.761 162.076 226.866 162.36 228.745 163.98C229.41 164.555 231.431 163.689 230.722 163.077C228.459 161.125 226.037 160.732 223.177 160.27ZM245.974 168.714C247.674 168.703 249.469 168.513 250.962 169.49C251.555 169.877 253.467 169.012 252.964 168.685C251.101 167.465 248.975 167.596 246.838 167.609C246.362 167.612 245.723 167.779 245.414 168.171C245.103 168.571 245.682 168.716 245.974 168.714ZM110.715 320.147C98.8836 328.183 85.0064 334.923 70.538 335.843C69.4134 335.914 68.8089 337.281 70.2861 337.186C85.3227 336.232 99.7859 329.276 112.084 320.925C113.291 320.104 111.473 319.633 110.715 320.147ZM278.241 340.643C252.074 341.183 226.337 333.059 206.868 315.214C206.197 314.599 204.17 315.467 204.894 316.13C224.894 334.46 251.157 342.663 278.023 342.11C279.208 342.086 279.708 340.614 278.241 340.643ZM388.273 335.669C388.18 336.335 386.026 336.738 386.134 335.968C390.031 308.216 377.662 260.26 343.895 258.546C344.601 264.462 350.261 273.816 343.318 277.002C343.156 279.504 342.082 281.393 339.643 282.432C339.637 282.435 339.629 282.437 339.623 282.44C339.632 282.46 339.642 282.478 339.647 282.501C339.955 284.262 339.216 285.555 337.998 286.408C338.317 286.631 338.404 287.011 337.892 287.441C333.067 291.492 326.758 292.514 321.332 290.844C321.043 291 320.724 291.126 320.521 291.146C313.024 291.865 305.495 292.082 298.021 293.081C292.203 293.859 283.243 294.539 278.335 298.832C277.558 300.441 276.631 301.991 275.35 302.976C292.133 305.155 307.228 316.223 321.236 325.055C323.293 326.005 325.335 326.997 327.303 328.115C328.42 328.748 331.077 329.863 331.308 331.364C331.41 332.023 329.249 332.506 329.161 331.939C328.901 330.254 325.051 328.732 323.797 328.086C322.716 327.53 321.624 326.995 320.527 326.47C320.317 326.488 320.128 326.467 320.003 326.39C319.648 326.167 319.294 325.942 318.939 325.72C317.476 325.042 316.004 324.386 314.525 323.747C309.194 321.445 304.228 319.051 298.416 318.612C287.353 317.775 276.242 317.439 265.334 315.225C254.107 312.948 243.065 309.207 231.598 308.605C228.193 311.953 223.919 314.285 218.991 314.855C211.422 315.731 203.804 310.986 196.556 309.22C196.518 309.279 196.486 309.343 196.448 309.402C196.443 309.408 196.437 309.413 196.433 309.417C196.484 309.543 196.523 309.677 196.532 309.827C196.575 310.557 194.418 310.969 194.386 310.402C194.237 307.845 182.178 311.229 180.902 311.518C171.81 313.58 162.736 315.776 153.521 317.225C139.091 319.494 114.646 322.672 106.19 306.905C106.076 306.69 105.984 306.476 105.88 306.261C105.799 306.322 105.706 306.383 105.585 306.442C90.8167 313.684 75.1667 315.597 58.8907 315.634C57.4379 315.638 58.8337 314.322 59.7004 314.32C75.4119 314.285 90.4508 312.444 104.71 305.449C104.957 305.328 105.218 305.289 105.45 305.308C102.764 298.723 105.018 292.043 106.83 285.222C110.286 272.214 114.743 259.405 120.118 247.066C125.328 235.104 131.33 222.535 140.281 212.862C144.371 208.443 149.197 204.636 155.213 203.312C161.987 201.819 168.859 202.53 175.705 202.483C165.275 187.037 144.01 186.845 127.174 186.977C102.308 187.174 77.4803 185.678 52.6174 185.644C51.1683 185.643 52.7055 184.487 53.4678 184.487C79.5598 184.521 105.635 185.713 131.731 185.807C148.196 185.866 168.47 187.008 178.208 202.429C180.004 202.355 181.799 202.206 183.588 201.923C183.629 201.916 183.662 201.915 183.699 201.91C183.755 201.892 183.812 201.876 183.869 201.864C187.094 198.484 189.737 194.45 191.672 190.104C187.257 183.644 182.186 178.3 180.399 170.48C178.026 160.098 178.652 149.472 184.349 140.234C185.722 138.005 187.322 135.896 189.095 133.983C189.424 133.597 189.759 133.227 190.099 132.887C192.77 130.216 194.868 128.802 196.21 128.069C196.709 127.761 197.216 127.469 197.729 127.194C196.628 126.164 189.674 119.204 193.433 110.662C197.507 101.402 213.435 96.5867 222.325 99.9205C226.478 101.478 229.485 103.442 231.414 105.582C233.49 107.542 235.493 110.351 235.412 113.222C235.333 116.01 234.002 118.409 232.603 120.747C233.744 120.821 235.252 120.958 236.898 121.216C240.48 121.368 244.099 122.359 247.731 124.371C251.697 126.567 255.555 130.608 257.7 134.588C260.416 139.621 260.959 145.469 263.688 150.506C263.772 150.66 263.642 150.835 263.408 150.985C265.584 152.392 267.035 154.457 266.709 157.81C266.05 164.574 262.057 168.94 255.496 169.803C255.173 170.461 254.861 171.126 254.557 171.794C254.772 171.791 254.953 171.833 255.05 171.938C257.961 175.16 255.389 180.685 252.824 183.312C251.605 184.561 250.039 185.624 248.354 186.223C246.217 190.548 243.598 194.572 239.703 197.824C237.015 200.067 233.88 202.833 230.419 204.438C237.3 203.166 243.615 205.122 250.101 208.206C258.601 212.248 267.077 216.31 276.232 218.591C270.394 212.854 259.206 203.827 268.942 197.067C277.929 190.828 288.448 200.815 292.927 208.814C296.728 203.774 302.308 203.69 306.722 209.295C307.995 210.911 309.235 212.76 310.361 214.747C310.267 208.076 309.999 200.95 310.042 193.754C306.057 188.983 300.73 185.508 296.865 180.619C293.454 176.303 291.904 171.796 292.093 166.296C292.208 162.962 292.572 158.554 295.771 156.677C297.673 155.56 299.637 155.816 301.443 156.634C297.447 151.01 296.746 142.482 300.537 136.638C304.013 131.276 309.899 130.273 315.377 132.394C316.67 120.927 328.368 116.318 338.98 117.391C342.439 117.742 346.083 119.262 346.596 123.105C347.161 127.332 345.992 131.662 345.899 135.905C348.823 135.499 352.008 135.564 354.077 137.957C356.218 140.435 354.829 144.972 353.024 147.195C348.653 152.581 341.933 155.892 335.586 158.933C338.95 158.461 342.834 158.583 344.7 161.345C347.095 164.889 345.535 169.458 343.419 172.77C340.191 177.821 335.67 180.957 330.316 183.491C324.4 186.291 317.873 188.621 313.85 194.078C313.743 194.223 313.483 194.346 313.183 194.432C313.362 194.726 312.751 195.075 312.146 195.229C312.157 198.931 312.24 202.599 312.329 206.179C313.278 201.377 315.378 196.975 319.852 193.443C324.889 189.466 332.123 186.983 335.663 192.557C338.632 185.118 346.212 179.354 354.522 180.288C357.93 180.671 361.468 182.527 362.012 186.255C362.765 191.397 359.651 196.358 356.58 200.375C359.108 199.585 361.896 199.491 364.062 201.24C367.476 204.002 368.617 208.971 367.099 213.083C364.678 219.632 357.014 222.603 350.322 225.111C350.961 225.254 351.566 225.531 352.097 225.998C354.67 228.255 355.106 232.311 353.884 235.415C351.457 241.577 342.201 243.42 336.605 245.262C336.373 245.338 336.192 245.358 336.033 245.357C335.864 245.69 335.696 246.024 335.527 246.36C339.291 246.144 343.064 246.062 346.834 246.052C347.121 246.003 347.401 246.004 347.596 246.07C347.978 246.134 347.995 246.339 347.827 246.565C347.11 249.779 344.217 253.319 342.57 256.069C342.442 256.285 342.312 256.499 342.184 256.713C342.835 256.389 343.845 256.471 343.821 257.225C343.82 257.273 343.822 257.324 343.822 257.372C379.149 258.125 392.33 306.773 388.273 335.669ZM337.69 239.324C323.196 239.596 309.545 245.674 299.97 256.286C304.893 252.357 311.298 250.101 317.332 248.753C322.666 247.561 328.075 246.881 333.512 246.497C334.755 244.015 336.036 241.558 337.69 239.324ZM287.574 261.979C287.599 261.933 287.641 261.892 287.687 261.852C287.632 261.716 287.601 261.57 287.579 261.419C280.65 258.33 273.641 255.253 266.324 253.215C258.917 251.155 251.393 250.253 243.742 250.085C243.66 250.241 243.51 250.374 243.325 250.475C242.71 252.501 240.003 255.361 239.119 256.679C235.57 261.973 231.973 267.238 228.378 272.5C224.699 277.883 221.01 283.259 217.339 288.647C216.987 289.163 216.561 289.738 216.107 290.34C214.949 292.331 213.752 294.297 212.422 296.182C212.378 296.244 212.306 296.301 212.213 296.354C215.586 298.115 219.492 299.713 223.11 297.8C224.575 297.025 226.035 296.276 227.596 295.708C229.292 295.091 231.498 294.719 232.311 296.496C233.451 296.315 234.547 296.551 235.536 297.537C235.729 297.729 235.618 297.947 235.373 298.132C235.593 298.253 235.639 298.458 235.519 298.674C236.002 298.742 236.476 298.91 236.923 299.223C237.508 299.633 237.173 300.176 236.621 300.465C236.615 300.481 236.614 300.495 236.607 300.512C236.354 301.135 236.05 301.724 235.665 302.262C236.041 302.308 236.276 302.488 236.061 302.852C235.822 303.26 235.573 303.661 235.315 304.055C244.617 304.646 253.91 302.908 263.217 302.989C263.451 302.69 264.193 302.376 264.652 302.357C271.876 288.666 280.076 275.519 287.574 261.979ZM232.428 304.718C231.325 305.486 230.264 306.573 229.263 307.515C229.697 307.514 230.132 307.505 230.564 307.515C231.279 306.749 231.948 305.921 232.577 305.051C232.42 304.967 232.383 304.848 232.428 304.718ZM134.916 284.616C141.565 282.716 149.026 283.341 155.753 284.47C166.76 286.315 177.791 287.318 188.913 287.659C181.675 280.681 174.551 272.424 163.807 271.792C157.199 271.406 151.77 273.456 146.717 276.439V276.441C146.668 276.715 146.199 276.941 145.714 277.045C142.045 279.32 138.551 282.038 134.916 284.616ZM241.357 250.264C241.435 250.435 241.474 250.962 242.307 250.672C242.111 250.645 241.936 250.575 241.805 250.454C241.621 250.413 241.464 250.348 241.357 250.264ZM206.479 291.662C209.362 290.577 212.161 288.893 215.088 287.936C215.358 287.847 215.574 287.846 215.754 287.884C219.009 283.112 222.273 278.346 225.533 273.577C229.095 268.365 232.66 263.154 236.182 257.914C237.399 256.105 238.617 254.294 239.803 252.465C240.167 251.903 240.532 251.341 240.881 250.77C241.132 250.355 241.24 250.215 241.301 250.211C241.241 250.144 241.216 250.068 241.231 249.982C240.575 249.76 240.642 249.047 241.152 248.684C240.101 244.893 240.152 240.985 240.205 237.059C232.944 244.924 227.588 255.189 222.183 264.265C216.798 273.307 211.559 282.442 206.479 291.662ZM289.904 261.306C290.562 262.348 292.723 262.856 294.26 262.928C294.323 262.816 294.39 262.707 294.455 262.596C294.008 262.691 293.581 262.68 293.485 262.448C293.312 262.027 293.115 261.619 292.919 261.21C292.672 260.698 292.408 260.195 292.128 259.704C287.779 252.055 279.55 246.955 271.709 243.461C264.581 240.286 256.994 237.895 249.27 236.524C246.987 236.118 244.692 235.801 242.395 235.581C242.394 235.697 242.393 235.813 242.392 235.928C242.345 240.173 242.198 244.401 243.409 248.488C250.852 248.602 258.274 249.288 265.495 251.199C273.839 253.407 281.758 256.813 289.623 260.322C290.186 260.575 290.172 260.977 289.904 261.306ZM310.084 190.861C310.467 170.604 313.826 150.193 330.944 138.142C331.683 137.621 333.5 138.057 332.307 138.898C315.036 151.057 312.259 172.424 312.154 193.108C312.242 193.215 312.327 193.321 312.414 193.427C318.577 185.818 329.082 184.704 336.414 178.629C339.975 175.679 344.211 170.431 343.779 165.436C343.26 159.447 337.139 159.381 332.443 160.513C332.378 160.528 332.329 160.528 332.269 160.538C332.03 160.656 331.788 160.773 331.549 160.89C331.045 161.14 329.039 161.242 330.312 160.61C330.667 160.434 331.031 160.258 331.389 160.083C331.476 159.9 331.733 159.71 332.197 159.598C332.308 159.571 332.431 159.544 332.549 159.516C337.969 156.889 343.599 154.254 348.153 150.33C350.746 148.095 353.489 144.972 352.936 141.218C352.308 136.957 348.396 136.196 344.627 136.831C344.529 136.847 343.749 136.977 343.752 136.723C343.808 132.198 347.007 122.555 341.941 119.637C337.119 116.857 329.245 117.605 324.693 120.448C319.979 123.391 317.578 127.858 317.416 133.37C317.399 133.97 315.744 134.244 315.332 134.023C300.128 125.875 296.756 149.075 304.851 157.607C305.018 157.782 304.604 158.064 304.104 158.253C304.119 158.266 304.138 158.278 304.153 158.289C304.534 158.579 302.636 159.424 302.135 159.046C300.372 157.708 297.46 155.529 295.924 158.268C295.222 159.521 294.774 160.89 294.555 162.312C294.043 165.654 294.087 169.254 294.894 172.553C296.829 180.47 304.439 185.198 310.084 190.861ZM279.816 219.356C279.845 219.388 279.863 219.42 279.881 219.454C284.477 220.551 288.926 221.901 293.324 223.432C289.178 220.233 285.242 216.745 281.312 213.308C280.599 212.685 282.621 211.818 283.289 212.401C288.676 217.113 294.083 221.916 300.045 225.907C301.498 226.47 302.952 227.042 304.411 227.634C307.383 228.838 310.336 230.045 313.196 231.408C313.183 229.389 312.84 227.291 312.274 225.208C311.996 225.197 311.795 225.117 311.795 224.952C311.791 224.488 311.784 224.022 311.776 223.555C310.676 220.183 309.076 216.922 307.467 214.196C305.951 211.63 304.107 208.679 301.487 207.099C297.81 204.881 295.475 207.651 293.735 210.841C293.401 211.454 292.002 211.81 291.65 211.058C289.714 206.936 286.467 202.986 282.851 200.222C278.607 196.979 270.887 193.781 267.883 200.64C264.642 208.04 275.719 214.761 279.816 219.356ZM240.769 173.648C244.057 170.46 248.606 169.503 252.841 170.875C253.555 169.321 254.327 167.797 255.184 166.315C254.665 166.276 254.136 166.212 253.602 166.13L253.443 166.224C253.443 166.224 253.266 166.151 252.96 166.024C244.017 164.364 233.546 156.861 232.637 147.718C226.806 150.134 221.492 152.714 215.117 152.497L214.768 152.602C212.199 157.102 209.549 161.532 206.479 165.676L215.74 169.645C216.022 169.267 216.329 168.898 216.684 168.552C220.334 165.015 225.537 164.215 230.139 166.308C230.379 166.416 230.352 166.572 230.184 166.727C230.523 166.671 230.831 166.691 230.971 166.844C233.073 169.172 232.311 172.697 230.761 175.468C233.61 175.384 236.766 175.193 238.507 177.376C238.883 176.04 239.631 174.751 240.769 173.648ZM219.402 179.593C223.257 181.938 226.872 179.164 228.687 175.626C229.893 173.273 230.974 169.855 228.96 167.625C228.852 167.505 228.892 167.368 229.022 167.238C228.767 167.289 228.537 167.297 228.4 167.235C224.157 165.305 219.09 166.215 217.01 170.783C215.541 174.01 216.227 177.662 219.402 179.593ZM221.472 150.57C224.299 149.897 226.991 148.765 229.752 147.587L228.995 147.704L221.472 150.57ZM255.801 164.809C255.991 164.826 256.178 164.835 256.365 164.845C256.528 164.782 256.702 164.74 256.878 164.719L257.147 164.001L255.801 164.809ZM243.486 184.688C244.551 185.336 245.596 185.582 246.59 185.54C248.689 181.22 250.296 176.643 252.231 172.225C248.041 170.443 243.133 171.399 241.094 175.877C239.625 179.104 240.309 182.757 243.486 184.688ZM253.713 173.725C252.128 177.424 250.713 181.214 249.028 184.831C250.582 183.972 251.89 182.439 252.773 180.719C253.81 178.698 254.747 175.89 253.713 173.725ZM230.589 120.664C230.682 120.494 230.773 120.324 230.862 120.154C230.627 120.49 230.477 120.664 230.477 120.664C230.477 120.664 230.516 120.663 230.589 120.664ZM192.63 187.794C193.1 186.554 193.51 185.295 193.864 184.025L192.502 187.614C192.544 187.673 192.586 187.734 192.63 187.794ZM185.015 202.779C185.711 207.642 189.723 212.754 193.957 215.074C194.21 215.212 194.567 215.383 194.996 215.565C196.755 216.313 199.728 217.267 201.749 217.124C202.907 217.041 203.749 216.593 203.872 215.541C203.723 215.512 203.635 215.455 203.664 215.362C205.337 210.098 207.025 205.237 210.381 200.773C210.499 200.614 210.767 200.5 211.073 200.422C210.835 200.327 210.598 200.231 210.355 200.144C209.074 199.683 210.687 198.378 211.596 198.705C211.713 198.747 211.828 198.798 211.945 198.844C212.05 198.885 212.153 198.925 212.258 198.968C213.061 199.299 213.854 199.693 214.645 200.12C217.206 201.509 219.731 203.195 222.437 203.882C224.024 204.284 225.671 204.35 227.427 203.793C232.963 202.038 238.688 197.378 242.207 192.806C243.684 190.888 244.909 188.84 246 186.722C244.625 186.812 243.236 186.542 241.944 185.757C239.692 184.386 238.451 182.277 238.248 180.053C237.8 180.096 237.363 179.964 237.228 179.566C236.109 176.263 232.528 176.997 229.742 177.043C229.417 177.478 229.079 177.875 228.742 178.221C226.009 181.021 221.539 182.9 217.861 180.662C214.567 178.658 213.448 175.077 214.556 171.86L204.737 167.932C204 168.85 203.245 169.756 202.454 170.638C202.229 170.887 201.306 171.085 200.791 171.063C200.245 171.161 199.696 171.061 199.713 170.615C199.791 168.493 199.263 165.653 197.091 164.648C196.797 164.511 196.509 164.427 196.228 164.377C195.02 164.789 193.505 165.51 192.318 166.364C191.912 166.896 191.565 167.477 191.289 168.045C190.303 170.072 189.683 172.794 191.349 174.674C192.924 176.451 195.203 177.084 197.5 177.289C198.696 177.398 197.895 178.194 197.125 178.427C195.832 187.439 191.443 196.343 185.015 202.779ZM192.834 308.308C193.676 308.28 194.435 308.323 195.045 308.468C197.432 304.108 197.765 298.434 196.851 293.378C196.349 293.171 196.403 292.836 196.69 292.552C196.457 291.441 196.166 290.367 195.821 289.351C183.588 289.309 170.988 288.989 158.963 286.721C148.97 284.835 136.801 282.828 128.212 289.683C127.897 289.934 127.454 289.985 127.085 289.905C126.482 289.772 126.084 289.285 126.791 288.719C127.94 287.803 129.154 287.042 130.414 286.392C130.677 286.217 130.942 286.04 131.205 285.861C135.716 282.796 140.053 279.252 144.676 276.363C147.147 263.848 155.85 253.797 158.965 241.503C159.12 240.891 161.249 240.56 161.095 241.169C158.069 253.112 149.778 262.94 147.039 274.964C151.385 272.543 156.037 270.839 161.352 270.737C167.264 270.623 173.001 271.887 177.941 275.262C183.108 278.792 187.302 283.465 191.827 287.742C193.531 287.776 195.237 287.796 196.946 287.8C197.642 287.801 197.904 288.156 197.857 288.526C197.886 288.558 197.907 288.594 197.922 288.636C198.322 289.794 198.649 291.026 198.901 292.299C200.782 292.824 202.572 292.746 204.315 292.329C204.141 292.18 204.083 291.952 204.254 291.642C209.677 281.79 215.266 272.022 221.061 262.381C223.873 257.701 226.657 252.714 229.708 247.928C226.862 244.164 225.102 237.914 224.953 233.286C224.93 232.523 227.082 232.121 227.1 232.711C227.23 236.79 228.635 242.285 230.953 246.014C233.527 242.13 236.31 238.426 239.475 235.192C239.68 234.983 239.994 234.873 240.316 234.844C240.714 234.175 242.275 234.029 242.384 234.898C242.767 234.734 243.198 234.607 243.39 234.625C253.469 235.547 263.6 238.204 272.844 242.322C281.234 246.06 290.097 251.305 294.556 259.629C294.655 259.814 294.76 259.993 294.855 260.181C295.672 259.076 296.526 258.009 297.418 256.982C304.57 248.75 314.114 243.039 324.573 240.24C329.249 238.99 334.104 238.316 339.012 238.265C339.306 238.262 339.469 238.305 339.54 238.374C339.95 238.365 340.226 238.469 340.014 238.743C338.671 240.47 337.591 242.355 336.587 244.285C340.964 242.861 346.313 241.605 349.806 238.491C353.51 235.189 353.038 224.736 347.016 226.368C346.398 226.613 345.797 226.858 345.226 227.106C344.623 227.369 342.993 227.132 344.177 226.501C345 226.062 345.998 225.61 347.041 225.316C352.215 223.296 357.857 221.489 361.934 217.782C364.709 215.258 366.241 211.47 365.389 207.683C364.298 202.83 360.472 199.222 355.196 201.983C354.963 202.105 352.968 202.504 353.561 201.756C357.248 197.118 365.202 184.133 354.794 181.603C346.037 179.474 338.531 187.45 336.859 195.326C336.745 195.866 334.918 196.406 334.718 195.771C333.315 191.312 329.975 188.748 325.331 191.187C322.236 192.813 319.388 195.182 317.356 198.048C312.367 205.091 313.667 214.472 313.907 222.731C314.929 225.913 315.495 229.155 315.335 232.194C315.331 232.275 315.301 232.351 315.26 232.425C316.95 233.296 318.598 234.24 320.189 235.287C325.43 229.454 330.61 223.553 335.473 217.399C338.285 213.841 341.087 210.227 343.451 206.35C344.731 204.25 346.948 201.171 346.526 198.55C346.372 197.584 348.525 197.05 348.673 197.976C349.081 200.519 347.424 203.289 346.189 205.375C343.868 209.3 341.147 212.988 338.337 216.574C333.023 223.356 327.359 229.85 321.599 236.254C322.838 237.141 324.036 238.099 325.185 239.15C325.524 239.46 324.911 239.881 324.256 240.054C323.837 240.163 323.401 240.172 323.189 239.977C322.494 239.343 321.781 238.749 321.055 238.179C316.796 234.846 311.999 232.554 307.053 230.458C305.236 229.688 303.4 228.944 301.563 228.185C301.317 228.083 301.07 227.988 300.824 227.889C300.412 228.055 299.932 228.106 299.644 227.923C299.013 227.52 298.396 227.098 297.778 226.677C290.875 224.004 283.938 221.818 276.654 220.134C268.975 218.359 261.694 215.508 254.571 212.16C254.548 212.15 254.524 212.14 254.503 212.129C254.475 212.116 254.447 212.103 254.419 212.091C250.128 210.069 245.894 207.826 241.514 206.474C238.558 205.562 235.535 205.056 232.384 205.297C230.882 205.412 229.35 205.694 227.781 206.186C226.858 206.476 226.48 206.016 226.809 205.589C226.288 205.679 225.764 205.743 225.231 205.759C220.083 205.896 216.502 202.883 212.145 200.881C209.168 205.014 207.537 209.484 205.993 214.293C206.006 214.333 206.018 214.37 206.022 214.415C206.181 216.115 205.644 217.195 204.723 217.851C204.424 218.065 204.084 218.233 203.712 218.361C201.364 219.176 197.801 218.431 195.687 217.749C189.546 215.769 183.534 209.6 182.808 203.001C181.232 203.23 179.655 203.356 178.076 203.418C177.546 203.755 176.614 203.899 176.391 203.536C176.376 203.511 176.359 203.488 176.344 203.462C171.106 203.524 165.863 203.036 160.616 203.456C153.069 204.061 147.216 207.308 142.25 212.816C138.913 216.514 135.997 220.579 133.369 224.836C132.314 226.546 131.306 228.286 130.336 230.048C128.623 233.166 127.031 236.344 125.523 239.529C118.192 255.006 111.473 271.885 107.838 288.869C107.411 290.861 107.029 292.855 106.691 294.848C106.653 295.071 106.61 295.295 106.572 295.519C105.216 303.787 109.992 311.267 117.633 314.667C127.913 319.241 140.184 318.198 151.02 316.63C161.897 315.058 172.524 312.365 183.251 310.04C184.034 309.87 187.568 308.891 190.795 308.481C191.504 308.392 192.193 308.331 192.834 308.308ZM229.553 308.53C229.07 308.521 228.582 308.529 228.098 308.533C227.929 308.665 227.763 308.79 227.599 308.897C225.267 310.435 222.912 311.323 220.094 311.228C218.64 311.179 219.828 309.662 220.846 309.697C226.264 309.88 228.732 304.376 233.117 302.673C233.135 302.554 233.19 302.436 233.292 302.33C233.877 301.728 234.235 301.049 234.547 300.277C232.419 300.153 228.996 304.025 227.618 304.915C224.36 307.018 220.769 307.276 217.031 307.945C215.692 308.185 215.24 306.627 216.612 306.381C219.923 305.787 223.832 305.798 226.541 303.553C227.893 302.433 229.253 301.341 230.71 300.359C231.474 299.844 232.378 299.298 233.319 298.963C233.375 298.767 233.518 298.616 233.668 298.464C233.621 298.441 233.577 298.413 233.542 298.377C231.724 296.568 226.303 301.753 224.463 302.539C221.614 303.755 218.799 304.228 215.709 304.295C214.262 304.326 215.756 303.103 216.547 303.085C220.474 303 223.907 301.951 226.974 299.478C227.978 298.669 229.011 297.791 230.179 297.224C230.19 297.219 230.202 297.214 230.213 297.209C229.019 294.601 223.584 298.639 221.42 299.306C217.577 300.491 213.243 298.692 209.904 296.927C209.838 296.891 209.953 296.783 210.162 296.658C210.107 296.581 210.089 296.482 210.137 296.354C211.024 293.959 213.104 291.629 214.631 289.506C209.356 291.423 204.758 294.845 199.182 293.98C199.831 298.696 199.371 303.797 197.304 307.891C203.344 309.214 208.923 312.266 215.026 313.262C220.777 314.199 225.708 312.163 229.553 308.53ZM273.37 303.981C270.824 304.838 268.119 304.498 265.489 303.915C265.19 304.115 264.804 304.267 264.508 304.255C254.49 303.84 244.488 305.906 234.476 305.269C233.883 306.083 233.247 306.858 232.574 307.596C244.654 308.244 256.105 312.362 268.015 314.476C273.976 315.534 279.978 316.271 286.018 316.694C291.87 317.103 298.044 316.932 303.823 317.952C305.56 318.257 307.327 318.825 309.086 319.515C302.108 315.186 294.983 311.04 287.497 307.805C282.86 305.8 278.207 304.473 273.37 303.981ZM273.499 302.773C274.042 302.359 274.49 301.843 274.872 301.274C274.598 301.243 274.447 301.133 274.605 300.902C275.002 300.321 275.472 299.797 275.973 299.3C275.977 299.292 275.98 299.285 275.984 299.279C277.755 295.696 279.698 292.261 281.665 288.785C286.121 280.916 290.584 272.901 294.146 264.56C293.022 264.536 291.887 264.305 290.845 263.963C290.255 263.771 289.497 263.497 288.854 263.096C281.448 276.351 273.434 289.261 266.384 302.712C266.441 302.701 266.498 302.693 266.556 302.688C268.903 302.525 271.215 302.568 273.499 302.773ZM319.877 290.315C315.705 288.601 312.225 285.209 310.636 280.297C310.476 279.804 311.113 279.361 311.514 279.28C311.976 279.186 312.419 279.148 312.854 279.137C312.89 278.725 312.945 278.322 312.954 277.981C312.96 277.766 313.26 277.657 313.415 277.578C314.511 277.017 315.536 276.767 316.513 276.737C316.137 275.925 315.869 275.202 315.732 274.276C315.684 273.952 316.173 273.729 316.407 273.644C317.97 273.075 319.427 273.049 320.818 273.341C320.948 270.422 325.859 270.446 327.926 270.413C329.932 270.382 332.002 270.506 333.992 270.199C335.477 269.968 335.251 269.212 334.633 268.39C334.278 268.875 333.916 269.358 333.549 269.833C333.135 270.368 330.977 270.556 331.555 269.808C334.315 266.238 336.755 262.407 339.092 258.537C338.751 258.419 339.096 258.045 339.558 257.768C339.902 257.195 340.245 256.62 340.586 256.047C342.094 253.506 344.738 250.265 345.583 247.281C336.843 247.309 327.98 247.639 319.411 249.447C311.247 251.17 302.416 254.124 297.446 261.112C297.509 261.166 297.534 261.238 297.496 261.333C297.225 262.016 296.945 262.696 296.659 263.372C296.776 263.683 296.669 264.054 296.27 264.273C291.678 274.879 285.465 284.606 280.167 294.858C279.85 295.469 279.541 296.169 279.22 296.9C284.167 294.136 290.936 293.253 295.766 292.541C303.77 291.361 311.831 291.032 319.877 290.315ZM341.721 258.499C341.518 258.501 341.316 258.499 341.113 258.505C339.448 261.256 337.739 263.99 335.898 266.628C342.962 274.521 322.633 270.391 322.974 273.238C323.006 273.506 322.878 273.738 322.673 273.918C325.441 275.056 327.992 277.208 330.643 278.615C331.422 279.029 329.433 279.832 328.908 279.553C325.991 278.006 321.618 273.6 317.966 274.145C318.138 274.976 318.416 275.673 318.807 276.48C318.884 276.639 318.728 276.819 318.468 276.971C322.109 277.935 325.179 281.579 328.936 282.894C329.072 282.941 327.502 283.818 326.909 283.61C324.156 282.646 322.09 280.595 319.66 279.067C319.088 278.707 315.2 276.291 315.082 278.239C315.06 278.613 314.997 279.012 315 279.397C318.922 280.462 321.828 284.477 325.51 286.341C326.565 286.875 324.678 287.991 323.854 287.573C320.999 286.129 317.853 282.019 314.449 280.924C314.042 281.076 313.584 281.177 313.311 281.095C316.981 289.633 327.353 292.654 335.058 287.53C334.725 287.564 334.341 287.541 334.262 287.244C334.149 286.821 334.912 286.513 335.201 286.451C336.954 286.072 337.822 284.885 337.505 283.076C337.449 282.756 337.805 282.481 338.243 282.321C338.318 282.274 338.391 282.234 338.431 282.217C340.565 281.307 341.18 279.212 341.209 277.054C341.21 276.974 341.255 276.899 341.327 276.832C341.174 276.555 341.283 276.218 341.877 275.991C347.744 273.746 342.381 263.699 341.721 258.499ZM362.201 301.808C360.883 304.211 356.984 305.685 354.338 305.004C352.126 304.433 350.172 302.264 350.648 299.849C351.162 297.227 353.98 296.255 356.382 295.899C356.026 295.667 357.762 294.976 358.216 295.119C360.792 295.939 363.826 298.846 362.201 301.808ZM360.407 300.174C360.098 298.338 358.846 296.976 357.215 296.231C356.868 296.423 356.397 296.611 356.165 296.635C351.753 297.099 351.763 303.071 355.833 304.12C358.202 304.731 360.838 302.72 360.407 300.174ZM335.487 293.414C332.8 297.829 330.814 302.366 330.054 307.505C329.281 312.725 329.767 318.16 329.786 323.412C329.79 324.324 331.937 323.863 331.934 323.149C331.917 318.161 331.625 313.152 332.091 308.176C332.591 302.838 334.729 298.006 337.49 293.47C338.02 292.596 335.859 292.804 335.487 293.414Z" fill="#0984E3"/>
</svg>
