<svg width="424" height="424" viewBox="0 0 789 789" fill="none" xmlns="http://www.w3.org/2000/svg">
<path d="M356.35 237.368L357.67 237.976C359.43 238.122 361.175 238.298 362.862 238.855C363.132 238.88 363.348 238.953 363.468 239.09C363.649 239.161 363.834 239.219 364.015 239.302C364.683 239.604 364.488 240.256 364.128 240.711C366.427 245.731 371.562 247.351 377.035 247.978C385.36 248.932 393.772 248.903 402.133 249.325C405.999 249.519 420.606 251.028 431.841 249.663C435.177 248.854 439.612 247.673 442.662 246.459C445.302 244.692 446.437 242.163 445.032 238.555C444.703 237.714 448.478 236.512 448.872 237.527C449.624 239.462 449.707 241.12 449.321 242.57C449.652 242.458 449.962 242.374 450.245 242.308C450.917 241.886 451.591 241.465 452.261 241.038C452.929 222.811 448.791 202.553 431.311 193.394C425.726 190.468 419.621 188.665 413.381 187.826C407.215 187.439 400.956 187.356 394.854 188.238C394.599 188.303 394.359 188.351 394.102 188.42C387.936 190.065 383.239 191.645 379.59 193.142C364.182 201.633 356.487 219.973 356.35 237.368ZM402.718 230.469C415.898 230.762 429.556 232.217 441.94 236.981C442.174 237.071 439.351 238.65 438.311 238.249C428.029 234.296 416.611 232.647 405.656 232.122C394.145 231.57 380.829 231.3 370.341 236.765C369.693 237.103 365.823 237.595 367.429 236.758C378.07 231.214 390.912 230.208 402.718 230.469ZM499.537 343.516C502.896 336.277 507.25 329.295 511.678 322.509C524.425 330.808 536.313 340.755 546.85 351.947C543.948 354.768 540.948 357.524 538.184 360.528C535.645 363.287 533.324 366.223 531.084 369.223C521.286 359.949 510.827 350.765 499.537 343.516ZM495.592 344.611C494.868 346.192 494.192 347.786 493.573 349.396C493.493 347.325 493.398 345.254 493.291 343.178C494.061 343.647 494.829 344.122 495.592 344.611ZM528.991 372.055C524.593 378.132 520.394 384.371 515.454 390.025C508.528 385.014 501.294 380.408 493.996 375.993C494.033 371.04 493.988 366.112 493.903 361.238C494.689 356.153 496.238 351.205 498.274 346.374C509.267 353.812 519.392 363.018 528.991 372.055ZM513.533 319.681C516.769 314.76 519.971 309.936 522.78 305.185C535.987 314.175 548.484 324.557 559.455 336.166C559.008 336.345 558.649 336.584 558.516 336.873C556.293 341.721 553.041 345.663 549.46 349.345C538.689 338.046 526.54 328.036 513.533 319.681ZM496.893 341.871C495.637 341.108 494.374 340.363 493.096 339.654C492.513 329.914 491.589 320.15 490.164 310.488C496.701 313.576 503.101 317.096 509.314 321.009C504.891 327.761 500.451 334.687 496.893 341.871ZM558.222 402.932C562.365 408.123 566.428 413.843 568.454 420.151C566.18 421.935 564.076 423.939 562.213 426.134C558.08 427.024 553.934 427.86 549.779 428.652C548.17 423.14 545.251 418.173 541.661 413.647C547.307 410.267 552.789 406.637 558.222 402.932ZM576.84 417.639C575.96 418.111 575.116 418.564 574.307 418.998C575.134 418.513 575.979 418.058 576.84 417.639ZM556.43 400.721C551.024 404.406 545.569 408.017 539.948 411.38C539.907 411.404 539.878 411.431 539.841 411.456C535.796 406.779 531.124 402.574 526.597 398.725C523.419 396.021 520.123 393.458 516.757 390.983C517.554 390.868 518.382 390.607 518.673 390.278C523.195 385.158 527.133 379.593 531.118 374.064C531.684 374.6 532.252 375.137 532.815 375.668C541.15 383.552 549.161 391.834 556.43 400.721ZM585.218 412.145C580.521 413.167 575.961 415.104 571.826 417.756C569.513 411.558 565.322 406.016 561.227 400.883C565.876 397.68 570.507 394.448 575.17 391.264C578.612 397.771 581.609 404.472 584.097 411.325C584.272 411.805 584.705 412.058 585.218 412.145ZM489.628 307.071C488.514 300.123 487.106 293.245 485.39 286.471C485.342 285.499 485.339 284.717 485.357 284.072C497.589 289.698 509.877 296.504 521.64 304.417C520.694 304.515 519.582 304.824 519.28 305.338C516.802 309.566 514.015 313.841 511.167 318.183C504.542 314.065 497.71 310.37 490.727 307.162C490.399 307.012 490.013 306.998 489.628 307.071ZM561.371 338.209C572.639 350.485 582.155 364.108 589.001 378.901C584.95 381.36 580.972 383.927 577.042 386.565C569.916 373.799 561.098 361.849 551.028 351.029C554.959 347.173 558.691 343.189 561.371 338.209ZM548.382 353.599C558.246 364.327 566.862 376.159 573.806 388.762C568.999 392.04 564.229 395.372 559.437 398.671C553.085 390.892 546.039 383.671 538.843 376.681C536.981 374.872 535.092 373.045 533.181 371.217C535.888 367.513 538.665 363.861 541.71 360.415C543.832 358.011 546.109 355.795 548.382 353.599ZM578.41 389.064C582.284 386.46 586.204 383.926 590.193 381.491C594.427 391.174 597.481 401.356 599.142 411.977C595.203 411.159 591.161 411.131 587.186 411.773C587.78 411.43 588.158 410.902 587.938 410.296C585.299 403.025 582.096 395.934 578.41 389.064ZM262.222 439.587L254.886 438.564C257.363 438.796 259.843 439.008 262.322 439.222L262.222 439.587ZM314.713 377.294C314.713 377.298 314.713 377.302 314.713 377.306C311.921 379.346 306.31 383.524 300.326 388.417C304.871 384.351 309.662 380.572 314.713 377.294ZM261.076 437.418C255.932 436.952 250.789 436.459 245.653 435.921C246.171 435.735 246.572 435.487 246.639 435.204C248.103 429.011 250.431 423.016 253.309 417.218C257.029 420.611 260.725 424.028 264.399 427.463C264.517 427.573 264.697 427.634 264.906 427.662C263.336 430.815 262.032 434.068 261.076 437.418ZM289.327 303.647C289.299 303.599 289.258 303.564 289.221 303.524C300.452 296.041 312.145 289.561 323.802 284.173C321.818 291.689 320.281 299.346 319.087 307.079C318.778 307.095 318.454 307.17 318.134 307.333C310.97 310.998 304.24 315.429 297.887 320.39C295.369 314.657 292.608 309.035 289.327 303.647ZM252.612 411.953C247.922 407.728 243.191 403.549 238.398 399.441C245.64 385.425 254.483 372.181 264.053 359.77C264.607 359.05 265.175 358.333 265.739 357.616C268.698 365.264 271.693 372.89 275.151 380.29C267.266 389.942 259.021 400.566 252.612 411.953ZM233.253 434.554C233.19 434.548 233.108 434.553 233.023 434.56C232.685 434.073 232.236 433.453 231.667 432.725C230.4 430.326 228.849 428.057 227.126 425.993C229.783 417.967 233.064 410.158 236.823 402.569C241.575 406.674 246.273 410.84 250.927 415.056C247.445 421.682 244.631 428.55 242.928 435.629C239.701 435.283 236.476 434.929 233.253 434.554ZM314.924 361.179C312.733 356.766 310.754 352.258 308.887 347.702C311.07 345.999 313.306 344.407 315.599 342.959C315.312 348.506 315.11 354.037 314.964 359.531C314.949 360.076 314.937 360.629 314.924 361.179ZM276.349 382.829C279.156 388.599 282.292 394.206 285.971 399.548C285.101 400.474 284.231 401.4 283.376 402.334C277.253 409.033 271.06 416.501 266.485 424.678C262.661 421.113 258.815 417.566 254.939 414.051C260.881 402.968 268.685 392.636 276.134 383.102C276.204 383.012 276.277 382.92 276.349 382.829ZM318.619 310.166C318.216 312.987 317.864 315.82 317.542 318.656C316.687 324.576 316.061 330.602 315.901 336.204C315.873 337.174 315.85 338.128 315.829 339.076C315.771 340.061 315.699 341.045 315.648 342.029C314.791 342.074 313.588 342.312 313.245 342.526C311.519 343.592 309.834 344.742 308.182 345.952C305.109 338.34 302.257 330.632 299.055 323.082C305.207 318.179 311.723 313.803 318.619 310.166ZM211.5 417.867C213.35 418.798 215.131 419.875 216.809 421.088C214.598 419.857 212.822 418.75 211.5 417.867ZM305.699 350.293C308.307 356.562 311.123 362.739 314.495 368.665C314.559 368.779 314.656 368.863 314.768 368.935C314.736 371.162 314.715 373.398 314.711 375.643C314.293 375.732 313.938 375.837 313.776 375.937C304.525 381.623 296.267 388.932 288.673 396.734C284.98 391.196 281.843 385.384 279.035 379.407C286.928 369.387 295.738 358.748 305.699 350.293ZM295.87 325.682C299.01 333.215 301.843 340.888 304.932 348.445C294.803 356.59 286.001 367.049 277.885 376.946C274.496 369.46 271.547 361.754 268.576 354.054C276.757 343.948 285.816 334.147 295.87 325.682ZM262.118 357.078C252.245 369.494 243.152 382.928 235.679 397.136C230.252 392.537 224.754 388.024 219.155 383.642C219.102 383.601 219.04 383.569 218.972 383.543C226.961 364.126 239.605 346.633 254.87 331.427C258.404 338.858 261.442 346.526 264.423 354.219C263.65 355.17 262.877 356.123 262.118 357.078ZM217.697 386.722C223.246 391.113 228.71 395.613 234.094 400.212C230.359 407.607 227.079 415.203 224.366 422.973C223.896 422.505 223.423 422.051 222.947 421.617C219.247 418.234 214.97 415.605 210.425 413.851C210.651 413.652 210.809 413.42 210.845 413.161C212.121 404.011 214.471 395.193 217.697 386.722ZM267.292 350.737C264.374 343.226 261.365 335.754 257.83 328.54C266.584 320.165 276.112 312.518 286.061 305.664C289.37 311.229 292.16 317.026 294.705 322.937C284.663 331.219 275.596 340.799 267.292 350.737ZM461.726 366.883C454.935 366.865 448.147 366.792 441.356 366.69C442.324 360.387 442.783 354.058 442.983 347.715C450.503 348.046 458.029 348.26 465.564 348.284C465.902 348.284 466.199 348.213 466.459 348.101C465.61 354.578 464.142 360.923 461.726 366.797C461.714 366.829 461.716 366.857 461.726 366.883ZM401.767 342.184C391.64 341.462 381.512 340.762 371.375 340.238C371.822 336.001 372.367 331.773 372.751 327.583C380.598 325.04 386.478 319.131 393.359 314.76C397.906 323.018 400.422 332.514 401.767 342.184ZM368.869 276.4C369.844 279.475 370.933 282.603 372.161 285.688L372.16 285.727C371.614 285.987 371.203 286.352 371.195 286.794C371.118 291.117 370.608 295.463 370.034 299.815C369.86 299.732 369.6 299.679 369.209 299.679C361.531 299.679 353.853 299.679 346.174 299.679C345.577 299.679 344.753 300.063 344.196 300.506C345.85 292.841 348.229 285.344 351.53 278.378C357.168 277.633 362.808 276.891 368.48 276.461C368.614 276.452 368.744 276.431 368.869 276.4ZM450.609 278.68C451.756 278.768 452.898 278.886 454.039 279.005L458.686 280.021C458.661 280.074 458.652 280.123 458.673 280.167C465.299 293.423 466.864 309.002 467.348 323.612C467.583 330.702 467.544 338.167 466.766 345.52C466.528 345.422 466.236 345.361 465.875 345.36C458.265 345.336 450.665 345.12 443.069 344.782C443.192 338.693 443.129 332.594 443.093 326.495C444.369 319.471 443.574 312.398 442.405 305.325C442.525 305.345 442.662 305.358 442.82 305.362C449.456 305.533 455.801 307.752 462.443 307.923C464.04 307.964 466.481 305.588 463.877 305.52C457.24 305.349 450.896 303.13 444.254 302.959C443.554 302.941 442.692 303.387 442.164 303.9C441.026 297.247 439.676 290.597 439.541 283.995C439.534 283.676 439.155 283.525 438.638 283.507C439.367 281.147 439.998 278.822 440.545 276.59C443.163 278.381 446.433 278.874 449.605 278.33C449.774 278.51 450.09 278.642 450.609 278.68ZM371.933 365.245C370.23 357.992 370.406 350.577 371.084 343.161C381.442 343.695 391.791 344.415 402.14 345.154C402.922 351.948 403.185 358.77 403.224 365.252C403.229 366.13 407.072 365.492 407.064 364.223C407.04 360.301 406.93 356.251 406.678 352.16C406.878 352.007 407.019 351.834 407.05 351.65C407.386 349.715 407.758 347.674 408.177 345.584C418.503 346.319 428.831 347.022 439.167 347.529C438.987 353.915 438.545 360.287 437.603 366.633C415.713 366.264 393.825 365.607 371.933 365.245ZM408.788 342.684C410.87 333.286 414.186 323.314 420.606 316.867C420.774 316.923 420.945 316.982 421.118 317.045C426.909 321.197 432.289 326.064 439.256 327.969C439.289 333.514 439.334 339.06 439.237 344.596C429.08 344.094 418.934 343.405 408.788 342.684ZM368.146 274.077C367.82 274.103 367.497 274.142 367.171 274.17L368.108 273.944C368.121 273.989 368.133 274.032 368.146 274.077ZM439.241 325.168C439.216 325.157 439.192 325.143 439.167 325.132V310.144C439.759 314.449 440.097 318.75 439.775 323.029C439.45 323.273 439.234 323.568 439.234 323.906C439.236 324.328 439.24 324.748 439.241 325.168ZM411.915 324.003C413.408 319.974 415.06 316.772 416.635 316.322C416.97 316.227 417.382 316.207 417.846 316.24C415.515 318.489 413.562 321.123 411.915 324.003ZM367.852 365.185C361.136 365.087 354.42 365.016 347.703 365.001C343.875 357.921 342.055 349.955 341.346 341.85C341.614 342.124 342.059 342.309 342.708 342.31C350.913 342.335 359.108 342.59 367.298 342.973C366.586 350.423 366.32 357.88 367.852 365.185ZM343.935 301.728C344.106 301.786 344.348 301.819 344.671 301.819C352.349 301.819 360.027 301.819 367.706 301.819C368.389 301.819 369.366 301.318 369.904 300.801C368.736 309.552 367.441 318.329 368.981 327C368.616 331.318 368.066 335.679 367.595 340.05C359.411 339.667 351.221 339.414 343.019 339.387C342.158 339.385 341.531 339.818 341.23 340.351C340.814 334.504 340.928 328.616 341.244 322.964C341.638 315.959 342.486 308.784 343.935 301.728Z" fill="#FBC02D"/>
<path d="M401.261 302.128C404.28 298.29 409.501 299.028 412.921 301.777C413.629 302.347 410.19 303.84 409.314 303.134C408.549 302.519 407.716 301.873 406.787 301.524C405.704 301.117 405.489 301.01 404.763 301.932C404.154 302.706 400.41 303.21 401.261 302.128ZM360.3 260.917C359.12 260.041 357.566 260.002 356.19 260.297C355.491 260.446 354.358 261.145 354.593 262.017C354.825 262.883 355.978 262.863 356.696 262.734C356.68 262.738 356.687 262.739 356.735 262.735C356.762 262.743 356.776 262.747 356.826 262.762C357.05 262.824 357.302 262.986 357.513 263.179C358.173 263.786 358.565 264.598 358.858 265.43C359.43 267.06 363.253 265.979 362.698 264.401C362.213 263.015 361.493 261.804 360.3 260.917ZM447.654 269.872C448.732 266.798 451.545 264.692 454.87 265.406C455.745 265.594 455.879 266.518 455.328 267.112C454.685 267.805 453.694 268.003 452.792 267.858C452.782 267.875 452.714 267.901 452.674 267.909C452.605 267.95 452.543 267.987 452.536 267.992C452.619 267.93 452.576 267.975 452.41 268.127C451.878 268.725 451.56 269.451 451.296 270.202C450.78 271.67 446.946 271.885 447.654 269.872ZM452.612 267.84C452.636 267.845 452.644 267.849 452.654 267.853C452.674 267.85 452.686 267.85 452.702 267.849C452.672 267.844 452.641 267.846 452.612 267.84ZM370.341 236.765C380.829 231.3 394.145 231.572 405.656 232.122C416.612 232.647 428.029 234.294 438.311 238.25C439.351 238.65 442.174 237.071 441.94 236.981C429.555 232.217 415.898 230.762 402.718 230.469C390.912 230.207 378.07 231.214 367.428 236.758C365.823 237.596 369.692 237.103 370.341 236.765ZM615.096 334.988C616.135 335.326 619.613 333.741 618.192 333.279C613.397 331.717 608.517 330.664 603.552 329.819C605.424 326.787 607.13 323.652 609.088 320.672C609.625 319.855 608.625 319.209 607.937 319.138C606.95 319.034 605.973 319.468 605.431 320.292C603.67 322.973 602.119 325.787 600.462 328.534C599.127 325.077 598.229 321.481 598.103 317.739C598.04 315.868 594.181 316.586 594.232 318.106C594.525 326.768 598.475 334.519 602.931 341.767C603.741 343.083 607.44 341.732 606.467 340.15C604.873 337.557 603.321 334.868 601.993 332.08C602.06 332.023 602.108 331.945 602.169 331.883C606.547 332.656 610.856 333.607 615.096 334.988ZM633.024 323.041C633.297 321.857 633.68 320.804 634.346 319.784C635.232 318.431 636.156 318.731 637.463 319.366C640.05 320.625 641.418 323.449 642.026 326.116C642.2 326.881 646.058 325.923 645.866 325.087C644.945 321.04 642.269 317.582 637.92 317.249C634.229 316.965 631.12 319.042 629.753 322.214C626.955 321.029 623.581 321.272 620.888 323.139C620.363 322.529 619.823 321.934 619.262 321.363C618.103 320.182 614.458 321.714 615.735 323.015C618.276 325.604 620.567 328.543 621.551 332.088C622.019 333.773 625.857 332.739 625.391 331.06C624.784 328.873 623.714 326.885 622.402 325.058C622.503 324.971 622.611 324.893 622.7 324.792C625.854 321.173 630.197 326.088 630.981 329.21C631.319 330.558 635.164 329.545 634.821 328.181C634.35 326.31 633.387 324.814 632.144 323.709C632.609 323.529 632.963 323.301 633.024 323.041ZM170.547 305.934C172.455 303.747 174.905 304.51 177.174 305.742C178.151 306.272 181.712 304.801 180.266 304.016C173.219 300.192 165.468 304.576 164.112 312.22C163.551 315.383 164.222 318.902 166.686 321.109C169.771 323.873 174.742 323.044 178.288 321.883C180.506 321.158 180.107 319.485 177.844 320.224C171.851 322.185 167.346 318.884 167.828 312.507C168.01 310.1 168.961 307.751 170.547 305.934ZM209.494 325.673C209.468 326.441 213.293 325.885 213.334 324.645C213.459 320.968 212.267 317.505 208.752 315.912C206.01 314.668 202.697 315.506 199.943 316.809C199.64 316.208 199.206 315.672 198.603 315.237C196.517 313.733 193.535 314.207 191.054 315.039C190.633 314.451 187.642 314.921 187.269 315.905C186.407 318.186 185.766 320.362 185.638 322.812C185.593 323.653 189.41 323.091 189.478 321.783C189.564 320.14 189.948 318.607 190.454 317.086C190.497 317.069 190.545 317.053 190.583 317.036C192.303 316.288 194.131 315.698 195.629 317.173C197.205 318.725 196.754 321.608 196.322 323.502C196.048 324.704 199.88 324.077 200.139 322.935C200.457 321.538 200.675 319.908 200.434 318.425C200.536 318.37 200.642 318.323 200.738 318.263C206.326 314.83 209.663 320.676 209.494 325.673ZM409.624 150.93C409.624 148.706 409.624 146.482 409.624 144.258C410.083 141.525 411.276 139.218 414.008 139.89C418.563 141.008 418.356 147.492 417.748 150.904C417.55 152.015 421.258 151.254 421.551 150.282C422.425 147.382 425.333 140.184 429.569 141.121C433.759 142.049 432.744 149.059 432.252 151.756C432.055 152.838 435.868 152.166 436.055 151.135C437.006 145.911 436.822 138.905 429.915 139.31C426.461 139.513 423.632 141.338 421.504 143.853C420.734 140.334 418.53 137.534 414.008 138.051C412.251 138.251 410.804 138.793 409.624 139.579C409.624 139.382 409.624 139.184 409.624 138.986C409.624 138.193 405.785 138.797 405.785 140.014C405.785 141.91 405.785 143.805 405.785 145.7C405.386 147.658 405.403 149.812 405.785 151.959C405.957 152.936 409.624 152.016 409.624 150.93ZM130.305 211.966C129.89 211.627 130.399 211.135 131.167 210.773C131.016 210.162 131.44 209.427 132.619 209.159C167.829 201.134 202.301 188.219 236.506 176.805C254.492 170.804 272.453 164.732 290.408 158.634C297.716 156.151 305.52 152.362 313.162 151.05C315.622 150.627 314.904 153.052 313.116 153.622C300.059 174.983 286.963 196.318 273.813 217.621C265.024 231.858 256.238 246.099 247.297 260.241C244.806 264.18 242.336 268.138 239.727 272C239.208 272.769 238.724 273.509 238.155 274.104C238.381 274.241 238.606 274.378 238.833 274.516C239.714 275.05 236.331 276.613 235.249 275.955C217.859 265.408 200.476 254.849 183.098 244.282C170.939 236.886 158.779 229.488 146.639 222.063C141.325 218.816 135.146 215.912 130.305 211.966ZM237.383 273.422C237.249 273.412 237.128 273.41 237.005 273.408C237.026 273.42 237.046 273.433 237.066 273.445C237.182 273.426 237.292 273.416 237.383 273.422ZM134.845 211.259C139.783 215.039 145.827 217.94 151.076 221.148C162.933 228.395 174.804 235.62 186.677 242.841C203.031 252.787 219.393 262.722 235.758 272.652C235.823 272.561 235.885 272.475 235.955 272.37C236.916 270.946 237.854 269.508 238.785 268.065C241.843 263.327 244.846 258.554 247.841 253.774C256.536 239.898 265.146 225.968 273.739 212.029C285.416 193.087 297.053 174.123 308.66 155.139C307.771 155.438 306.881 155.736 305.993 156.037C300.033 158.055 294.078 160.082 288.12 162.105C270.216 168.182 252.304 174.235 234.366 180.209C201.583 191.125 168.561 203.429 134.845 211.259ZM186.607 216.877C186.336 216.68 186.568 216.372 187.02 216.079C187.019 215.642 187.463 215.142 188.503 214.901C202.827 211.578 216.845 206.384 230.774 201.733C240.917 198.345 251.136 193.914 261.53 191.365C263.515 190.879 264.163 192.192 262.82 192.929C257.534 201.575 252.235 210.213 246.911 218.835C243.454 224.432 240.002 230.032 236.488 235.593C235.555 237.07 234.357 239.943 232.82 241.486C233.325 241.991 230.179 243.439 229.179 242.833C215.102 234.296 199.907 226.571 186.607 216.877ZM191.244 216.212C203.462 224.963 217.168 232.158 230.123 239.863C230.404 239.502 230.676 239.156 230.82 238.931C232.052 237.012 233.268 235.082 234.479 233.149C237.918 227.655 241.327 222.143 244.728 216.625C249.337 209.148 253.928 201.664 258.511 194.172C248.859 196.896 239.332 200.92 229.879 204.065C217.134 208.305 204.317 212.996 191.244 216.212ZM739.682 623.478C724.004 634.983 699.503 640.711 681.61 630.743C680.372 630.054 679.256 629.306 678.222 628.509C626.226 639.44 572.982 644.563 520.009 647.598C379.12 655.673 236.985 649.574 96.6567 634.417C85.4595 637.009 72.8891 635.484 62.7417 631.337C41.4871 622.654 24.0578 599.948 32.1111 576.011C35.3133 566.494 41.6727 559.38 49.3774 555.496C49.2965 555.42 49.2303 555.333 49.1971 555.224C48.834 554.021 51.9037 551.28 52.5266 550.555C56.0509 546.447 59.6773 542.427 63.3129 538.42C75.1053 525.426 87.0739 512.59 99.1061 499.817C124.904 472.434 150.733 444.873 178.135 419.072C178.14 419.067 178.149 419.063 178.156 419.056C177.603 418.725 177.473 418.151 178.424 417.458C187.028 411.175 197.495 410.002 207.123 412.739C216.076 351.823 271.27 305.242 324.589 281.262C324.649 281.05 324.702 280.837 324.761 280.625C324.837 280.36 325.2 280.133 325.669 279.958C325.812 279.232 327.168 278.197 328.213 278.183C341.295 278.012 354.165 275.304 367.171 274.17C367.497 274.142 367.82 274.104 368.146 274.077C368.133 274.032 368.121 273.99 368.108 273.945C367.795 272.911 367.496 271.889 367.204 270.878C364.27 273.205 360.383 274.265 356.601 273.243C352.044 272.012 346.759 268.342 346.493 263.116C346.239 258.123 348.422 254.426 352.489 252.726L352.351 252.701L352.497 251.313C351.337 247.847 352.077 243.057 351.75 239.615C351.663 239.461 351.644 239.29 351.689 239.111C351.663 238.924 351.641 238.733 351.608 238.556C351.512 238.055 351.886 237.617 352.431 237.306C352.701 218.601 361.868 197.784 379.523 189.96C385.036 187.517 390.663 186.105 396.389 185.382C398.755 183.706 404.531 184.383 406.584 184.413C414.517 184.529 422.834 185.875 430.112 189.138C450.273 198.178 456.511 217.811 456.208 238.525C457.251 237.862 458.294 237.2 459.344 236.55C463.651 233.884 468.518 229.811 473.457 227.942C473.295 227.553 473.73 226.958 474.898 226.599C477.963 225.654 481.159 224.828 484.402 224.223C484.687 224.139 484.987 224.087 485.278 224.071C489.822 223.285 494.442 222.961 498.925 223.476C499.186 223.505 499.817 223.683 499.621 224.098C498.383 226.717 496.563 229.058 494.598 231.247C495.038 231.723 494.971 232.463 493.839 233.08C493.352 233.347 492.844 233.527 492.33 233.671C491.952 234.062 491.576 234.45 491.203 234.834C489.391 236.7 485.163 239.513 484.263 242.014C484.098 242.476 483.355 242.826 482.568 243.01C482.388 243.124 482.137 243.241 481.791 243.356C472.39 246.491 464.42 253.508 455.361 257.523C459.356 258.927 461.903 262.602 461.195 267.455C460.621 271.397 458.059 274.537 454.757 276.458C464.272 277.403 473.627 279.332 483.231 279.444C484.678 279.461 484.581 280.23 483.93 280.907C483.956 280.996 483.978 281.085 484.002 281.173C484.716 280.894 485.518 280.768 485.999 280.983C539.413 304.892 594.755 351.714 603.293 412.849C603.308 412.95 603.304 413.047 603.288 413.142C605.898 414.089 608.433 415.413 610.837 417.168C611.433 417.602 611.373 418.098 611.003 418.519C611.044 418.546 611.089 418.569 611.125 418.602C638.817 444.675 664.923 472.531 690.974 500.225C702.875 512.877 714.735 525.572 726.387 538.452C729.907 542.345 733.442 546.232 736.835 550.238C737.41 550.916 740.129 553.347 739.796 554.447C739.783 554.49 739.758 554.528 739.738 554.568C743.232 556.227 746.532 558.71 749.473 562.143C765.588 580.96 758.71 609.515 739.682 623.478ZM590.193 381.491C586.206 383.926 582.284 386.46 578.41 389.064C582.096 395.934 585.299 403.025 587.938 410.295C588.158 410.902 587.78 411.428 587.187 411.772C591.161 411.13 595.201 411.159 599.142 411.976C597.48 401.357 594.426 391.173 590.193 381.491ZM493.902 361.239C493.986 366.112 494.032 371.04 493.994 375.993C501.292 380.408 508.526 385.014 515.453 390.025C520.393 384.37 524.592 378.132 528.99 372.055C519.391 363.019 509.266 353.812 498.272 346.374C496.237 351.206 494.688 356.153 493.902 361.239ZM495.592 344.611C494.829 344.122 494.061 343.647 493.289 343.178C493.397 345.253 493.492 347.325 493.572 349.396C494.192 347.787 494.868 346.192 495.592 344.611ZM516.757 390.981C520.123 393.456 523.419 396.019 526.597 398.723C531.124 402.573 535.794 406.777 539.841 411.454C539.878 411.428 539.907 411.402 539.948 411.378C545.568 408.015 551.024 404.405 556.43 400.719C549.163 391.832 541.15 383.549 532.816 375.663C532.253 375.13 531.686 374.593 531.12 374.059C527.134 379.589 523.196 385.154 518.674 390.273C518.382 390.606 517.554 390.866 516.757 390.981ZM559.437 398.671C564.229 395.372 568.999 392.04 573.806 388.762C566.862 376.159 558.246 364.327 548.382 353.599C546.109 355.795 543.832 358.012 541.708 360.415C538.664 363.863 535.887 367.513 533.179 371.218C535.091 373.045 536.979 374.871 538.842 376.681C546.039 383.671 553.085 390.892 559.437 398.671ZM546.85 351.949C536.313 340.757 524.425 330.808 511.678 322.511C507.25 329.297 502.896 336.278 499.537 343.518C510.829 350.766 521.288 359.949 531.085 369.224C533.325 366.225 535.646 363.289 538.185 360.529C540.948 357.527 543.948 354.77 546.85 351.949ZM509.312 321.009C503.1 317.095 496.7 313.575 490.163 310.488C491.589 320.15 492.511 329.915 493.094 339.654C494.372 340.364 495.635 341.109 496.892 341.871C500.451 334.688 504.891 327.761 509.312 321.009ZM485.901 437.028C485.848 437.191 485.688 437.337 485.469 437.465C505.723 435.617 525.905 433.058 545.853 429.407C542.065 416.803 531.434 406.852 521.51 398.797C512.784 391.713 503.503 385.394 493.959 379.48C493.648 398.944 491.884 418.704 485.901 437.028ZM549.778 428.652C553.934 427.86 558.079 427.025 562.211 426.134C564.076 423.939 566.178 421.935 568.453 420.151C566.426 413.843 562.364 408.123 558.221 402.932C552.789 406.637 547.307 410.267 541.658 413.646C545.25 418.174 548.169 423.14 549.778 428.652ZM571.827 417.756C575.961 415.104 580.521 413.167 585.22 412.145C584.707 412.058 584.273 411.806 584.1 411.325C581.612 404.473 578.615 397.771 575.173 391.265C570.51 394.448 565.879 397.681 561.229 400.883C565.322 406.017 569.515 411.558 571.827 417.756ZM561.371 338.209C558.691 343.189 554.959 347.172 551.026 351.029C561.097 361.85 569.914 373.8 577.04 386.565C580.972 383.927 584.951 381.36 589 378.901C582.155 364.108 572.639 350.487 561.371 338.209ZM522.78 305.186C519.971 309.937 516.769 314.761 513.533 319.682C526.54 328.037 538.689 338.048 549.46 349.348C553.041 345.666 556.293 341.724 558.516 336.876C558.649 336.587 559.009 336.348 559.455 336.169C548.484 324.559 535.988 314.177 522.78 305.186ZM484.707 283.769C484.947 284.666 485.162 285.571 485.39 286.471C487.106 293.245 488.512 300.123 489.628 307.071C490.014 306.998 490.4 307.013 490.726 307.162C497.71 310.37 504.542 314.065 511.165 318.183C514.014 313.841 516.801 309.567 519.278 305.339C519.58 304.823 520.691 304.514 521.639 304.417C509.877 296.505 497.589 289.699 485.355 284.072C485.139 283.973 484.923 283.867 484.707 283.769ZM454.041 279.005C452.9 278.886 451.757 278.768 450.611 278.68C450.091 278.641 449.776 278.511 449.606 278.333C446.434 278.876 443.163 278.383 440.547 276.593C439.999 278.825 439.368 281.15 438.639 283.51C439.156 283.527 439.535 283.679 439.542 283.998C439.677 290.599 441.028 297.25 442.165 303.903C442.694 303.39 443.555 302.944 444.255 302.962C450.897 303.133 457.242 305.352 463.878 305.523C466.483 305.589 464.041 307.967 462.444 307.926C455.802 307.755 449.457 305.536 442.821 305.365C442.665 305.361 442.528 305.348 442.406 305.328C443.574 312.401 444.369 319.474 443.094 326.498C443.13 332.597 443.193 338.697 443.07 344.785C450.665 345.121 458.266 345.339 465.877 345.363C466.237 345.364 466.529 345.425 466.768 345.523C467.546 338.169 467.585 330.705 467.349 323.615C466.864 309.005 465.3 293.426 458.674 280.17C458.653 280.126 458.663 280.077 458.688 280.024C458.747 279.9 458.922 279.755 459.174 279.609C457.466 279.385 455.755 279.185 454.041 279.005ZM465.564 348.282C458.029 348.259 450.503 348.045 442.983 347.714C442.783 354.057 442.324 360.386 441.356 366.689C448.147 366.792 454.935 366.865 461.726 366.882C461.716 366.856 461.714 366.828 461.726 366.796C464.142 360.92 465.61 354.576 466.459 348.1C466.199 348.212 465.902 348.284 465.564 348.282ZM385.127 292.102C382.099 291.554 379.277 290.12 377.203 288.052C382.554 300.615 390.65 311.959 404.398 314.198C408.524 314.87 412.165 314.34 415.387 312.947C415.617 312.443 416.742 311.919 417.684 311.763C424.672 307.589 429.471 299.171 432.764 290.453C430.627 291.695 427.959 292.245 424.799 291.673C419.451 290.707 414.754 286.968 413.689 281.864C413.613 281.839 413.536 281.814 413.468 281.777C413.067 281.558 412.558 281.246 411.982 280.888C412.103 282.26 412.14 283.635 411.915 285.016C411.639 286.712 410.845 288.507 408.971 288.907C406.662 289.4 405.044 288.15 403.484 286.587C402.193 285.292 405.834 283.75 407.009 284.93C407.274 285.196 407.589 285.533 407.932 285.82C408.192 284.525 408.211 283.185 408.162 281.872C408.12 280.727 407.964 279.556 407.822 278.386C404.732 276.68 401.362 275.342 399.578 276.83C399.34 277.028 399.055 277.155 398.756 277.23C400.209 284.769 395.043 293.892 385.127 292.102ZM416.823 280.759C417.428 285.28 420.731 289.483 426.763 289.811C430.276 290.003 432.762 288.474 434.253 286.188C434.872 284.279 435.425 282.392 435.917 280.558C436.055 275.737 433.429 270.658 428.092 269.744C427.614 269.662 427.355 269.486 427.254 269.27C419.977 268.948 416.456 274.438 416.738 279.835C417.04 280.118 417.027 280.446 416.823 280.759ZM416.832 314.218C414.167 315.363 411.241 316.051 408.021 316.149C404.272 316.261 400.871 315.762 397.762 314.789C401.91 322.714 404.268 331.705 405.565 340.868C407.012 335.015 408.987 329.126 411.916 324.003C413.564 321.123 415.516 318.49 417.846 316.242C418.142 315.957 418.435 315.669 418.742 315.397C418.114 314.986 417.476 314.595 416.832 314.218ZM388.42 270.171C387.943 270.089 387.683 269.913 387.583 269.697C373.756 269.084 373.493 289.496 387.091 290.237C398.941 290.884 399.207 272.017 388.42 270.171ZM374.706 291.524C373.725 302.505 371.037 313.613 372.585 324.529C372.827 324.69 372.972 324.931 372.945 325.277C372.934 325.414 372.921 325.55 372.91 325.687C380.27 322.973 386.068 316.684 392.847 312.746C384.72 308.428 378.974 300.464 374.706 291.524ZM371.375 340.238C381.512 340.762 391.64 341.462 401.767 342.184C400.422 332.514 397.906 323.018 393.357 314.761C386.477 319.131 380.598 325.041 372.75 327.585C372.367 331.773 371.822 336.001 371.375 340.238ZM371.085 343.161C370.406 350.577 370.23 357.993 371.935 365.245C393.827 365.607 415.713 366.264 437.605 366.633C438.548 360.287 438.989 353.916 439.169 347.53C428.832 347.022 418.506 346.318 408.18 345.584C407.761 347.673 407.39 349.715 407.053 351.65C407.021 351.835 406.881 352.007 406.681 352.161C406.932 356.251 407.042 360.301 407.066 364.223C407.074 365.493 403.231 366.131 403.227 365.252C403.188 358.772 402.924 351.949 402.142 345.154C391.792 344.416 381.443 343.696 371.085 343.161ZM439.237 344.596C439.334 339.06 439.289 333.515 439.256 327.969C432.289 326.064 426.909 321.199 421.118 317.045C420.983 316.948 420.851 316.847 420.716 316.751C420.677 316.788 420.643 316.83 420.606 316.867C414.188 323.314 410.87 333.287 408.788 342.684C418.934 343.405 429.08 344.094 439.237 344.596ZM439.775 323.029C440.097 318.749 439.759 314.45 439.167 310.145C438.276 303.67 436.806 297.183 436.097 290.742C432.569 299.585 427.466 307.968 420.034 312.552C426.582 316.423 432.179 322.172 439.167 325.133C439.192 325.143 439.216 325.158 439.241 325.168C439.24 324.748 439.236 324.328 439.234 323.907C439.234 323.569 439.451 323.273 439.775 323.029ZM491.053 231.336C492.027 230.229 492.975 229.1 493.833 227.911C495.801 225.179 495.892 224.929 492.14 225.097C490.299 225.181 488.469 225.357 486.649 225.616C485.648 227.926 488.558 231.343 491.053 231.336ZM475.212 236.515C476.28 239.279 478.443 240.892 481.129 241.4C482.288 239.804 484.357 238.322 485.536 237.131C486.625 236.028 487.723 234.915 488.805 233.785C487.451 233.504 486.155 232.884 485.072 231.944C483.459 230.543 482.233 228.412 482.662 226.317C480.69 226.72 478.727 227.18 476.789 227.726C477.249 227.73 477.503 227.82 477.257 228.04C474.948 230.11 474.084 233.593 475.212 236.515ZM453.642 242.447C451.157 244.034 448.66 245.603 446.119 247.085C445.331 251.171 444.625 255.272 443.917 259.373C443.991 259.317 444.056 259.254 444.135 259.201C446.416 257.651 449.601 256.752 452.36 256.926C452.364 256.926 452.368 256.927 452.373 256.927C460.595 253.586 469.365 246.429 478.354 242.847C475.266 242.365 472.395 240.77 471.373 237.543C470.683 235.363 470.827 233.155 471.726 231.227C470.966 231.683 470.206 232.138 469.449 232.599C466.153 234.611 462.867 236.639 459.588 238.678C458.439 239.392 457.295 240.117 456.152 240.846C456.152 240.858 456.152 240.871 456.151 240.883C456.11 241.914 454.745 242.525 453.642 242.447ZM356.337 237.866C356.782 237.905 357.226 237.941 357.672 237.976C359.432 238.122 361.176 238.299 362.863 238.855C363.134 238.88 363.35 238.953 363.469 239.09C363.651 239.161 363.835 239.22 364.016 239.302C364.684 239.604 364.49 240.256 364.129 240.711C366.429 245.732 371.563 247.351 377.036 247.978C385.361 248.932 393.774 248.903 402.134 249.325C406.001 249.52 420.607 251.028 431.843 249.663C436.263 249.126 440.149 248.141 442.663 246.459C445.304 244.692 446.438 242.163 445.033 238.556C444.704 237.714 448.479 236.512 448.873 237.527C449.626 239.462 449.708 241.12 449.322 242.57C449.29 242.694 449.277 242.825 449.237 242.944C449.574 242.733 449.909 242.52 450.246 242.308C450.918 241.886 451.593 241.465 452.262 241.038C452.93 222.811 448.792 202.553 431.312 193.394C425.727 190.468 419.622 188.665 413.382 187.826C407.216 187.439 400.957 187.356 394.855 188.239C390.634 188.85 386.486 189.918 382.498 191.685C381.497 192.127 380.534 192.622 379.592 193.141C364.183 201.635 356.488 219.975 356.353 237.369C356.349 237.534 356.337 237.701 356.337 237.866ZM370.32 267.292C371.343 270.981 372.486 274.994 373.841 279.077C373.894 278.511 373.973 277.937 374.116 277.35C375.458 271.815 379.649 268.718 384.688 267.898C384.535 267.734 384.44 267.523 384.444 267.246C384.478 264.765 384.966 262.352 385.724 259.994C386.191 258.543 390.088 258.047 389.588 259.599C388.83 261.957 388.343 264.368 388.308 266.851C388.304 267.169 388.114 267.447 387.83 267.678C388.367 267.687 388.907 267.712 389.45 267.768C390.096 267.834 390.341 268.089 390.341 268.394C394.157 269.311 396.647 271.666 397.937 274.575C400.805 272.802 404.251 273.424 407.589 274.825C407.593 274.647 407.593 274.468 407.604 274.291C407.716 272.639 411.617 272.037 411.487 273.962C411.423 274.904 411.461 275.847 411.542 276.79C412.251 277.187 412.938 277.586 413.598 277.975C413.651 277.627 413.704 277.279 413.79 276.924C414.974 272.043 418.372 269.058 422.615 267.856C422.486 267.698 422.408 267.499 422.411 267.247C422.445 264.766 422.933 262.354 423.69 259.996C424.156 258.544 428.053 258.049 427.553 259.601C426.795 261.959 426.309 264.37 426.274 266.852C426.273 267.003 426.221 267.145 426.146 267.279C427.121 267.223 428.117 267.239 429.123 267.343C429.768 267.409 430.013 267.663 430.013 267.968C433.745 268.864 436.214 271.135 437.527 273.955C437.555 273.825 437.584 273.695 437.612 273.567C437.559 273.485 437.501 273.41 437.449 273.327C436.67 272.059 440.413 270.867 441.026 271.865C441.062 271.925 441.103 271.982 441.14 272.041C441.395 272.105 441.547 272.225 441.505 272.418C441.496 272.46 441.485 272.504 441.477 272.548C443.554 275.501 446.963 277.742 450.706 276.19C453.769 274.92 456.757 272.18 457.259 268.732C457.772 265.21 456.469 259.827 452.277 259.146C446.845 258.262 445.966 261.561 443.147 264.918C443.087 264.989 443.004 265.055 442.909 265.117C442.903 265.152 442.897 265.186 442.89 265.222C442.69 266.333 439 266.527 439.05 266.25C440.096 260.442 441.042 254.616 442.145 248.817C432.393 252.425 415.981 251.732 411.529 251.574C398.979 251.13 385.689 251.512 373.268 249.476C371.533 249.191 369.843 248.829 368.264 248.316C368.105 251.917 368.347 255.483 368.811 259.056C368.995 260.469 366.697 261.35 365.569 260.851C365.122 260.861 364.737 260.767 364.536 260.527C362.756 258.408 361.692 255.313 358.831 254.44C358.235 254.257 357.633 254.127 357.039 254.053C356.143 254.47 354.909 254.652 354.33 254.184C352.727 254.6 351.432 255.703 350.875 257.776C350.444 259.378 350.046 261.181 350.441 262.836C352.147 269.983 361.604 274.823 366.37 267.898C366.333 267.675 366.551 267.445 366.903 267.238C367.858 266.459 370.735 266.174 370.32 267.292ZM351.53 278.378C348.229 285.345 345.85 292.843 344.196 300.506C344.753 300.065 345.577 299.679 346.174 299.679C353.852 299.679 361.531 299.679 369.209 299.679C369.6 299.679 369.86 299.732 370.034 299.816C370.608 295.462 371.118 291.117 371.195 286.795C371.203 286.352 371.612 285.987 372.16 285.728C372.165 285.725 372.169 285.722 372.173 285.72C372.169 285.709 372.165 285.698 372.161 285.688C370.933 282.602 369.843 279.476 368.869 276.401C368.744 276.43 368.614 276.452 368.48 276.462C362.808 276.891 357.168 277.635 351.53 278.378ZM369.904 300.802C369.366 301.319 368.389 301.82 367.706 301.82C360.028 301.82 352.349 301.82 344.671 301.82C344.347 301.82 344.106 301.786 343.935 301.728C342.486 308.783 341.638 315.958 341.246 322.965C340.929 328.617 340.815 334.506 341.231 340.352C341.532 339.82 342.158 339.386 343.02 339.389C351.222 339.414 359.412 339.669 367.596 340.052C368.066 335.68 368.617 331.32 368.983 327.001C367.441 318.329 368.735 309.552 369.904 300.802ZM367.297 342.974C359.107 342.591 350.913 342.337 342.706 342.311C342.057 342.31 341.611 342.126 341.345 341.851C342.054 349.958 343.874 357.922 347.702 365.003C354.419 365.016 361.135 365.089 367.851 365.187C366.32 357.88 366.586 350.423 367.297 342.974ZM318.727 362.267C318.341 388.275 318.709 416.041 326.867 441.009C326.916 441.16 326.787 441.329 326.556 441.493C336.979 441.854 347.406 442.092 357.833 442.196C356.227 433.852 352.762 425.555 352.122 417.052C351.041 416.664 350.966 415.414 352.357 414.892C353.11 414.142 354.974 413.792 355.634 414.193C388.504 407.814 424.079 409.19 457.032 413.79C458.089 413.937 458.333 414.433 458.143 414.951C459.141 414.779 460.103 414.95 459.96 415.671C458.468 423.225 457.879 433.049 453.541 439.6C453.483 439.688 453.393 439.77 453.291 439.848C462.905 439.289 472.521 438.605 482.124 437.766C482.125 437.754 482.119 437.743 482.123 437.73C488.384 418.555 490.128 397.668 490.245 377.205C489.919 377.007 489.595 376.807 489.269 376.609C489.074 376.492 489.56 376.127 490.246 375.798C490.253 372.717 490.228 369.647 490.173 366.596C489.821 366.568 489.591 366.479 489.602 366.32C489.703 364.913 489.862 363.517 490.078 362.132C490.042 360.696 490.002 359.265 489.957 357.841C489.159 332.452 487.031 306.392 480.071 281.857C474.321 281.663 468.651 280.892 462.975 280.114C469.428 293.615 471.051 309.642 471.232 324.402C471.401 338.189 470.827 353.159 465.508 366.091C465.355 366.465 464.699 366.739 463.975 366.902C466.378 366.983 464.085 369.404 462.459 369.402C454.592 369.394 446.728 369.301 438.865 369.178C438.589 369.204 438.324 369.204 438.096 369.167C407.07 368.67 376.054 367.533 345.022 367.5C343.813 367.499 343.682 366.955 344.048 366.375C336.53 352.768 336.269 335.419 337.679 320.338C338.998 306.244 341.724 291.733 347.856 278.861C341.381 279.698 334.897 280.421 328.36 280.601C320.985 306.858 319.128 335.126 318.727 362.267ZM361.783 441.724C361.815 441.897 361.773 442.063 361.678 442.219C379.061 442.34 396.443 442.125 413.797 441.579C425.781 441.202 437.806 440.712 449.838 440.047C449.814 439.918 449.852 439.763 449.977 439.575C452.278 436.099 453 431.187 453.883 427.19C454.678 423.592 455.375 419.976 456.09 416.36C455.939 416.376 455.786 416.38 455.639 416.36C423.272 411.842 388.289 410.328 356.011 416.617C356.781 425.1 360.263 433.387 361.783 441.724ZM288.671 396.735C296.266 388.931 304.523 381.622 313.775 375.937C313.937 375.838 314.292 375.732 314.709 375.643C314.713 373.399 314.734 371.163 314.766 368.935C314.656 368.864 314.558 368.779 314.493 368.665C311.123 362.738 308.306 356.562 305.698 350.293C295.737 358.748 286.927 369.387 279.033 379.407C281.841 385.384 284.979 391.196 288.671 396.735ZM276.349 382.83C276.277 382.92 276.206 383.013 276.134 383.103C268.684 392.637 260.881 402.968 254.939 414.051C258.815 417.566 262.661 421.113 266.485 424.679C271.062 416.501 277.254 409.033 283.376 402.335C284.23 401.4 285.101 400.475 285.971 399.549C282.291 394.207 279.156 388.599 276.349 382.83ZM314.924 361.179C314.937 360.63 314.949 360.077 314.964 359.53C315.111 354.036 315.314 348.505 315.599 342.958C313.306 344.406 311.07 345.997 308.887 347.701C310.754 352.259 312.733 356.765 314.924 361.179ZM315.648 342.029C315.701 341.046 315.771 340.061 315.829 339.076C316.234 332.267 316.773 325.448 317.542 318.658C317.862 315.821 318.215 312.989 318.619 310.167C311.723 313.804 305.207 318.179 299.055 323.082C302.257 330.632 305.108 338.34 308.182 345.952C309.834 344.742 311.519 343.592 313.245 342.526C313.588 342.313 314.791 342.073 315.648 342.029ZM295.87 325.683C285.816 334.148 276.757 343.948 268.576 354.056C271.547 361.754 274.496 369.46 277.885 376.947C286.001 367.05 294.803 356.592 304.932 348.447C301.842 340.887 299.01 333.215 295.87 325.683ZM265.74 357.615C265.177 358.333 264.608 359.05 264.054 359.769C254.485 372.18 245.641 385.424 238.399 399.44C243.192 403.547 247.924 407.727 252.613 411.952C259.021 400.565 267.267 389.942 275.152 380.288C271.693 372.889 268.7 365.262 265.74 357.615ZM236.823 402.571C233.064 410.16 229.783 417.968 227.126 425.995C228.848 428.057 230.4 430.328 231.667 432.727C231.999 433.354 232.322 433.985 232.61 434.629C232.765 434.594 232.9 434.573 233.023 434.562C233.108 434.554 233.19 434.549 233.253 434.557C236.476 434.932 239.701 435.286 242.928 435.633C244.63 428.554 247.444 421.686 250.927 415.06C246.273 410.841 241.575 406.674 236.823 402.571ZM245.653 435.921C250.789 436.459 255.931 436.952 261.076 437.419C262.033 434.068 263.336 430.815 264.906 427.664C264.697 427.636 264.518 427.575 264.399 427.465C260.726 424.029 257.029 420.612 253.309 417.219C250.433 423.018 248.103 429.013 246.639 435.205C246.572 435.486 246.17 435.735 245.653 435.921ZM264.564 437.734C283.942 439.431 303.372 440.633 322.821 441.366C316.317 421.087 314.744 398.9 314.713 377.305C314.713 377.301 314.713 377.297 314.713 377.293C309.662 380.572 304.871 384.35 300.326 388.418C296.615 391.739 293.064 395.25 289.7 398.869C289.603 399.087 289.399 399.29 289.134 399.466C287.925 400.779 286.736 402.1 285.572 403.428C276.855 413.386 267.984 424.703 264.564 437.734ZM289.221 303.524C289.258 303.564 289.299 303.6 289.327 303.647C292.608 309.034 295.369 314.658 297.887 320.39C304.24 315.429 310.97 310.998 318.134 307.333C318.454 307.169 318.778 307.095 319.087 307.079C320.281 299.346 321.819 291.689 323.802 284.173C312.145 289.562 300.452 296.041 289.221 303.524ZM257.83 328.54C261.365 335.755 264.375 343.226 267.292 350.737C275.596 340.799 284.662 331.219 294.705 322.938C292.16 317.026 289.37 311.229 286.061 305.665C276.112 312.517 266.584 320.165 257.83 328.54ZM218.972 383.543C219.04 383.571 219.102 383.601 219.155 383.642C224.755 388.024 230.252 392.537 235.679 397.136C243.152 382.929 252.245 369.496 262.118 357.078C262.877 356.122 263.65 355.171 264.423 354.218C261.442 346.525 258.402 338.857 254.87 331.426C239.605 346.632 226.961 364.127 218.972 383.543ZM210.423 413.851C214.968 415.605 219.245 418.234 222.946 421.617C223.422 422.053 223.896 422.506 224.364 422.973C227.077 415.203 230.358 407.607 234.093 400.213C228.709 395.613 223.244 391.114 217.696 386.722C214.47 395.192 212.12 404.01 210.842 413.161C210.808 413.421 210.651 413.651 210.423 413.851ZM87.1547 631.57C92.9349 630.747 98.2512 628.242 101.638 622.861C104.058 619.015 105.406 614.669 105.936 610.195C100.279 611.415 94.7096 613.021 89.0076 614.036C88.1912 614.18 87.5841 613.956 87.213 613.598C71.3954 616.24 55.025 589.897 71.4935 580.13C71.9202 579.877 72.5074 579.792 73.0667 579.827C77.2604 576.748 80.733 572.897 83.4833 568.417C83.8319 567.85 85.4794 567.423 86.4337 567.524C81.9087 561.765 76.1152 557.3 69.5053 555.432C46.2109 548.855 30.4529 574.36 35.0972 595C38.9383 612.072 51.7207 624.769 68.1507 630.101C68.8651 629.818 69.6445 629.592 70.013 629.636C75.7229 630.307 81.4395 630.934 87.1547 631.57ZM87.0155 568.286C87.0116 568.294 87.0116 568.299 87.0063 568.307C83.6715 573.742 79.2803 578.122 74.0025 581.596C73.9892 581.604 73.9813 581.612 73.9694 581.62C64.8464 587.032 68.1415 598.227 74.3802 604.662C77.3678 607.744 82.0849 611.626 86.7544 611.083C92.3013 610.436 95.8097 605.528 96.4619 600.275C97.7462 589.932 93.9913 577.563 87.0155 568.286ZM94.6619 610.077C98.4977 609.175 102.31 608.173 106.167 607.374C106.304 604.167 106.053 600.934 105.491 597.807C103.668 587.665 99.1087 577.655 92.3172 569.785C100.56 582.549 105.64 601.21 94.6619 610.077ZM105.078 628.727C112.306 624.7 115.698 617.91 120.382 611.52C135.828 590.451 151.749 569.686 168.065 549.282C178.926 535.702 189.589 522.398 198.427 507.348C208.099 490.878 216.65 473.751 226.714 457.512C233.268 446.938 230.596 435.745 223.586 427.365C223.467 427.274 223.369 427.165 223.303 427.033C221.41 424.826 219.215 422.823 216.809 421.087C215.131 419.874 213.351 418.796 211.5 417.866C201.917 413.049 190.428 412.294 181.338 418.643C181.656 418.815 181.697 419.124 181.187 419.605C153.96 445.24 128.285 472.61 102.664 499.828C90.8752 512.349 79.1332 524.917 67.5768 537.651C63.9677 541.628 60.3559 545.608 56.8488 549.674C56.2961 550.315 53.966 552.904 53.2516 553.848C57.762 552.288 62.5972 551.784 67.4509 552.47C67.879 552.248 68.3774 552.136 68.8585 552.227C92.0734 556.65 108.795 579.339 109.971 602.448C110.046 603.932 110.047 605.442 109.98 606.955C111.224 607.39 111.38 608.888 109.81 609.374C109.076 616.663 106.424 623.812 100.608 628.561C98.6037 630.197 96.4486 631.433 94.1954 632.361C94.3372 632.377 94.4803 632.394 94.6222 632.41C98.2764 631.734 101.81 630.547 105.078 628.727ZM677.099 627.602C672.988 624.081 670.281 619.725 666.916 615.06C660.772 606.544 654.42 598.174 648.066 589.815C639.073 577.983 630.012 566.201 620.778 554.557C610.765 541.934 600.258 529.808 591.723 516.085C581.617 499.837 573.01 482.742 563.346 466.237C557.213 455.763 550.846 446.682 556.755 434.459C557.941 432.006 559.406 429.68 561.094 427.511C557.319 428.322 553.534 429.088 549.741 429.819C548.959 430.444 546.666 430.969 546.222 430.495C501.836 438.744 456.265 441.717 411.281 443.058C361.635 444.538 311.826 443.51 262.32 439.223C259.842 439.008 257.362 438.796 254.885 438.564C247.686 437.892 240.496 437.154 233.312 436.339C234.884 440.545 235.421 445.029 234.211 449.472C232.233 456.729 227.1 463.051 223.423 469.526C218.88 477.529 214.504 485.623 210.026 493.661C201.131 509.628 191.744 525.113 180.102 539.242C171.069 550.205 162.309 561.393 153.631 572.637C145.17 583.6 136.768 594.612 128.505 605.724C124.622 610.948 121.255 616.737 117.286 621.843C113.071 627.264 107.463 630.914 101.215 633.102C158.334 639.173 215.638 643.573 273.013 646.268C348.306 649.802 423.822 650.754 499.138 647.32C558.674 644.607 618.644 639.731 677.099 627.602ZM685.303 625.861C681.552 621.251 679.639 615.47 679.09 609.539C677.434 609.178 677.88 607.833 678.935 607.154C678.877 605.333 678.935 603.512 679.106 601.72C681.263 578.982 697.278 556.74 720.483 552.319C721.142 552.193 721.656 552.308 722.029 552.532C726.083 551.751 730.213 551.735 734.211 552.651C733.189 551.502 732.044 550.291 731.731 549.93C728.107 545.767 724.408 541.67 720.693 537.588C709.007 524.746 697.161 512.047 685.25 499.413C659.881 472.507 634.484 445.432 607.55 420.073C607.256 419.796 607.393 419.468 607.747 419.173C598.617 412.567 586.704 412.852 576.84 417.639C575.979 418.057 575.134 418.513 574.307 418.998C573.723 419.341 573.144 419.692 572.579 420.068C572.543 420.362 572.024 420.677 571.369 420.916C565.545 425.141 561 431.094 559.109 438.121C556.056 449.471 562.621 457.168 568.023 466.597C574.502 477.904 580.581 489.435 587.071 500.736C599.061 521.608 613.897 539.63 628.683 558.486C640.669 573.769 652.488 589.189 664.077 604.776C668.049 610.118 671.505 616.472 675.786 621.514C677.48 623.509 679.408 625.212 681.495 626.667C682.764 626.398 684.037 626.14 685.303 625.861ZM695.865 571.441C696.895 569.7 698.058 568.043 699.334 566.482C690.456 575.071 684.627 587.116 683.212 599.271C682.913 601.843 682.78 604.542 682.897 607.243C686.311 607.943 689.688 608.806 693.076 609.622C691.275 607.924 689.902 605.723 689.232 603.096C686.564 592.624 690.51 580.492 695.865 571.441ZM692.398 631.668C690.543 630.712 688.799 629.504 687.218 627.973C686.803 627.572 686.409 627.158 686.03 626.732C685.752 626.859 685.458 626.965 685.182 627.026C684.389 627.201 683.594 627.36 682.801 627.533C685.758 629.386 689.004 630.753 692.398 631.668ZM754.153 580.917C751.579 568.078 741.792 554.971 727.621 554.333C712.469 553.652 701.002 566.002 695.903 579.185C693.504 585.387 691.276 592.857 692.523 599.571C693.592 605.32 698.001 612.22 704.908 610.999C716.416 608.966 726.898 591.081 716.159 582.856C715.944 582.843 715.753 582.801 715.608 582.713C709.909 579.213 705.33 574.57 701.833 568.877C701.373 568.13 704.99 566.735 705.673 567.849C708.566 572.559 712.298 576.504 716.747 579.674C717.137 579.642 717.5 579.686 717.768 579.844C732.473 588.566 720.626 607.293 708.894 612.351C706.549 613.362 704.055 613.697 701.645 613.461C701.149 613.927 700.403 614.247 699.674 614.117C694.109 613.125 688.669 611.573 683.154 610.364C683.784 615.5 685.472 620.463 688.893 624.37C696.074 632.571 707.065 632.927 717.068 630.808C717.632 630.688 718.095 630.747 718.451 630.902C740.218 624.581 759.056 605.371 754.153 580.917ZM546.907 182.315C545.249 178.843 535.997 170.808 542.514 167.761C545.768 166.24 549.804 166.43 552.239 169.264C554.258 171.612 555.526 174.759 557.599 177.088C557.655 177.077 557.71 177.07 557.766 177.065C558.669 176.381 560.246 176.186 560.82 177.108C562.54 179.864 569.075 183.907 567.006 187.886C569.128 187.886 566.547 189.905 565.248 189.984C569.977 189.69 566.196 187.792 568.538 189.058C569.101 189.362 569.667 189.661 570.241 189.944C571.952 190.789 573.678 191.602 575.41 192.402C581.002 194.977 586.625 197.485 592.228 200.035C600.646 203.867 609.121 207.681 617.365 211.913C617.226 211.644 617.199 211.326 617.365 210.979C617.726 210.231 618.02 209.467 618.276 208.687C613.813 206.989 609.535 204.773 604.828 203.807C602.597 203.35 605.821 201.322 607.146 201.595C611.183 202.423 614.925 204.132 618.713 205.702C619.28 204.096 621.96 204.187 623.233 204.657C624.644 205.176 626.545 206.34 627.864 206.406C628.187 206.422 628.537 206.544 628.784 206.741C629.315 206.906 629.666 207.292 629.546 207.948C629.408 208.695 629.233 209.436 629.034 210.173C636.205 211.224 642.978 213.819 649.812 216.124C651.989 216.858 648.754 218.717 647.48 218.287C641.149 216.152 634.867 213.782 628.279 212.606C627.764 214.06 627.152 215.479 626.488 216.858C626.782 217.027 627.081 217.188 627.373 217.358C627.715 217.557 627.792 217.789 627.71 218.021C629.02 217.899 630.37 218.597 629.352 219.914C627.254 222.628 626.733 226.248 624.97 229.2C625.774 230.095 622.627 231.381 621.66 230.818C609.899 223.989 597.272 218.656 584.781 213.331C580.33 211.435 575.857 209.577 571.43 207.62C572.574 212.139 573.137 218.073 573.476 219.658C576.168 232.202 578.838 244.794 582.683 257.047C582.882 257.682 581.984 258.27 581.003 258.526C580.83 258.974 580.285 259.369 579.911 259.524C579.083 259.867 578.245 260.172 577.401 260.442C578.335 263.456 578.589 266.643 579.751 269.588C580.402 271.233 576.586 272.326 575.911 270.616C574.733 267.634 574.489 264.405 573.525 261.358C571.908 261.604 570.263 261.68 568.589 261.515C567.273 261.385 567.234 260.717 567.727 260.11C563.705 247.227 561.074 233.895 558.365 220.689C557.162 214.823 556.007 208.946 554.737 203.094C554.504 202.019 553.268 197.128 553.241 196.002C552.784 195.954 552.455 195.791 552.431 195.481C552.284 195.425 552.146 195.356 552.031 195.253C548.898 192.427 546.509 189.039 544.077 185.615C543.662 185.031 544.032 184.298 544.575 183.945C545.377 183.425 546.198 182.941 547.019 182.461C546.977 182.423 546.935 182.373 546.907 182.315ZM618.883 212.689C620.394 213.477 621.893 214.283 623.384 215.104C624.301 213.057 625.069 210.926 625.524 208.736C624.618 208.535 623.747 208.14 622.904 207.782C622.753 207.718 622.601 207.657 622.45 207.591C622.085 208.924 621.664 210.237 621.059 211.489C620.675 212.287 619.751 212.697 618.883 212.689ZM564.55 190.444C562.222 192.164 559.27 193.201 556.621 194.426C557.519 195.646 557.709 198.143 557.942 199.173C559.248 204.951 560.39 210.767 561.577 216.569C564.491 230.82 567.243 245.231 571.585 259.133C573.911 259.113 576.119 258.556 578.317 257.648C578.425 257.603 578.549 257.561 578.677 257.52C575.251 246.491 572.758 235.184 570.33 223.902C569.328 219.244 568.372 214.575 567.298 209.933C567.159 209.33 566.503 206.87 566.214 205.387C565.5 204.995 564.951 204.56 564.943 204.132C564.934 203.655 565.256 203.354 565.634 203.127C566.296 202.409 567.568 201.998 568.507 202.215C569.178 202.37 569.758 203.091 570.263 204.15C572.286 205.139 575.731 206.357 576.285 206.596C581.125 208.673 585.982 210.71 590.821 212.792C601.38 217.338 612.01 221.923 622.074 227.516C623.516 224.819 624.084 221.717 625.861 219.178C625.251 219.337 624.646 219.369 624.308 219.173C611.655 211.807 598.138 205.901 584.815 199.877C579.419 197.438 573.984 195.064 568.654 192.481C567.908 192.119 565.711 191.393 564.55 190.444ZM548.281 184.912C550.129 187.528 552.011 190.138 554.303 192.378C557.044 191.05 560.099 190.109 562.479 188.231C565.229 186.062 560.258 182.13 558.063 179.752C554.753 181.387 551.433 182.99 548.281 184.912ZM547.091 176.082C548.167 177.554 549.452 179.006 550.366 180.612C551.631 179.948 552.906 179.302 554.186 178.668C552.776 177.112 551.778 175.143 550.659 173.404C550.211 172.706 544.762 165.898 544.093 169.298C543.633 171.627 545.828 174.352 547.091 176.082ZM391.33 514.635C390.255 514.988 389.005 514.939 389.005 514.276C389.005 512.759 389.005 511.242 389.005 509.725C389.005 508.252 392.844 507.532 392.844 508.696C392.844 510.095 392.844 511.492 392.844 512.89C392.851 512.89 392.859 512.889 392.866 512.889C427.258 512.883 461.651 512.57 496.042 512.209C513.609 512.024 531.177 511.826 548.742 511.498C554.376 511.392 560.011 511.286 565.643 511.106C567.446 511.049 569.251 510.992 571.052 510.892C571.191 510.884 571.313 510.875 571.432 510.866C557.659 500.129 548.207 485.118 536.075 472.69C535.651 472.912 535.166 473.041 534.709 472.984C514.829 470.511 494.865 469.746 474.876 469.673C474.854 475.855 474.759 482.037 474.749 488.22C474.749 488.425 474.651 488.611 474.5 488.78C475.985 488.641 477.484 488.719 478.964 489.151C479.77 489.387 478.818 489.927 478.475 490.083C477.761 490.408 476.593 490.824 475.795 490.591C472.997 489.773 470.961 490.647 468.603 492.168C467.853 492.653 466.774 492.909 465.887 492.896C465.141 492.884 465.087 492.507 465.681 492.123C467.328 491.06 469.152 490.138 471.051 489.512C470.964 489.443 470.909 489.356 470.909 489.246C470.919 482.72 471.029 476.197 471.043 469.672C446.636 469.688 422.196 470.633 397.823 470.696C395.098 477.612 394.79 485.214 392.965 492.396C394.597 492.537 396.191 492.832 397.628 493.472C399.164 494.156 395.637 495.751 394.556 495.268C391.69 493.993 387.986 494.378 384.918 494.384C384.355 494.384 383.36 494.071 383.899 493.338C384.437 492.608 385.584 492.314 386.44 492.311C387.38 492.31 388.362 492.286 389.36 492.279C391.072 485.105 391.424 477.558 394.284 470.717C374.075 470.797 353.876 471.604 333.676 472.346C333.684 472.394 333.688 472.443 333.675 472.5C330.017 487.569 323.45 501.723 320.024 516.865C320.011 516.92 319.984 516.975 319.953 517.028C320.955 517.028 321.958 517.028 322.96 517.028C325.534 517.028 322.561 518.837 321.367 518.837C317.196 518.837 313.025 518.837 308.854 518.837C306.28 518.837 309.252 517.028 310.447 517.028C312.408 517.028 314.37 517.028 316.332 517.028C319.784 502.057 326.246 488.03 329.87 473.111C329.929 472.863 330.185 472.642 330.531 472.46C305.202 473.378 279.872 474.103 254.53 473.051C250.429 489.382 240.692 503.245 233.865 518.506C237.36 518.575 240.802 518.824 244.246 519.642C246.337 520.139 242.895 521.777 241.84 521.526C237.832 520.575 233.854 520.414 229.751 520.413C227.789 520.413 228.971 519.3 230.212 518.763C237.424 502.766 247.779 488.282 251.378 470.83C251.6 469.749 255.42 469.1 255.187 470.232C255.175 470.288 255.159 470.342 255.149 470.398C303.902 472.496 352.758 468.436 401.521 468.055C446.333 467.705 491.47 464.802 536.086 470.354C536.447 470.399 536.706 470.489 536.896 470.606C537.765 470.268 538.857 470.234 539.431 470.818C552.126 483.772 561.791 499.669 576.693 510.368C578.489 511.659 575.133 513.6 573.736 512.598C573.584 512.488 573.439 512.37 573.288 512.26C571.794 512.733 569.729 512.629 568.584 512.68C563.814 512.895 559.037 512.999 554.264 513.101C536.848 513.473 519.429 513.681 502.011 513.872C465.115 514.28 428.221 514.627 391.33 514.635ZM571.179 511.571C571.296 511.42 571.528 511.278 571.82 511.158C571.777 511.126 571.735 511.094 571.692 511.061C571.521 511.192 571.345 511.356 571.179 511.571ZM216.107 538.657C220.567 538.66 224.967 538.754 229.333 539.763C230.445 540.02 233.846 538.301 231.722 537.809C227.084 536.738 222.384 536.644 217.646 536.641C216.316 536.641 213.518 538.656 216.107 538.657ZM375.777 537.817C374.499 537.817 373.222 537.817 371.944 537.817C371.929 536.445 369.126 536.799 368.315 537.817C367.011 537.817 365.706 537.817 364.402 537.817C363.123 537.817 360.259 539.756 362.843 539.756C364.559 539.756 366.274 539.756 367.989 539.756C366.826 555.872 364.84 571.85 361.734 587.714C320.798 587.673 279.858 587.147 238.931 586.438C226.971 586.231 214.927 586.316 202.982 585.554C203.02 585.478 203.059 585.411 203.087 585.305C203.415 584.056 203.876 582.837 204.305 581.621C205.798 577.394 207.489 573.235 209.193 569.091C213.268 559.175 217.55 549.107 223.22 539.98C224.188 538.423 220.316 538.777 219.636 539.87C214.417 548.272 210.463 557.477 206.602 566.562C204.011 572.655 199.732 580.106 199.031 586.8C198.982 587.264 199.336 587.57 199.783 587.631C206.287 588.517 213.121 588.182 219.664 588.325C234.355 588.647 249.049 588.87 263.741 589.079C297.166 589.555 330.595 589.947 364.023 589.957C365.492 589.957 368.101 587.729 365.504 587.727C365.492 587.727 365.478 587.727 365.465 587.727C365.505 587.649 365.537 587.57 365.553 587.486C368.653 571.698 370.641 555.794 371.813 539.756C372.616 539.756 373.419 539.756 374.222 539.756C375.497 539.755 378.362 537.817 375.777 537.817ZM300.279 583.416C300.05 584.79 303.906 584.101 304.109 582.888C306.392 569.193 308.749 555.521 312.049 542.027C312.296 542.027 312.542 542.027 312.789 542.027C314.06 542.027 316.933 540.098 314.35 540.098C310.179 540.098 306.008 540.098 301.837 540.098C300.566 540.098 297.692 542.027 300.275 542.027C303.023 542.027 305.771 542.027 308.52 542.027C308.38 542.161 308.281 542.306 308.243 542.464C304.93 555.986 302.568 569.688 300.279 583.416ZM568.729 528.7C567.717 529.015 567.021 528.715 566.739 528.214C566.145 528.2 565.552 528.188 564.958 528.199C562.536 528.238 560.116 528.327 557.697 528.434C550.423 528.76 543.153 529.182 535.883 529.607C520.149 530.527 504.411 531.594 488.657 532.126C468.78 532.796 448.872 532.681 428.988 532.469C420.893 532.383 412.8 532.26 404.706 532.159C402.352 532.13 399.998 532.091 397.644 532.095C396.614 532.097 396.108 532.204 395.938 532.253C396.097 532.185 396.525 531.952 397.005 531.346C396.998 531.32 396.99 531.293 396.984 531.267C396.534 531.716 395.82 532.081 395.145 532.158C395.145 533.562 395.145 534.967 395.145 536.372C395.145 538.147 391.25 538.701 391.25 536.647C391.25 534.372 391.25 532.097 391.25 529.824C391.25 528.092 394.947 527.53 395.13 529.41C397.652 528.556 402.231 529.366 403.958 529.389C413.033 529.501 422.107 529.645 431.182 529.732C453.568 529.945 475.981 530.059 498.346 528.975C517.099 528.066 535.829 526.745 554.582 525.839C559.262 525.614 564.572 524.772 569.243 525.53C572.115 525.998 570.722 528.078 568.729 528.7ZM568.039 526.123C566.795 526.51 566.555 526.884 566.691 527.206C566.869 526.768 567.304 526.352 568.039 526.123ZM575.992 520.071C575.992 519.284 572.151 519.888 572.152 521.1C572.154 524.416 572.183 527.786 574.546 530.367C575.264 531.152 578.868 529.788 578.151 529.006C575.924 526.576 575.995 523.17 575.992 520.071ZM368.837 604.085C369.55 604.893 365.93 606.237 365.232 605.446C364.842 605.004 364.539 604.534 364.268 604.051C363.441 604.062 362.968 603.553 362.948 602.955C362.91 602.95 362.885 602.947 362.842 602.941C362.21 602.845 361.579 602.756 360.943 602.69C358.748 602.46 356.548 602.295 354.345 602.168C348.191 601.815 342.029 601.609 335.867 601.468C319.792 601.101 303.699 601.031 287.623 601.378C269.18 601.774 250.812 601.892 232.374 601.068C225.061 600.74 217.753 600.344 210.449 599.879C208.299 599.741 206.152 599.599 204.002 599.464C202.937 601.173 201.603 602.706 200.285 604.221C199.116 605.565 195.453 604.884 197.056 603.037C198.089 601.85 199.243 600.621 200.129 599.276C200.025 599.264 199.926 599.247 199.832 599.216C199.804 599.208 199.776 599.199 199.748 599.19C198.722 598.864 198.736 597.736 199.497 597.146C199.212 596.837 199.025 596.424 198.997 595.806C198.921 594.125 202.452 593.534 202.85 595.277C202.974 595.319 203.099 595.363 203.226 595.404C203.77 595.575 204.353 595.899 204.645 596.414C206.383 596.575 208.118 596.903 209.327 596.98C218.124 597.546 226.925 598.058 235.732 598.413C257.986 599.309 280.139 598.553 302.391 598.438C319.754 598.347 337.182 598.368 354.522 599.362C356.977 599.503 360.211 599.335 363.038 599.777C362.926 598.597 362.92 597.386 362.919 596.185C362.918 594.972 366.759 594.369 366.759 595.156C366.768 598.223 366.681 601.639 368.837 604.085ZM363.415 601.899C363.408 601.874 363.403 601.849 363.396 601.823C363.253 601.951 363.187 602.071 363.179 602.185C363.244 602.087 363.322 601.992 363.415 601.899Z" fill="#0984E3"/>
</svg>
