<svg width="449" height="449" viewBox="0 0 449 449" fill="none" xmlns="http://www.w3.org/2000/svg">
<path d="M310.735 270.172C309.648 278.901 305.075 295.464 293.665 295.001C285.232 294.658 278.095 285.693 273.327 279.7C268.091 273.116 263.85 265.86 258.944 259.048C258.849 258.917 258.671 258.865 258.456 258.862C258.52 258.653 258.587 258.444 258.648 258.234C260.617 251.496 259.738 245.1 256.43 238.933C256.111 238.339 254.027 239.115 254.245 239.519C257.749 246.051 258.29 252.414 256.219 259.503C254.414 265.679 251.437 271.512 250.877 278.013C250.279 284.948 251.68 291.176 255.177 297.166C255.383 297.52 255.593 297.865 255.801 298.214C250.893 293.822 247.54 287.975 244.4 282.125C243.75 280.915 243.062 279.736 242.35 278.573C242.484 278.482 242.558 278.401 242.523 278.352C237.24 270.974 240.928 259.912 243.655 252.225C245.113 248.114 246.575 244.217 246.927 239.828C247.318 234.968 246.107 230.031 245.107 225.276C248.304 225.972 251.691 225.83 255.021 224.836C255.222 224.777 255.371 224.689 255.497 224.593C255.502 224.591 255.506 224.591 255.511 224.59C256.657 224.303 257.744 223.839 258.711 223.215C266.436 227.027 271.641 236.061 275.735 243.072C280.562 251.339 284.344 260.237 289.516 268.297C289.814 268.761 291.409 268.328 291.592 267.769C291.875 267.637 292.093 267.455 292.13 267.244C293.193 261.116 294.93 255.086 296.631 249.111C297.477 246.14 298.363 243.18 299.301 240.237C299.628 239.213 299.969 238.194 300.328 237.181C300.449 236.84 300.579 236.502 300.713 236.165C300.728 236.124 300.735 236.09 300.744 236.054C304.322 235.18 307.803 234.655 311.067 236.643C311.113 247.832 312.123 259.02 310.735 270.172ZM237.801 271.822C237.197 265.985 239.155 259.429 240.883 254.389C242.571 249.467 244.767 244.695 244.782 239.379C244.797 234.395 243.658 229.548 242.677 224.688C242.67 224.652 242.677 224.615 242.691 224.579C241.104 224.001 239.586 223.199 238.169 222.178C238.634 223.652 239.174 225.097 239.687 226.471C239.919 226.58 240.083 226.773 240.099 227.073C240.414 233.019 234.761 233.09 230.565 231.187C227.508 229.799 224.39 227.456 222.165 224.563C222.157 228.512 219.682 231.362 216.51 233.358C216.371 233.541 216.288 233.641 216.288 233.641C216.288 233.641 216.269 233.593 216.244 233.526C215.778 233.809 215.3 234.073 214.813 234.321C217.7 242.724 221.862 250.697 227.174 257.864C230.669 262.579 234.373 267.102 237.801 271.822ZM301.021 293.702C300.56 293.997 300.084 294.269 299.591 294.51C300.082 294.308 300.558 294.036 301.021 293.702ZM258.511 302.693C250.934 298.194 246.429 290.654 242.392 283.066C237.47 273.816 230.312 266.35 224.437 257.763C219.583 250.67 215.671 243.119 212.87 235.209C212.672 235.29 212.474 235.374 212.276 235.449C211.51 235.743 210.732 235.994 209.947 236.224C209.455 236.494 208.893 236.804 208.243 237.16C203.77 239.622 192.935 239.691 187.41 237.022C182.449 239.348 179.035 245.62 176.769 250.133C174.217 255.215 172.008 260.638 170.949 266.251C170.909 266.458 170.725 266.634 170.479 266.767C171.538 268.643 172.608 270.518 173.712 272.374C173.959 272.789 171.896 273.582 171.527 272.96C164.731 261.534 159.171 249.502 150.398 239.4C148.779 239.437 147.011 240.322 145.645 240.995C144.325 241.647 142.866 242.363 141.744 243.382C141.758 243.406 141.774 243.429 141.781 243.458C143.781 250.613 145.801 257.778 148.443 264.729C151.275 272.18 154.611 280.501 160.514 286.101C163.94 289.352 169.195 292.042 173.912 289.703C178.05 287.652 180.586 283.519 182.963 279.734C188.185 271.418 196.912 264.825 199.414 255.024C198.981 254.569 198.521 254.134 198.006 253.741C197.374 253.258 199.396 252.384 200.032 252.871C205.716 257.213 206.527 265.684 206.595 272.293C206.689 281.509 204.941 290.393 203.397 299.433C202.364 305.483 200.714 309.337 196.081 313.133C195.626 313.759 195.227 314.301 194.927 314.705C194.959 314.721 194.99 314.737 195.014 314.759C196.647 316.214 198.393 317.506 200.226 318.654C202.092 319.646 204.167 320.733 206.085 321.699C212.087 324.256 218.727 325.521 225.496 325.684C227.714 325.649 230.21 325.56 233.065 325.417C244.478 324.357 255.7 320.385 264.277 314.371C262.88 310.112 260.763 306.397 258.517 302.692C258.513 302.693 258.512 302.693 258.511 302.693Z" fill="#FBC02D"/>
<path d="M244.775 190.488C245.109 190.942 244.588 191.339 244.239 191.54C243.268 192.097 242.436 192.854 241.464 193.412C240.617 193.899 238.762 193.255 240.042 192.519C240.874 192.042 241.629 191.458 242.421 190.923C240.926 188.822 239.646 186.594 238.655 184.208C238.295 183.342 240.46 182.705 240.84 183.622C241.862 186.078 243.201 188.348 244.775 190.488ZM234.793 183.223C234.965 182.833 232.887 183.029 232.636 183.598C232.339 184.27 231.834 185.243 231.034 185.416C230.231 185.59 229.318 185.268 228.575 184.991C228.077 184.804 226.108 185.603 226.785 185.855C229.67 186.933 233.448 186.273 234.793 183.223ZM232.327 179.166C233.39 179.347 234.554 177.848 233.09 177.599C230.281 177.12 227.774 178.139 225.762 180.08C225.387 180.441 225.593 180.967 226.041 181.121C226.591 181.311 227.186 181.094 227.586 180.707C228.934 179.408 230.467 178.85 232.327 179.166ZM235.029 196.766C233.104 197.123 231.583 196.543 230.785 194.683C230.376 193.734 228.212 194.367 228.599 195.269C229.858 198.201 232.496 198.756 235.418 198.215C235.84 198.137 236.451 197.697 236.316 197.197C236.169 196.653 235.45 196.689 235.029 196.766ZM359.283 173.294C359.426 173.392 359.518 173.539 359.518 173.747C359.518 187.324 359.518 200.9 359.518 214.477C359.518 215.315 357.32 215.732 357.32 214.701C357.32 214.658 357.32 214.616 357.32 214.573C336.425 214.573 315.53 214.573 294.636 214.573C294.476 215.345 292.453 215.691 292.453 214.701C292.453 214.658 292.453 214.616 292.453 214.573C292.33 214.573 292.207 214.573 292.085 214.573C290.955 214.573 291.741 213.99 292.453 213.726C292.453 200.474 292.453 187.222 292.453 173.971C292.453 173.926 292.462 173.884 292.474 173.843C292.344 173.843 292.215 173.843 292.085 173.843C290.626 173.843 292.362 172.867 293.007 172.867C314.965 172.867 336.922 172.867 358.879 172.867C359.548 172.867 359.543 173.072 359.283 173.294ZM357.32 213.598C357.32 200.388 357.32 187.18 357.32 173.971C357.32 173.926 357.329 173.884 357.341 173.843C336.445 173.843 315.548 173.843 294.651 173.843C294.651 187.094 294.651 200.346 294.651 213.598C315.541 213.598 336.43 213.598 357.32 213.598ZM338.254 189.122C341.08 195.853 339.025 204.096 332.249 207.642C326.687 210.553 319.9 210.115 315.51 205.235C310.59 199.765 308.139 191.208 313.441 185.178C316.975 181.158 323.81 179.04 328.815 181.201C329.205 181.37 328.983 181.649 328.574 181.876C328.736 181.971 328.82 182.125 328.758 182.354C327.693 186.31 327.004 190.378 326.439 194.438C329.67 192.79 332.823 190.993 336.106 189.442C336.417 188.937 338.005 188.53 338.254 189.122ZM336.304 190.316C332.931 191.977 329.664 193.838 326.284 195.486C326.152 196.164 324.799 196.507 324.284 196.137C323.687 196.144 323.231 196.005 324.035 195.628C324.056 195.618 324.078 195.606 324.099 195.596C324.688 191.222 325.406 186.825 326.554 182.561C326.599 182.395 326.717 182.25 326.877 182.13C321.045 179.773 313.43 184.456 312.732 190.71C312.153 195.894 314.279 201.664 318.261 205.116C323.215 209.409 330.409 209.567 334.564 203.946C337.625 199.807 338.082 195.018 336.304 190.316ZM343.191 182.751C343.283 182.984 342.943 183.241 342.504 183.409C342.409 183.521 342.254 183.636 342.016 183.748C338.176 185.55 334.518 187.703 330.706 189.559C330.559 189.675 330.361 189.769 330.149 189.836C330.026 189.893 329.908 189.958 329.786 190.016C328.825 190.467 327.611 189.768 328.82 189.135C329.403 184.841 330.114 180.527 331.24 176.341C331.339 175.973 331.917 175.709 332.457 175.629C334.305 174.862 336.144 175.915 337.681 176.99C339.737 178.429 342.238 180.334 343.191 182.751ZM333.384 176.251C333.424 176.232 333.459 176.218 333.506 176.194C333.47 176.212 333.43 176.229 333.385 176.244C333.385 176.246 333.384 176.248 333.384 176.251ZM340.834 182.97C340.084 181.415 338.608 180.108 337.308 179.051C336.469 178.368 335.6 177.701 334.658 177.161C334.238 176.922 333.802 176.674 333.34 176.519C333.332 176.516 333.327 176.516 333.32 176.513C332.334 180.274 331.672 184.131 331.134 187.984C334.379 186.336 337.545 184.534 340.834 182.97ZM105.575 200.562C105.575 200.575 105.58 200.583 105.58 200.596C105.58 205.683 105.58 210.77 105.58 215.858C105.58 216.499 104.168 216.905 103.611 216.526C101.533 216.526 99.4554 216.526 97.3774 216.526C97.1224 216.526 97.0221 216.433 97.047 216.316C97.0425 216.301 97.0342 216.288 97.0342 216.271C97.0342 211.204 97.0342 206.137 97.0342 201.072C96.9716 200.971 96.9663 200.842 97.0704 200.688C97.3668 200.247 98.0162 200.087 98.5125 200.087C100.433 200.087 102.353 200.087 104.274 200.087C104.759 199.961 105.296 200.005 105.497 200.309C105.56 200.379 105.592 200.462 105.575 200.562ZM99.22 215.66C100.609 215.66 101.997 215.66 103.386 215.66C103.386 210.889 103.386 206.117 103.386 201.345C101.997 201.345 100.609 201.345 99.22 201.345C99.22 206.117 99.22 210.889 99.22 215.66ZM117.89 216.526C115.772 216.526 113.653 216.526 111.534 216.526C111.254 216.526 111.156 216.416 111.214 216.282C111.2 216.258 111.191 216.233 111.191 216.204C111.191 208.111 111.191 200.02 111.191 191.928C111.128 191.827 111.123 191.698 111.227 191.544C111.524 191.103 112.173 190.943 112.669 190.943C114.59 190.943 116.51 190.943 118.431 190.943C118.915 190.817 119.452 190.861 119.654 191.165C119.716 191.235 119.749 191.318 119.732 191.418C119.733 191.431 119.737 191.439 119.737 191.452C119.737 199.565 119.737 207.678 119.737 215.79C119.738 216.388 118.509 216.782 117.89 216.526ZM113.369 215.66C114.761 215.66 116.152 215.66 117.543 215.66C117.543 207.841 117.543 200.021 117.543 192.201C116.155 192.201 114.766 192.201 113.378 192.201C113.378 200.007 113.378 207.811 113.378 215.617C113.377 215.632 113.371 215.645 113.369 215.66ZM127.175 184.449C127.111 184.347 127.106 184.219 127.211 184.065C127.507 183.624 128.157 183.463 128.653 183.463C130.573 183.463 132.494 183.463 134.415 183.463C134.899 183.338 135.436 183.382 135.638 183.686C135.7 183.755 135.733 183.839 135.716 183.939C135.717 183.951 135.721 183.96 135.721 183.972C135.721 194.56 135.721 205.148 135.721 215.735C135.721 216.287 134.673 216.665 134.025 216.518C133.987 216.52 133.948 216.526 133.911 216.526C131.78 216.526 129.649 216.526 127.518 216.526C127.21 216.526 127.108 216.395 127.208 216.243C127.188 216.216 127.175 216.185 127.175 216.149C127.175 205.583 127.175 195.016 127.175 184.449ZM133.526 184.721C132.138 184.721 130.749 184.721 129.361 184.721C129.361 195.002 129.361 205.282 129.361 215.563C129.361 215.597 129.351 215.628 129.343 215.66C130.738 215.66 132.132 215.66 133.526 215.66C133.526 205.347 133.526 195.035 133.526 184.721ZM141.788 175.721C141.724 175.619 141.719 175.491 141.824 175.336C142.12 174.896 142.77 174.735 143.266 174.735C145.187 174.735 147.107 174.735 149.028 174.735C149.512 174.61 150.049 174.654 150.251 174.957C150.313 175.027 150.346 175.111 150.329 175.21C150.329 175.223 150.334 175.231 150.334 175.244C150.334 188.72 150.334 202.195 150.334 215.671C150.334 215.744 150.31 215.813 150.276 215.879C150.252 215.927 150.222 215.971 150.184 216.015C150.149 216.048 150.122 216.08 150.07 216.113C150.067 216.114 150.065 216.114 150.063 216.116C149.8 216.329 149.388 216.472 149.003 216.484C148.842 216.509 148.68 216.527 148.524 216.527C146.393 216.527 144.262 216.527 142.13 216.527C141.799 216.527 141.709 216.377 141.851 216.209C141.813 216.175 141.787 216.135 141.787 216.085C141.788 202.63 141.788 189.175 141.788 175.721ZM148.14 175.993C146.751 175.993 145.362 175.993 143.974 175.993C143.974 189.162 143.974 202.33 143.974 215.498C143.974 215.554 143.957 215.608 143.934 215.66C145.336 215.66 146.738 215.66 148.14 215.66C148.14 202.438 148.14 189.215 148.14 175.993ZM200.129 101.624C195.418 86.132 208.08 70.7412 223.933 71.3076C223.945 71.3076 223.952 71.3099 223.964 71.3107C224.102 71.2563 224.255 71.2201 224.422 71.2141C232.501 70.9245 240.312 74.4982 244.699 81.4714C248.673 87.7869 250.182 96.0054 247.017 103.009C245.089 107.276 242.041 110.189 238.446 113.067C234.461 116.257 232.178 119.682 231.897 124.851C231.751 127.553 231.949 130.563 229.971 132.67C228.234 134.522 225.163 134.487 222.737 134.257C220.564 134.299 218.378 133.907 217.064 132.04C215.368 129.632 216.167 125.839 215.709 123.092C214.828 117.798 211.447 115.111 207.555 111.883C204.246 109.136 201.402 105.813 200.129 101.624ZM230.309 120.925C226.066 120.925 221.823 120.925 217.58 120.925C217.591 120.971 217.608 121.012 217.618 121.058C218.163 123.581 217.973 126.135 218.363 128.667C218.373 128.734 218.389 128.791 218.4 128.856C220.768 128.856 223.136 128.856 225.503 128.856C226.964 128.856 225.238 129.843 224.585 129.843C222.605 129.843 220.623 129.843 218.642 129.843C219.231 131.66 220.434 132.522 222.053 132.831C222.249 132.756 222.456 132.716 222.649 132.738C223.264 132.808 223.991 132.903 224.734 132.938C225.051 132.917 225.373 132.89 225.707 132.852C225.98 132.821 226.177 132.837 226.314 132.884C227.464 132.725 228.476 132.247 228.94 131.074C229.434 129.824 229.529 128.477 229.593 127.147C229.621 126.546 229.646 125.938 229.68 125.328C229.503 125.429 229.287 125.494 229.038 125.494C226.304 125.494 223.569 125.494 220.834 125.494C219.348 125.494 219.833 123.977 221.051 123.977C223.785 123.977 226.52 123.977 229.255 123.977C229.467 123.977 229.634 124.01 229.77 124.063C229.864 122.998 230.023 121.945 230.309 120.925ZM203.662 104.197C206.976 110.084 214.592 113.047 217.072 119.315C221.641 119.315 226.211 119.315 230.781 119.315C230.823 119.315 230.858 119.321 230.897 119.324C234.003 112.505 242.082 110.023 244.953 102.853C250.619 88.7048 239.586 72.083 224.179 72.6336C223.846 72.6457 223.62 72.5816 223.475 72.4783C223.336 72.5197 223.201 72.5446 223.08 72.5401C207.506 71.9827 195.85 90.322 203.662 104.197ZM180.55 93.1437C183.626 93.1437 186.702 93.1437 189.779 93.1437C190.715 93.1437 192.059 91.7219 190.581 91.7219C187.504 91.7219 184.428 91.7219 181.351 91.7219C180.415 91.7219 179.071 93.1437 180.55 93.1437ZM191.76 105.393C189.232 107.147 186.706 108.901 184.178 110.655C182.964 111.498 184.858 111.724 185.523 111.263C188.051 109.509 190.578 107.755 193.104 106C194.319 105.157 192.425 104.931 191.76 105.393ZM192.595 79.0004C193.116 79.4673 195.143 78.6399 194.635 78.1843C192.345 76.1304 190.054 74.0781 187.765 72.0234C187.244 71.5565 185.216 72.384 185.725 72.8396C188.015 74.8934 190.305 76.9473 192.595 79.0004ZM257.464 93.1655C260.541 93.1655 263.618 93.1655 266.694 93.1655C267.658 93.1655 268.962 91.7015 267.484 91.7015C264.407 91.7015 261.331 91.7015 258.255 91.7015C257.29 91.7008 255.986 93.1655 257.464 93.1655ZM254.576 106.067C257.103 107.821 259.63 109.575 262.158 111.329C262.66 111.678 264.518 110.797 264.217 110.588C261.69 108.835 259.163 107.08 256.636 105.326C256.134 104.977 254.276 105.858 254.576 106.067ZM253.775 79.2629C254.315 79.4168 254.914 79.2131 255.32 78.8488C257.61 76.7942 259.901 74.7418 262.191 72.6879C262.562 72.3546 262.385 71.8877 261.943 71.761C261.402 71.6071 260.803 71.8107 260.397 72.175C258.107 74.2297 255.816 76.282 253.526 78.3359C253.155 78.67 253.333 79.1362 253.775 79.2629ZM369.233 376.79C369.215 377.019 368.911 377.223 368.537 377.356C368.38 377.687 368.016 377.966 367.497 377.966C366.996 377.966 366.496 377.966 365.996 377.966C274.229 377.966 182.462 377.966 90.6961 377.966C90.0693 377.966 89.7751 377.66 89.7389 377.306C89.6755 377.249 89.6137 377.186 89.5549 377.103C89.3399 376.805 89.7366 376.483 90.2405 376.292C90.3031 376.183 90.3981 376.012 90.5399 375.736C90.7594 375.311 90.9699 374.882 91.1675 374.446C91.7898 373.069 92.366 371.671 92.9181 370.264C94.3022 366.737 95.6003 363.177 96.8592 359.604C98.1339 355.985 99.3822 352.357 100.574 348.71C100.796 348.032 101.843 344.242 102.251 343.916C102.081 343.876 101.994 343.798 102.061 343.676C102.096 343.612 102.133 343.549 102.174 343.489C102.232 343.075 103.022 342.474 103.626 342.474C118.687 342.474 133.747 342.474 148.807 342.474C148.809 342.474 148.809 342.475 148.811 342.475C152.404 338.588 157.099 335.313 160.589 332.898C160.14 332.39 159.904 331.721 160.028 330.83C160.365 328.427 162.985 326.279 165.017 325.302C168.167 323.788 171.704 323.166 175.304 323.083C175.445 322.976 175.632 322.881 175.906 322.826C183.162 321.385 190.154 316.431 195.646 311.634C200.243 307.619 200.732 302.26 201.741 296.511C203.184 288.293 204.731 280.08 204.378 271.687C204.175 266.851 203.648 261.157 200.921 256.945C199.174 261.769 195.996 265.779 192.639 269.697C189.025 273.915 186.133 278.371 182.969 282.904C178.469 289.352 171.148 294.451 163.142 290.339C155.483 286.407 151.172 277.337 148.02 269.758C144.6 261.533 142.101 252.998 139.703 244.434C139.183 244.347 138.833 244.023 139.26 243.485C133.366 240.315 127.295 239.924 120.912 238.32C118.317 237.669 113.51 236.129 112.944 232.986C112.755 231.934 112.783 231.16 112.973 230.599C102.027 230.599 91.0807 230.599 80.1341 230.599C79.5699 230.599 79.8987 230.355 80.3905 230.129C80.3091 230.048 80.257 229.944 80.257 229.804C80.257 207.608 80.257 185.412 80.257 163.217C80.2163 163.217 80.1748 163.217 80.1341 163.217C79.6136 163.217 79.8535 163.01 80.2796 162.799C80.4742 162.225 81.9511 161.879 82.3471 162.369C110.301 162.369 138.254 162.369 166.208 162.369C166.851 162.035 167.928 162.001 167.928 162.661C167.928 184.955 167.928 207.248 167.928 229.541C167.928 229.636 167.892 229.726 167.828 229.81C167.981 230.002 166.483 230.599 166.12 230.599C157.736 230.599 149.352 230.599 140.968 230.599C147.28 231.015 152.455 232.703 151.359 237.685C151.537 237.694 151.685 237.736 151.767 237.828C151.793 237.857 151.818 237.888 151.844 237.918C152.431 238.008 152.565 238.307 152.448 238.618C159.269 246.473 164.169 255.485 169.196 264.484C170.64 258.281 173.304 252.102 176.558 246.715C178.911 242.822 181.924 238.445 186.101 236.273C185.929 236.155 185.765 236.032 185.613 235.905C184.004 234.565 183.542 233.128 183.589 231.664C183.313 230.539 183.149 229.299 183.444 228.243C184.357 224.968 184.154 222.682 181.541 220.321C178.671 217.727 173.647 214.107 174.626 209.536C175.203 206.844 177.16 204.818 179.217 203.039C181.555 200.622 184.301 198.357 186.176 196.738C187.754 194.841 188.841 192.674 188.574 190.167C188.248 188.975 187.708 187.716 187.099 186.407C186.462 185.443 185.748 184.525 185.21 183.434C184.683 182.364 184.482 181.253 184.488 180.127C182.188 172.417 185.009 166.903 188.88 160.981C194.666 152.133 208.426 151.433 212.255 151.415C217.632 146.304 224.901 146.255 231.994 149.658C232.275 149.792 232.411 149.965 232.451 150.146C235.213 150.94 237.739 152.463 239.987 154.438C240.132 154.524 240.273 154.607 240.422 154.694C243.541 156.537 246.26 161.179 248.084 165.462C248.785 166.909 249.391 168.367 249.889 169.794C249.944 169.951 249.907 170.1 249.811 170.234C250.193 171.535 250.426 172.613 250.478 173.3C250.544 174.153 250.229 174.553 249.733 174.69C253.864 179.331 253.695 186.272 252.829 192.271C252.796 192.496 252.571 192.689 252.278 192.824C252.452 195.131 252.137 197.407 250.834 199.331C249.898 200.71 248.893 201.943 247.663 202.985C249.115 203.132 258.284 204.326 261.289 211.264C263.416 216.173 262.446 219.794 260.13 222.078C267.69 225.597 272.87 233.962 276.918 240.791C281.689 248.84 285.47 257.493 290.327 265.486C291.648 258.698 293.635 251.991 295.615 245.385C296.48 242.498 297.297 239.554 298.408 236.747C298.485 236.555 298.562 236.375 298.644 236.202C298.545 236.139 298.464 236.055 298.412 235.946C296.681 232.283 299.003 228.381 302.269 226.411C295.775 226.411 289.28 226.411 282.785 226.411C281.775 226.411 282.274 225.927 282.9 225.628C282.879 223.969 282.666 222.322 282.65 220.665C282.647 220.355 283.078 220.114 283.558 219.981C283.816 219.665 284.513 219.302 284.936 219.302C285.47 219.302 286.002 219.302 286.535 219.302C285.733 217.103 286.386 213.047 286.387 211.077C286.388 205.359 286.483 199.642 286.576 193.925C286.673 187.88 286.796 181.834 286.815 175.788C286.822 173.282 287.484 171.992 289.819 170.859C296.384 167.674 304.677 167.576 311.814 167.391C315.83 167.286 319.855 167.284 323.869 167.477C324.564 167.511 326.305 167.357 327.487 167.566C327.597 167.562 327.712 167.558 327.81 167.553C331.192 167.361 334.584 167.296 337.973 167.329C345.494 167.404 354.545 167.155 361.576 170.26C364.897 171.726 364.938 173.323 364.965 176.754C365.01 182.61 365.118 188.463 365.211 194.318C365.304 200.194 365.42 206.073 365.38 211.949C365.368 213.649 365.885 216.967 365.199 218.857C365.816 218.691 366.547 218.659 366.548 218.821C366.563 221.128 366.776 223.474 366.027 225.697C365.877 226.144 364.324 226.367 363.956 226.214C363.698 226.33 363.428 226.411 363.241 226.411C355.128 226.411 347.015 226.411 338.902 226.411C333.654 235.784 319.377 227.583 312.89 234.863C312.751 235.019 312.318 235.159 311.886 235.237C312.215 235.381 312.54 235.552 312.861 235.736C313.089 235.748 313.246 235.805 313.246 235.916C313.246 235.932 313.246 235.948 313.246 235.963C313.282 235.986 313.319 236.004 313.355 236.027C313.439 236.082 313.386 236.179 313.249 236.288C313.321 248.744 314.784 261.49 312.24 273.799C310.819 280.675 307.423 289.613 301.017 293.702C300.555 293.997 300.08 294.268 299.587 294.51C298.249 295.165 296.793 295.618 295.212 295.814C286.164 296.93 278.79 289.501 273.453 283.138C267.616 276.179 262.96 268.439 257.747 261.043C255.796 266.778 253.27 272.424 252.961 278.534C252.648 284.742 253.919 290.343 256.844 295.667C256.969 295.896 257.093 296.123 257.225 296.35C257.413 296.677 257.606 297.002 257.808 297.326C261.136 302.685 264.492 307.771 266.469 313.822C266.642 313.836 266.795 313.878 266.904 313.965C271.265 317.404 276.953 319.423 282.015 321.592C282.023 321.595 282.026 321.599 282.032 321.602C282.906 321.339 283.782 321.082 284.665 320.844C287.925 319.965 292.124 318.889 295.4 320.308C297.533 321.232 300.104 323.55 299.126 326.185C298.822 327.007 298.334 327.737 297.733 328.4C302.739 331.288 309.847 335.621 311.293 341.669C311.567 341.488 311.892 341.356 312.171 341.356C327.004 341.356 341.837 341.356 356.67 341.356C357.385 341.356 357.426 341.676 357.179 342.006C357.197 342.08 357.173 342.156 357.11 342.233C357.444 342.249 357.397 342.872 357.687 343.712C358.136 345.015 358.595 346.313 359.057 347.612C360.484 351.626 361.927 355.633 363.364 359.643C364.777 363.585 366.194 367.527 367.569 371.483C368.079 372.943 369.361 375.198 369.233 376.79ZM296.392 329.62C293.237 332.02 288.397 333.246 285.299 334.156C279.06 335.988 271.835 336.593 265.886 339.286C265.865 339.348 265.834 339.406 265.795 339.462C266.029 339.615 265.982 339.873 265.297 340.151C254.637 344.468 244.008 348.986 233.182 352.919C242.167 353.698 249.717 358.922 258.535 360.38C268.33 361.998 279.16 364.046 289.044 362.124C296.775 360.619 307.906 355.374 309.128 346.439C310.247 338.262 302.642 333.251 296.392 329.62ZM275.756 324.406C270.958 325.625 265.336 326.163 261.529 329.606C261.404 329.719 261.109 329.82 260.781 329.891C263.849 331.58 264.972 334.896 265.798 338.483C274.936 334.805 285.968 335.401 294.267 329.667C295.822 328.593 297.658 326.865 297.005 324.744C295.533 319.968 289.655 320.245 285.755 321.297C282.384 322.205 279.139 323.545 275.756 324.406ZM310.735 270.172C312.122 259.02 311.112 247.832 311.066 236.644C307.802 234.656 304.32 235.18 300.743 236.055C300.733 236.092 300.727 236.126 300.711 236.165C300.578 236.502 300.448 236.841 300.326 237.182C299.967 238.195 299.626 239.214 299.3 240.238C298.362 243.18 297.475 246.14 296.629 249.112C294.928 255.086 293.191 261.117 292.128 267.244C292.091 267.456 291.874 267.638 291.591 267.769C291.407 268.329 289.812 268.762 289.515 268.298C284.341 260.237 280.561 251.34 275.734 243.073C271.639 236.061 266.435 227.028 258.709 223.216C257.742 223.839 256.655 224.304 255.509 224.591C255.505 224.592 255.5 224.592 255.496 224.594C255.37 224.69 255.221 224.778 255.019 224.837C251.69 225.831 248.302 225.972 245.106 225.277C246.105 230.032 247.316 234.968 246.926 239.829C246.574 244.217 245.111 248.114 243.653 252.225C240.927 259.912 237.239 270.974 242.522 278.353C242.556 278.401 242.482 278.483 242.348 278.574C243.059 279.737 243.749 280.916 244.398 282.126C247.538 287.976 250.891 293.822 255.8 298.215C255.592 297.866 255.381 297.521 255.175 297.167C251.679 291.177 250.278 284.95 250.875 278.014C251.436 271.513 254.413 265.679 256.218 259.504C258.29 252.415 257.747 246.052 254.243 239.52C254.026 239.115 256.11 238.339 256.428 238.934C259.736 245.101 260.616 251.497 258.646 258.235C258.585 258.444 258.519 258.654 258.455 258.863C258.67 258.866 258.849 258.918 258.942 259.048C263.849 265.861 268.089 273.117 273.326 279.701C278.094 285.694 285.231 294.659 293.663 295.001C305.075 295.465 309.648 278.902 310.735 270.172ZM211.865 205.838C211.339 206.096 210.778 206.278 210.182 206.373C210.126 215.345 211.542 224.272 214.289 232.785C214.404 232.72 214.524 232.665 214.638 232.598C214.985 232.393 215.336 232.172 215.685 231.934C214.94 229.702 213.664 225.437 212.769 220.065C211.491 212.399 211.671 207.794 211.865 205.838ZM207.372 180.027C213.778 186.075 214.363 197.462 209.684 204.75C217.104 203.787 217.501 182.007 207.415 180.038C207.398 180.035 207.387 180.03 207.372 180.027ZM204.984 180.618C204.562 180.781 204.046 180.774 203.729 180.547C198.18 185.027 200.719 201.367 206.98 204.258C207.211 204.366 207.435 204.449 207.656 204.522C212.097 197.457 211.536 186.174 204.984 180.618ZM207.11 179.415C206.968 179.414 206.827 179.414 206.69 179.423C206.788 179.503 206.88 179.59 206.975 179.673C206.987 179.592 207.034 179.503 207.11 179.415ZM214.813 234.321C217.7 242.724 221.862 250.697 227.174 257.864C230.668 262.579 234.373 267.102 237.801 271.822C237.197 265.985 239.155 259.429 240.883 254.389C242.571 249.467 244.767 244.695 244.782 239.379C244.797 234.395 243.658 229.548 242.677 224.688C242.67 224.652 242.677 224.615 242.691 224.579C241.104 224.001 239.586 223.199 238.169 222.178C238.634 223.652 239.174 225.097 239.687 226.471C239.919 226.58 240.083 226.773 240.099 227.073C240.414 233.019 234.761 233.09 230.565 231.187C227.508 229.799 224.39 227.456 222.165 224.563C222.157 228.512 219.682 231.362 216.51 233.358C216.371 233.541 216.288 233.641 216.288 233.641C216.288 233.641 216.269 233.593 216.244 233.526C215.778 233.809 215.3 234.073 214.813 234.321ZM326.407 168.44C326.386 168.441 326.365 168.442 326.345 168.444C326.343 168.46 326.344 168.477 326.346 168.492C326.364 168.475 326.385 168.458 326.407 168.44ZM288.997 219.301C313.675 219.301 338.353 219.301 363.03 219.301C363.78 217.322 363.198 213.617 363.201 211.818C363.21 206.831 363.138 201.843 363.06 196.856C362.976 191.466 362.874 186.076 362.814 180.686C362.786 178.094 363.86 173.657 361.293 171.949C355.752 168.262 347.025 168.475 340.656 168.282C337.068 168.173 333.475 168.155 329.888 168.272C329.373 168.288 328.86 168.31 328.346 168.331C328.004 168.619 327.33 168.735 326.987 168.789C326.312 168.896 326.142 168.786 326.236 168.617C326.172 168.619 326.077 168.612 325.926 168.594C325.698 168.566 325.468 168.548 325.238 168.527C325.066 168.543 324.894 168.555 324.723 168.575C324.323 168.73 323.891 168.847 323.685 168.815C323.531 168.791 323.318 168.773 323.246 168.612C323.243 168.527 323.278 168.459 323.351 168.408C323.351 168.408 323.353 168.407 323.354 168.406C322.734 168.371 322.115 168.327 321.495 168.305C318.028 168.18 314.556 168.15 311.088 168.24C306.905 168.349 302.684 168.545 298.541 169.171C295.864 169.576 291.947 169.897 289.905 171.919C288.754 173.059 289.011 174.444 289.001 175.964C288.987 178.236 288.962 180.508 288.93 182.78C288.853 188.241 288.752 193.702 288.676 199.163C288.61 203.875 288.53 208.59 288.592 213.303C288.613 214.841 288.141 217.898 288.997 219.301ZM304.604 225.395C305.041 225.274 305.48 225.189 305.919 225.146C306.398 225.1 306.661 225.214 306.763 225.395C317.196 225.395 327.631 225.395 338.065 225.395C338.642 225.257 339.308 225.25 339.382 225.395C347.617 225.395 355.85 225.395 364.085 225.395C364.478 223.776 364.424 222.094 364.385 220.427C364.344 220.431 364.304 220.437 364.267 220.437C337.796 220.437 311.324 220.437 284.853 220.437C284.893 221.996 285.077 223.546 285.093 225.106C285.093 225.211 285.04 225.307 284.957 225.395C291.505 225.395 298.055 225.395 304.604 225.395ZM300.439 234.938C300.456 234.938 300.47 234.935 300.487 234.935C300.717 234.936 300.989 234.987 301.115 235.197C304.447 234.404 307.869 233.837 311.048 234.91C313.729 232.007 317.663 230.999 321.513 230.815C326.933 230.555 334.028 231.957 336.957 226.411C326.687 226.411 316.419 226.411 306.149 226.411C306.005 226.479 305.845 226.53 305.67 226.547C301.908 226.914 299.151 231.426 300.439 234.938ZM246.752 181.356C245.296 182.681 243.24 182.787 241.406 181.474C240.462 180.799 242.444 179.836 243.119 180.32C243.463 180.565 244.253 181.216 244.73 181.071C245.226 180.921 245.539 180.234 245.757 179.819C245.812 179.716 245.905 179.626 246.019 179.548C245.235 177.615 244.477 175.718 243.894 173.906C243.708 173.949 243.52 173.977 243.348 173.981C241.881 174.022 240.892 175.363 240.842 176.739C240.815 177.474 238.621 177.923 238.655 177.01C238.743 174.637 240.963 173.239 243.128 172.846C241.199 172.401 238.382 171.599 235.9 170.284C234.895 169.752 233.963 169.022 233.12 168.222C231.282 167.35 229.751 166.132 228.487 164.612C228.559 168.598 227.949 172.845 225.042 175.596C224.56 176.052 224.038 176.435 223.496 176.778C222.031 178.176 220.369 178.473 218.986 178.379C218.635 178.426 218.28 178.457 217.924 178.475C223.459 186.062 224.852 194.738 223.034 204.001C222.304 207.725 221.126 211.427 220.696 215.203C220.741 215.424 220.788 215.663 220.838 215.911C221.068 216.021 221.231 216.214 221.244 216.514C221.442 221.216 225.198 225.422 228.897 227.965C231.717 229.903 237.854 233.2 237.897 227.739C237.786 227.671 237.697 227.58 237.649 227.453C236.004 223.033 233.259 216.736 235.198 212.004C237.238 207.024 241.423 205.821 245.428 202.831C252.722 197.381 249.907 189.193 246.752 181.356ZM246.239 174.166C247.455 178.03 249.265 181.723 250.57 185.559C250.756 186.107 250.945 186.68 251.126 187.271C251.254 182.332 250.249 177.425 246.239 174.166ZM210.047 157.817C207.057 164.16 205.872 171.268 205.686 178.257C206.429 178.088 207.23 178.017 208.092 178.055C209.34 168.202 212.718 153.423 223.488 150.231C224.627 149.894 225.739 149.69 226.828 149.597C223.66 148.588 220.26 148.254 217.229 149.815C213.938 151.511 211.606 154.512 210.047 157.817ZM113.549 229.75C114.434 229.054 116.012 229.291 117.676 229.75C133.698 229.75 149.72 229.75 165.742 229.75C165.742 207.573 165.742 185.394 165.742 163.217C137.977 163.217 110.211 163.217 82.4466 163.217C82.4466 185.324 82.4466 207.432 82.4466 229.54C82.4466 229.614 82.4203 229.683 82.381 229.75C92.7703 229.75 103.16 229.75 113.549 229.75ZM120.431 230.598C121.35 230.883 122.186 231.11 122.813 231.135C124.498 231.202 128.371 230.803 132.74 230.598C128.636 230.598 124.533 230.598 120.431 230.598ZM140.581 242.193C141.963 241.076 143.67 240.23 145.209 239.543C146.425 239.002 147.775 238.408 149.152 238.09C151.363 228.892 128.289 232.461 123.538 232.424C122.135 232.413 120.543 232.464 119.204 231.966C118.126 231.566 117.043 230.925 115.92 230.598C115.606 230.598 115.292 230.598 114.978 230.598C114.603 231.227 115.862 233.734 115.801 233.668C116.339 234.315 116.974 234.852 117.706 235.282C121.414 237.372 125.527 237.583 129.619 238.428C133.492 239.227 137.106 240.364 140.581 242.193ZM194.097 314.691C194.421 314.618 194.732 314.608 194.925 314.707C194.957 314.722 194.988 314.739 195.012 314.761C196.645 316.216 198.391 317.507 200.224 318.655C202.09 319.824 204.05 320.836 206.083 321.701C212.085 324.257 218.725 325.523 225.493 325.686C228.009 325.746 230.539 325.654 233.063 325.419C244.476 324.359 255.697 320.386 264.275 314.372C262.878 310.114 260.761 306.398 258.514 302.693L258.511 302.692C250.935 298.193 246.43 290.653 242.393 283.065C237.471 273.815 230.313 266.349 224.437 257.762C219.584 250.669 215.671 243.118 212.871 235.208C212.672 235.289 212.475 235.373 212.276 235.448C211.511 235.742 210.732 235.994 209.948 236.223C209.455 236.494 208.893 236.804 208.244 237.16C203.771 239.621 192.936 239.69 187.411 237.022C182.45 239.348 179.036 245.619 176.77 250.132C174.218 255.214 172.008 260.638 170.949 266.25C170.91 266.457 170.726 266.633 170.48 266.766C171.538 268.643 172.609 270.517 173.713 272.373C173.96 272.788 171.897 273.581 171.528 272.959C164.732 261.534 159.171 249.501 150.399 239.399C148.78 239.436 147.012 240.322 145.646 240.994C144.326 241.647 142.866 242.362 141.745 243.381C141.758 243.406 141.774 243.428 141.782 243.458C143.782 250.613 145.801 257.778 148.443 264.728C151.276 272.179 154.612 280.501 160.515 286.1C163.941 289.351 169.196 292.042 173.913 289.703C178.051 287.651 180.587 283.518 182.963 279.733C188.186 271.417 196.913 264.824 199.415 255.023C198.982 254.568 198.522 254.133 198.007 253.741C197.375 253.257 199.396 252.384 200.033 252.87C205.717 257.212 206.528 265.683 206.596 272.292C206.69 281.508 204.942 290.393 203.398 299.433C202.365 305.483 200.715 309.336 196.082 313.132C195.942 313.247 195.808 313.362 195.662 313.477C195.147 313.884 194.624 314.288 194.097 314.691ZM162.441 331.821C164.286 333.651 168.728 333.176 171.101 333.28C173.893 333.403 176.491 333.634 179.089 334.75C182.382 336.163 184.445 337.372 188.221 337.42C188.708 337.426 188.987 337.607 189.102 337.845C197.364 334.81 205.62 331.797 214.46 330.849C229.163 329.273 243.947 328.914 258.724 328.903C259.279 328.902 259.386 329.054 259.266 329.244C259.482 329.312 259.687 329.391 259.889 329.472C263.14 326.716 267.384 325.649 271.463 324.701C274.208 324.061 276.872 323.211 279.542 322.373C274.675 320.315 269.435 318.301 265.225 315.09C245.256 328.614 211.955 332.48 192.967 315.557C192.965 315.554 192.965 315.552 192.963 315.55C188.775 318.673 184.172 321.595 179.219 323.185C182.126 323.403 184.998 323.894 187.663 324.487C192.791 325.626 200.695 327.19 204.041 331.77C204.716 332.696 202.638 333.557 202.042 332.74C199.169 328.808 192.125 327.256 187.686 326.271C181.486 324.894 174.18 323.743 167.998 325.802C166.686 326.238 160.231 329.629 162.441 331.821ZM146.184 356.019C150.956 366.483 169.008 364.636 178.226 363.952C192.365 362.903 206.41 360.549 219.967 356.355C234.916 351.731 249.318 345.598 263.802 339.722C263.766 339.667 263.736 339.605 263.72 339.532C262.811 335.46 261.792 331.5 257.214 330.453C256.814 330.362 256.695 330.175 256.743 329.966C242.127 329.98 227.292 330.076 212.789 332.003C198.743 333.871 186.133 340.842 172.487 344.265C171.193 344.59 170.947 343.704 172.249 343.378C176.882 342.215 181.394 340.655 185.885 339.023C184.439 338.983 182.971 338.833 181.705 338.221C180.091 337.439 178.608 336.453 176.888 335.887C173.039 334.621 169.059 335.112 165.094 334.561C164.003 334.41 162.615 334.186 161.562 333.631C155.056 338.151 142.284 347.465 146.184 356.019ZM90.2918 376.273C90.7775 376.099 91.341 376.052 91.5582 376.259C91.5605 376.259 91.5635 376.259 91.5657 376.259C91.0574 375.603 90.5339 376.01 90.2918 376.273ZM366.993 376.26C366.698 374.608 365.485 372.342 365.022 371.026C363.677 367.193 362.308 363.369 360.936 359.544C359.519 355.592 358.093 351.641 356.692 347.683C356.148 346.147 355.226 344.375 354.964 342.725C340.471 342.725 325.978 342.725 311.484 342.725C311.618 343.805 311.576 344.936 311.303 346.121C309.437 354.239 301.438 359.237 294.074 361.8C284.847 365.012 274.342 363.965 264.858 362.637C259.147 361.837 253.855 360.764 248.451 358.708C242.713 356.525 236.984 354.094 230.757 353.925C230.636 353.922 230.542 353.909 230.461 353.893C225.348 355.695 220.187 357.354 214.953 358.781C201.411 362.474 187.227 364.725 173.181 365.255C167.117 365.485 160.791 365.537 154.854 364.101C150.362 363.014 144.379 360.496 143.592 355.235C142.979 351.13 144.788 347.292 147.593 343.871C133.144 343.871 118.694 343.871 104.246 343.871C103.972 345.883 102.832 348.145 102.231 349.949C100.675 354.62 99.0684 359.276 97.3743 363.899C95.9956 367.66 94.6967 371.559 92.8593 375.129C92.7401 375.359 92.4588 375.81 92.0982 376.26C92.1865 376.26 92.274 376.26 92.3622 376.26C183.906 376.26 275.449 376.26 366.993 376.26Z" fill="#0984E3"/>
</svg>
