<svg width="40" height="40" viewBox="0 0 40 40" fill="none" xmlns="http://www.w3.org/2000/svg">
<path d="M35 22.5V32.5C35 32.8315 34.8683 33.1495 34.6339 33.3839C34.3995 33.6183 34.0815 33.75 33.75 33.75H6.25C5.91848 33.75 5.60054 33.6183 5.36612 33.3839C5.1317 33.1495 5 32.8315 5 32.5V22.5C5 22.1685 5.1317 21.8505 5.36612 21.6161C5.60054 21.3817 5.91848 21.25 6.25 21.25C6.58152 21.25 6.89946 21.3817 7.13388 21.6161C7.3683 21.8505 7.5 22.1685 7.5 22.5V31.25H32.5V22.5C32.5 22.1685 32.6317 21.8505 32.8661 21.6161C33.1005 21.3817 33.4185 21.25 33.75 21.25C34.0815 21.25 34.3995 21.3817 34.6339 21.6161C34.8683 21.8505 35 22.1685 35 22.5ZM19.1156 23.3844C19.2317 23.5006 19.3696 23.5928 19.5213 23.6557C19.6731 23.7186 19.8357 23.751 20 23.751C20.1643 23.751 20.3269 23.7186 20.4787 23.6557C20.6304 23.5928 20.7683 23.5006 20.8844 23.3844L27.1344 17.1344C27.2505 17.0182 27.3426 16.8804 27.4055 16.7286C27.4683 16.5769 27.5007 16.4142 27.5007 16.25C27.5007 16.0858 27.4683 15.9231 27.4055 15.7714C27.3426 15.6196 27.2505 15.4818 27.1344 15.3656C27.0182 15.2495 26.8804 15.1574 26.7286 15.0945C26.5769 15.0317 26.4142 14.9993 26.25 14.9993C26.0858 14.9993 25.9231 15.0317 25.7714 15.0945C25.6196 15.1574 25.4818 15.2495 25.3656 15.3656L21.25 19.4828V5C21.25 4.66848 21.1183 4.35054 20.8839 4.11612C20.6495 3.8817 20.3315 3.75 20 3.75C19.6685 3.75 19.3505 3.8817 19.1161 4.11612C18.8817 4.35054 18.75 4.66848 18.75 5V19.4828L14.6344 15.3656C14.3998 15.1311 14.0817 14.9993 13.75 14.9993C13.4183 14.9993 13.1002 15.1311 12.8656 15.3656C12.6311 15.6002 12.4993 15.9183 12.4993 16.25C12.4993 16.5817 12.6311 16.8998 12.8656 17.1344L19.1156 23.3844Z" fill="#E59C14"/>
</svg>
