<svg width="731" height="514" viewBox="0 0 731 514" fill="none" xmlns="http://www.w3.org/2000/svg">
<g clip-path="url(#clip0_17_14)">
<path d="M373.261 164.128C376.28 160.29 381.501 161.028 384.921 163.777C385.629 164.347 382.19 165.839 381.314 165.134C380.549 164.519 379.716 163.872 378.787 163.524C377.704 163.117 377.489 163.01 376.763 163.932C376.154 164.706 372.41 165.21 373.261 164.128ZM332.3 122.917C331.12 122.041 329.566 122.002 328.19 122.296C327.491 122.446 326.358 123.145 326.593 124.017C326.825 124.882 327.978 124.862 328.696 124.734C328.68 124.738 328.687 124.739 328.735 124.735C328.762 124.743 328.776 124.747 328.826 124.762C329.05 124.824 329.302 124.986 329.513 125.179C330.173 125.786 330.565 126.597 330.858 127.43C331.43 129.06 335.253 127.979 334.698 126.401C334.213 125.015 333.493 123.803 332.3 122.917ZM419.654 131.871C420.732 128.798 423.545 126.692 426.87 127.406C427.745 127.594 427.879 128.518 427.328 129.112C426.685 129.805 425.694 130.002 424.792 129.858C424.782 129.875 424.714 129.9 424.674 129.908C424.605 129.949 424.543 129.987 424.536 129.992C424.619 129.93 424.576 129.975 424.41 130.127C423.878 130.725 423.56 131.451 423.296 132.201C422.78 133.67 418.946 133.885 419.654 131.871ZM424.612 129.839C424.636 129.845 424.644 129.849 424.654 129.853C424.674 129.85 424.686 129.85 424.702 129.849C424.672 129.843 424.641 129.846 424.612 129.839ZM342.341 98.7648C352.829 93.3 366.145 93.5718 377.656 94.1218C388.612 94.6467 400.029 96.2942 410.311 100.249C411.351 100.65 414.174 99.071 413.94 98.9808C401.555 94.2173 387.898 92.7619 374.718 92.469C362.912 92.2066 350.07 93.2139 339.428 98.7582C337.823 99.596 341.692 99.103 342.341 98.7648ZM587.096 196.988C588.135 197.326 591.613 195.741 590.192 195.278C585.397 193.717 580.517 192.663 575.552 191.819C577.424 188.786 579.13 185.652 581.088 182.672C581.625 181.854 580.625 181.209 579.937 181.137C578.95 181.034 577.973 181.467 577.431 182.292C575.67 184.973 574.119 187.787 572.462 190.533C571.127 187.077 570.229 183.481 570.103 179.739C570.04 177.868 566.181 178.586 566.232 180.106C566.525 188.768 570.475 196.519 574.931 203.766C575.741 205.083 579.44 203.732 578.467 202.149C576.873 199.557 575.321 196.868 573.993 194.08C574.06 194.023 574.108 193.945 574.169 193.883C578.547 194.655 582.856 195.607 587.096 196.988ZM605.024 185.041C605.297 183.857 605.68 182.803 606.346 181.784C607.232 180.431 608.156 180.73 609.463 181.365C612.05 182.625 613.418 185.449 614.026 188.116C614.2 188.881 618.058 187.922 617.866 187.087C616.945 183.039 614.269 179.581 609.92 179.249C606.229 178.965 603.12 181.042 601.753 184.214C598.955 183.029 595.581 183.271 592.888 185.139C592.363 184.529 591.823 183.934 591.262 183.363C590.103 182.182 586.458 183.714 587.735 185.014C590.276 187.604 592.567 190.543 593.551 194.088C594.019 195.773 597.857 194.739 597.391 193.06C596.784 190.873 595.714 188.885 594.402 187.058C594.503 186.971 594.611 186.892 594.7 186.792C597.854 183.173 602.197 188.088 602.981 191.209C603.319 192.557 607.164 191.545 606.821 190.181C606.35 188.309 605.387 186.814 604.144 185.709C604.609 185.529 604.963 185.301 605.024 185.041ZM142.547 167.934C144.455 165.747 146.905 166.51 149.174 167.741C150.151 168.271 153.712 166.8 152.266 166.016C145.219 162.192 137.468 166.576 136.112 174.22C135.551 177.382 136.222 180.901 138.686 183.108C141.771 185.873 146.742 185.043 150.288 183.882C152.506 183.157 152.107 181.485 149.844 182.224C143.851 184.185 139.346 180.884 139.828 174.506C140.01 172.099 140.961 169.751 142.547 167.934ZM181.494 187.673C181.468 188.441 185.293 187.885 185.334 186.645C185.459 182.968 184.267 179.504 180.752 177.911C178.01 176.668 174.697 177.506 171.943 178.809C171.64 178.208 171.206 177.671 170.603 177.237C168.517 175.732 165.535 176.207 163.054 177.039C162.633 176.451 159.642 176.921 159.269 177.905C158.407 180.186 157.766 182.362 157.638 184.811C157.593 185.653 161.41 185.091 161.478 183.783C161.564 182.139 161.948 180.607 162.454 179.086C162.497 179.068 162.545 179.053 162.583 179.035C164.303 178.288 166.131 177.698 167.629 179.173C169.205 180.725 168.754 183.608 168.322 185.502C168.048 186.704 171.88 186.077 172.139 184.935C172.457 183.538 172.675 181.907 172.434 180.424C172.536 180.37 172.642 180.322 172.738 180.263C178.326 176.83 181.663 182.676 181.494 187.673ZM381.624 12.9302C381.624 10.7061 381.624 8.48201 381.624 6.25795C382.083 3.52492 383.276 1.21735 386.008 1.88935C390.563 3.00801 390.356 9.492 389.748 12.9036C389.55 14.0143 393.258 13.2536 393.551 12.282C394.425 9.382 397.333 2.18359 401.569 3.12067C405.759 4.04847 404.744 11.0587 404.252 13.7559C404.055 14.8374 407.868 14.1654 408.055 13.1343C409.006 7.91076 408.822 0.904558 401.915 1.31014C398.461 1.51293 395.632 3.33803 393.504 5.85237C392.734 2.33336 390.53 -0.465941 386.008 0.0509785C384.251 0.251118 382.804 0.793219 381.624 1.57919C381.624 1.38171 381.624 1.18422 381.624 0.985408C381.624 0.192798 377.785 0.797199 377.785 2.01394C377.785 3.9093 377.785 5.80466 377.785 7.70002C377.386 9.6577 377.403 11.8115 377.785 13.9587C377.957 14.9355 381.624 14.0157 381.624 12.9302ZM102.305 73.9661C101.89 73.6267 102.399 73.135 103.167 72.7732C103.016 72.1621 103.44 71.4265 104.619 71.1588C139.829 63.1333 174.301 50.2184 208.506 38.8051C226.492 32.8036 244.453 26.7318 262.408 20.6335C269.716 18.151 277.52 14.3616 285.162 13.0494C287.622 12.6266 286.904 15.0522 285.116 15.6221C272.059 36.9827 258.963 58.3181 245.813 79.6203C237.024 93.858 228.238 108.098 219.297 122.241C216.806 126.18 214.336 130.138 211.727 134C211.208 134.769 210.724 135.508 210.155 136.103C210.381 136.241 210.606 136.378 210.833 136.516C211.714 137.05 208.331 138.612 207.249 137.955C189.859 127.407 172.476 116.849 155.098 106.281C142.939 98.8854 130.779 91.4882 118.639 84.0631C113.325 80.8159 107.146 77.9118 102.305 73.9661ZM209.383 135.422C209.249 135.411 209.128 135.41 209.005 135.408C209.026 135.419 209.046 135.433 209.066 135.445C209.182 135.426 209.292 135.415 209.383 135.422ZM106.845 73.2583C111.783 77.0384 117.827 79.9398 123.076 83.1473C134.933 90.3947 146.804 97.6196 158.677 104.841C175.031 114.787 191.393 124.722 207.758 134.652C207.823 134.561 207.885 134.474 207.955 134.37C208.916 132.946 209.854 131.508 210.785 130.065C213.843 125.326 216.846 120.553 219.841 115.774C228.536 101.898 237.146 87.9679 245.739 74.0284C257.416 55.0867 269.053 36.1225 280.66 17.1384C279.771 17.4379 278.881 17.7361 277.993 18.037C272.033 20.0543 266.078 22.0822 260.12 24.1048C242.216 30.1819 224.304 36.2351 206.366 42.2088C173.583 53.125 140.561 65.429 106.845 73.2583ZM158.607 78.8768C158.336 78.6793 158.568 78.3718 159.02 78.0788C159.019 77.6415 159.463 77.1418 160.503 76.9005C174.827 73.5777 188.845 68.3833 202.774 63.7324C212.917 60.3446 223.136 55.9137 233.53 53.3649C235.515 52.8785 236.163 54.192 234.82 54.9289C229.534 63.5747 224.235 72.2125 218.911 80.8344C215.454 86.4317 212.002 92.0316 208.488 97.5931C207.555 99.07 206.357 101.943 204.82 103.486C205.325 103.991 202.179 105.438 201.179 104.833C187.102 96.2955 171.907 88.5709 158.607 78.8768ZM163.244 78.2114C175.462 86.9632 189.168 94.1576 202.123 101.862C202.404 101.502 202.676 101.156 202.82 100.931C204.052 99.011 205.268 97.0815 206.479 95.149C209.918 89.6551 213.327 84.1427 216.728 78.6249C221.337 71.1482 225.928 63.6635 230.511 56.1722C220.859 58.896 211.332 62.92 201.879 66.0652C189.134 70.3052 176.317 74.9959 163.244 78.2114ZM711.682 485.478C696.004 496.983 671.503 502.711 653.61 492.743C652.372 492.053 651.256 491.306 650.222 490.509C598.226 501.44 544.982 506.563 492.009 509.598C351.12 517.673 208.985 511.574 68.6567 496.417C57.4595 499.009 44.8891 497.484 34.7417 493.336C13.4871 484.653 -3.94224 461.948 4.11106 438.01C7.31329 428.494 13.6727 421.38 21.3774 417.495C21.2965 417.42 21.2303 417.332 21.1971 417.224C20.834 416.02 23.9037 413.279 24.5266 412.554C28.0509 408.447 31.6773 404.427 35.3129 400.42C47.1053 387.425 59.0739 374.59 71.1061 361.817C96.9042 334.434 122.733 306.873 150.135 281.072C150.14 281.067 150.149 281.063 150.156 281.056C149.603 280.725 149.473 280.151 150.424 279.458C159.028 273.175 169.495 272.002 179.123 274.739C188.076 213.822 243.27 167.242 296.589 143.262C296.649 143.05 296.702 142.837 296.761 142.624C296.837 142.359 297.2 142.133 297.669 141.958C297.812 141.231 299.168 140.196 300.213 140.183C313.295 140.012 326.165 137.304 339.171 136.17C339.497 136.142 339.82 136.103 340.146 136.077C340.133 136.032 340.121 135.989 340.108 135.944C339.795 134.911 339.496 133.889 339.204 132.877C336.27 135.205 332.383 136.265 328.601 135.243C324.044 134.012 318.759 130.342 318.493 125.116C318.239 120.123 320.422 116.426 324.489 114.726L324.351 114.7L324.497 113.313C323.337 109.847 324.077 105.057 323.75 101.614C323.663 101.461 323.644 101.29 323.689 101.111C323.663 100.924 323.641 100.733 323.608 100.555C323.512 100.054 323.886 99.617 324.431 99.306C324.701 80.6011 333.868 59.784 351.523 51.96C357.036 49.5172 362.663 48.1043 368.389 47.382C370.755 45.7053 376.531 46.3826 378.584 46.4131C386.517 46.5284 394.834 47.875 402.112 51.1382C422.273 60.1776 428.511 79.8112 428.208 100.525C429.251 99.862 430.294 99.2 431.344 98.5501C435.651 95.8833 440.518 91.8103 445.457 89.9414C445.295 89.5531 445.73 88.958 446.898 88.5988C449.963 87.6537 453.159 86.828 456.402 86.2223C456.687 86.1388 456.987 86.0871 457.278 86.0712C461.822 85.2852 466.442 84.9605 470.925 85.4761C471.186 85.5052 471.817 85.6828 471.621 86.0977C470.383 88.7167 468.563 91.0574 466.598 93.247C467.038 93.7229 466.971 94.4624 465.839 95.0801C465.352 95.3465 464.844 95.5268 464.33 95.6712C463.952 96.0622 463.576 96.4493 463.203 96.8336C461.391 98.6998 457.163 101.512 456.263 104.013C456.098 104.476 455.355 104.826 454.568 105.01C454.388 105.124 454.137 105.241 453.791 105.356C444.39 108.491 436.42 115.508 427.361 119.522C431.356 120.927 433.903 124.601 433.195 129.455C432.621 133.397 430.059 136.537 426.757 138.457C436.272 139.402 445.627 141.332 455.231 141.444C456.678 141.461 456.581 142.23 455.93 142.907C455.956 142.996 455.978 143.084 456.002 143.173C456.716 142.894 457.518 142.768 457.999 142.982C511.413 166.892 566.755 213.714 575.293 274.849C575.308 274.95 575.304 275.047 575.288 275.142C577.898 276.088 580.433 277.412 582.837 279.167C583.433 279.602 583.373 280.098 583.003 280.519C583.044 280.546 583.089 280.568 583.125 280.601C610.817 306.675 636.923 334.53 662.974 362.225C674.875 374.876 686.735 387.571 698.387 400.452C701.907 404.345 705.442 408.232 708.835 412.237C709.41 412.916 712.129 415.347 711.796 416.447C711.783 416.489 711.758 416.528 711.738 416.568C715.232 418.227 718.532 420.71 721.473 424.142C737.588 442.96 730.71 471.515 711.682 485.478ZM562.193 243.491C558.206 245.926 554.284 248.46 550.41 251.064C554.096 257.934 557.299 265.025 559.938 272.295C560.158 272.902 559.78 273.428 559.187 273.771C563.161 273.13 567.201 273.159 571.142 273.976C569.48 263.356 566.426 253.173 562.193 243.491ZM465.902 223.238C465.986 228.112 466.032 233.04 465.994 237.993C473.292 242.408 480.526 247.014 487.453 252.025C492.393 246.37 496.592 240.132 500.99 234.055C491.391 225.018 481.266 215.812 470.272 208.374C468.237 213.206 466.688 218.153 465.902 223.238ZM467.592 206.611C466.829 206.122 466.061 205.647 465.289 205.178C465.397 207.252 465.492 209.325 465.572 211.396C466.192 209.786 466.868 208.192 467.592 206.611ZM488.757 252.981C492.123 255.455 495.419 258.019 498.597 260.723C503.124 264.573 507.794 268.777 511.841 273.453C511.878 273.428 511.907 273.402 511.948 273.378C517.568 270.015 523.024 266.405 528.43 262.719C521.163 253.832 513.15 245.549 504.816 237.663C504.253 237.13 503.686 236.593 503.12 236.059C499.134 241.589 495.196 247.154 490.674 252.273C490.382 252.606 489.554 252.865 488.757 252.981ZM531.437 260.671C536.229 257.372 540.999 254.04 545.806 250.762C538.862 238.159 530.246 226.327 520.382 215.598C518.109 217.795 515.832 220.012 513.708 222.415C510.664 225.863 507.887 229.513 505.179 233.217C507.091 235.045 508.979 236.87 510.842 238.681C518.039 245.671 525.085 252.892 531.437 260.671ZM518.85 213.948C508.313 202.756 496.425 192.808 483.678 184.511C479.25 191.297 474.896 198.278 471.537 205.517C482.829 212.766 493.288 221.949 503.085 231.224C505.325 228.225 507.646 225.289 510.185 222.529C512.948 219.527 515.948 216.77 518.85 213.948ZM481.312 183.009C475.1 179.095 468.7 175.575 462.163 172.488C463.589 182.15 464.511 191.914 465.094 201.654C466.372 202.364 467.635 203.109 468.892 203.871C472.451 196.687 476.891 189.761 481.312 183.009ZM457.901 299.027C457.848 299.191 457.688 299.336 457.469 299.465C477.723 297.617 497.905 295.058 517.853 291.406C514.065 278.803 503.434 268.851 493.51 260.797C484.784 253.712 475.503 247.394 465.959 241.48C465.648 260.944 463.884 280.703 457.901 299.027ZM521.778 290.652C525.934 289.86 530.079 289.024 534.211 288.134C536.076 285.939 538.178 283.935 540.453 282.151C538.426 275.843 534.364 270.123 530.221 264.932C524.789 268.637 519.307 272.267 513.658 275.646C517.25 280.173 520.169 285.14 521.778 290.652ZM543.827 279.756C547.961 277.104 552.521 275.167 557.22 274.145C556.707 274.058 556.273 273.806 556.1 273.325C553.612 266.472 550.615 259.771 547.173 253.264C542.51 256.448 537.879 259.681 533.229 262.883C537.322 268.016 541.515 273.558 543.827 279.756ZM533.371 200.209C530.691 205.189 526.959 209.172 523.026 213.029C533.097 223.849 541.914 235.799 549.04 248.565C552.972 245.927 556.951 243.36 561 240.901C554.155 226.108 544.639 212.486 533.371 200.209ZM494.78 167.186C491.971 171.936 488.769 176.761 485.533 181.682C498.54 190.036 510.689 200.047 521.46 211.348C525.041 207.666 528.293 203.724 530.516 198.876C530.649 198.587 531.009 198.348 531.455 198.169C520.484 186.558 507.988 176.176 494.78 167.186ZM456.707 145.768C456.947 146.666 457.162 147.571 457.39 148.471C459.106 155.245 460.512 162.123 461.628 169.071C462.014 168.998 462.4 169.012 462.726 169.162C469.71 172.37 476.542 176.065 483.165 180.183C486.014 175.841 488.801 171.566 491.278 167.338C491.58 166.823 492.691 166.514 493.639 166.417C481.877 158.504 469.589 151.698 457.355 146.072C457.139 145.973 456.923 145.866 456.707 145.768ZM426.041 141.005C424.9 140.886 423.757 140.768 422.611 140.68C422.091 140.64 421.776 140.51 421.606 140.333C418.434 140.876 415.163 140.383 412.547 138.593C411.999 140.825 411.368 143.149 410.639 145.51C411.156 145.527 411.535 145.678 411.542 145.998C411.677 152.598 413.028 159.249 414.165 165.903C414.694 165.39 415.555 164.943 416.255 164.962C422.897 165.133 429.242 167.352 435.878 167.523C438.483 167.589 436.041 169.967 434.444 169.926C427.802 169.755 421.457 167.536 414.821 167.365C414.665 167.361 414.528 167.348 414.406 167.328C415.574 174.4 416.369 181.474 415.094 188.497C415.13 194.597 415.193 200.697 415.07 206.784C422.665 207.121 430.266 207.338 437.877 207.362C438.237 207.364 438.529 207.425 438.768 207.523C439.546 200.169 439.585 192.704 439.349 185.615C438.864 171.005 437.3 155.425 430.674 142.17C430.653 142.126 430.663 142.077 430.688 142.024C430.747 141.899 430.922 141.755 431.174 141.609C429.466 141.385 427.755 141.185 426.041 141.005ZM437.564 210.282C430.029 210.258 422.503 210.045 414.983 209.714C414.783 216.057 414.324 222.386 413.356 228.688C420.147 228.792 426.935 228.865 433.726 228.882C433.716 228.855 433.714 228.828 433.726 228.796C436.142 222.92 437.61 216.575 438.459 210.099C438.199 210.212 437.902 210.284 437.564 210.282ZM357.127 154.101C354.099 153.554 351.277 152.12 349.203 150.052C354.554 162.615 362.65 173.959 376.398 176.198C380.524 176.87 384.165 176.339 387.387 174.946C387.617 174.443 388.742 173.919 389.684 173.763C396.672 169.589 401.471 161.171 404.764 152.453C402.627 153.694 399.959 154.244 396.799 153.673C391.451 152.707 386.754 148.968 385.689 143.864C385.613 143.839 385.536 143.813 385.468 143.776C385.067 143.558 384.558 143.246 383.982 142.888C384.103 144.26 384.14 145.635 383.915 147.016C383.639 148.712 382.845 150.507 380.971 150.907C378.662 151.4 377.044 150.15 375.484 148.586C374.193 147.291 377.834 145.75 379.009 146.929C379.274 147.196 379.589 147.533 379.932 147.82C380.192 146.525 380.211 145.185 380.162 143.872C380.12 142.727 379.964 141.556 379.822 140.386C376.732 138.68 373.362 137.341 371.578 138.83C371.34 139.027 371.055 139.155 370.756 139.23C372.209 146.769 367.043 155.892 357.127 154.101ZM388.823 142.758C389.428 147.279 392.731 151.482 398.763 151.811C402.276 152.003 404.762 150.474 406.253 148.187C406.872 146.279 407.425 144.391 407.917 142.558C408.055 137.736 405.429 132.657 400.092 131.744C399.614 131.662 399.355 131.486 399.254 131.27C391.977 130.947 388.456 136.437 388.738 141.835C389.04 142.118 389.027 142.446 388.823 142.758ZM388.832 176.217C386.167 177.363 383.241 178.05 380.021 178.149C376.272 178.261 372.871 177.762 369.762 176.789C373.91 184.713 376.268 193.705 377.565 202.868C379.012 197.015 380.987 191.126 383.916 186.003C385.564 183.123 387.516 180.489 389.846 178.241C390.142 177.956 390.435 177.669 390.742 177.397C390.114 176.986 389.476 176.595 388.832 176.217ZM360.42 132.171C359.943 132.089 359.683 131.912 359.583 131.696C345.756 131.084 345.493 151.496 359.091 152.236C370.941 152.883 371.207 134.017 360.42 132.171ZM346.706 153.523C345.725 164.505 343.037 175.613 344.585 186.529C344.827 186.69 344.972 186.931 344.945 187.277C344.934 187.413 344.921 187.55 344.91 187.686C352.27 184.973 358.068 178.684 364.847 174.746C356.72 170.428 350.974 162.463 346.706 153.523ZM343.375 202.238C353.512 202.762 363.64 203.462 373.767 204.184C372.422 194.514 369.906 185.018 365.357 176.761C358.477 181.131 352.598 187.041 344.75 189.584C344.367 193.773 343.822 198.001 343.375 202.238ZM343.085 205.161C342.406 212.577 342.23 219.992 343.935 227.245C365.827 227.607 387.713 228.264 409.605 228.633C410.548 222.287 410.989 215.915 411.169 209.529C400.832 209.022 390.506 208.318 380.18 207.584C379.761 209.673 379.39 211.715 379.053 213.65C379.021 213.834 378.881 214.007 378.681 214.16C378.932 218.251 379.042 222.301 379.066 226.223C379.074 227.493 375.231 228.13 375.227 227.252C375.188 220.772 374.924 213.948 374.142 207.154C363.792 206.416 353.443 205.696 343.085 205.161ZM411.237 206.596C411.334 201.06 411.289 195.514 411.256 189.969C404.289 188.064 398.909 183.198 393.118 179.045C392.983 178.948 392.851 178.847 392.716 178.75C392.677 178.787 392.643 178.83 392.606 178.867C386.188 185.314 382.87 195.286 380.788 204.684C390.934 205.405 401.08 206.094 411.237 206.596ZM411.775 185.029C412.097 180.749 411.759 176.449 411.167 172.144C410.276 165.67 408.806 159.183 408.097 152.741C404.569 161.585 399.466 169.968 392.034 174.551C398.582 178.423 404.179 184.171 411.167 187.132C411.192 187.143 411.216 187.157 411.241 187.168C411.24 186.748 411.236 186.328 411.234 185.906C411.234 185.568 411.451 185.273 411.775 185.029ZM463.053 93.3358C464.027 92.2291 464.975 91.0999 465.833 89.9109C467.801 87.1792 467.892 86.9287 464.14 87.0971C462.299 87.1806 460.469 87.3568 458.649 87.6153C457.648 89.9255 460.558 93.3425 463.053 93.3358ZM447.212 98.5143C448.28 101.279 450.443 102.892 453.129 103.4C454.288 101.804 456.357 100.322 457.536 99.131C458.625 98.0278 459.723 96.9145 460.805 95.7852C459.451 95.5042 458.155 94.8839 457.072 93.9442C455.459 92.5432 454.233 90.4119 454.662 88.3165C452.69 88.7194 450.727 89.1793 448.789 89.7254C449.249 89.7294 449.503 89.8195 449.257 90.0395C446.948 92.1098 446.084 95.593 447.212 98.5143ZM425.642 104.447C423.157 106.033 420.66 107.603 418.119 109.085C417.331 113.171 416.625 117.272 415.917 121.373C415.991 121.317 416.056 121.253 416.135 121.2C418.416 119.651 421.601 118.752 424.36 118.926C424.364 118.926 424.368 118.927 424.373 118.927C432.595 115.586 441.365 108.428 450.354 104.847C447.266 104.365 444.395 102.77 443.373 99.543C442.683 97.3625 442.827 95.1543 443.726 93.2272C442.966 93.6831 442.206 94.1377 441.449 94.599C438.153 96.611 434.867 98.6389 431.588 100.677C430.439 101.392 429.295 102.117 428.152 102.846C428.152 102.858 428.152 102.871 428.151 102.883C428.11 103.914 426.745 104.525 425.642 104.447ZM328.337 99.866C328.782 99.905 329.226 99.94 329.672 99.976C331.432 100.122 333.176 100.298 334.863 100.855C335.134 100.88 335.35 100.953 335.469 101.09C335.651 101.161 335.835 101.219 336.016 101.302C336.684 101.604 336.49 102.256 336.129 102.711C338.429 107.731 343.563 109.351 349.036 109.978C357.361 110.932 365.774 110.903 374.134 111.325C378.001 111.519 392.607 113.028 403.843 111.663C408.263 111.126 412.149 110.141 414.663 108.459C417.304 106.692 418.438 104.163 417.033 100.555C416.704 99.714 420.479 98.5116 420.873 99.527C421.626 101.462 421.708 103.12 421.322 104.57C421.29 104.693 421.277 104.825 421.237 104.944C421.574 104.733 421.909 104.52 422.246 104.308C422.918 103.886 423.593 103.465 424.262 103.038C424.93 84.8107 420.792 64.5529 403.312 55.3942C397.727 52.4676 391.622 50.6651 385.382 49.8261C379.216 49.439 372.957 49.3555 366.855 50.2383C362.634 50.8493 358.486 51.9176 354.498 53.6844C353.497 54.1271 352.534 54.6214 351.592 55.141C336.183 63.6343 328.488 81.9743 328.353 99.369C328.349 99.534 328.337 99.701 328.337 99.866ZM342.32 129.292C343.343 132.981 344.486 136.994 345.841 141.076C345.894 140.51 345.973 139.937 346.116 139.349C347.458 133.814 351.649 130.718 356.688 129.898C356.535 129.733 356.44 129.523 356.444 129.246C356.478 126.764 356.966 124.352 357.724 121.994C358.191 120.543 362.088 120.047 361.588 121.599C360.83 123.957 360.343 126.368 360.308 128.851C360.304 129.169 360.114 129.447 359.83 129.678C360.367 129.687 360.907 129.712 361.45 129.768C362.096 129.834 362.341 130.089 362.341 130.393C366.157 131.311 368.647 133.666 369.937 136.575C372.805 134.802 376.251 135.423 379.589 136.824C379.593 136.647 379.593 136.468 379.604 136.29C379.716 134.639 383.617 134.037 383.487 135.962C383.423 136.904 383.461 137.846 383.542 138.79C384.251 139.186 384.938 139.585 385.598 139.975C385.651 139.626 385.704 139.279 385.79 138.924C386.974 134.042 390.372 131.057 394.615 129.855C394.486 129.698 394.408 129.499 394.411 129.247C394.445 126.766 394.933 124.353 395.69 121.996C396.156 120.544 400.053 120.048 399.553 121.601C398.795 123.958 398.309 126.369 398.274 128.852C398.273 129.003 398.221 129.145 398.146 129.279C399.121 129.223 400.117 129.239 401.123 129.342C401.768 129.409 402.013 129.663 402.013 129.968C405.745 130.864 408.214 133.134 409.527 135.955C409.555 135.825 409.584 135.695 409.612 135.567C409.559 135.484 409.501 135.41 409.449 135.327C408.67 134.058 412.413 132.867 413.026 133.865C413.062 133.924 413.103 133.981 413.14 134.041C413.395 134.105 413.547 134.225 413.505 134.417C413.496 134.46 413.485 134.504 413.477 134.547C415.554 137.5 418.963 139.742 422.706 138.19C425.769 136.92 428.757 134.18 429.259 130.731C429.772 127.21 428.469 121.827 424.277 121.146C418.845 120.262 417.966 123.561 415.147 126.918C415.087 126.988 415.004 127.055 414.909 127.117C414.903 127.151 414.897 127.186 414.89 127.222C414.69 128.332 411 128.527 411.05 128.25C412.096 122.442 413.042 116.616 414.145 110.817C404.393 114.425 387.981 113.732 383.529 113.574C370.979 113.13 357.689 113.511 345.268 111.476C343.533 111.191 341.843 110.829 340.264 110.316C340.105 113.917 340.347 117.482 340.811 121.056C340.995 122.469 338.697 123.35 337.569 122.85C337.122 122.861 336.737 122.767 336.536 122.527C334.756 120.408 333.692 117.313 330.831 116.439C330.235 116.256 329.633 116.127 329.039 116.052C328.143 116.47 326.909 116.651 326.33 116.184C324.727 116.6 323.432 117.702 322.875 119.775C322.444 121.378 322.046 123.18 322.441 124.836C324.147 131.983 333.604 136.823 338.37 129.898C338.333 129.675 338.551 129.444 338.903 129.238C339.858 128.458 342.735 128.173 342.32 129.292ZM323.53 140.378C320.229 147.344 317.85 154.842 316.196 162.506C316.753 162.065 317.577 161.679 318.174 161.679C325.852 161.679 333.531 161.679 341.209 161.679C341.6 161.679 341.86 161.732 342.034 161.815C342.608 157.461 343.118 153.117 343.195 148.794C343.203 148.352 343.612 147.987 344.16 147.727C344.165 147.725 344.169 147.722 344.173 147.719C344.169 147.709 344.165 147.698 344.161 147.688C342.933 144.602 341.843 141.475 340.869 138.4C340.744 138.43 340.614 138.452 340.48 138.461C334.808 138.891 329.168 139.634 323.53 140.378ZM341.904 162.801C341.366 163.318 340.389 163.819 339.706 163.819C332.028 163.819 324.349 163.819 316.671 163.819C316.347 163.819 316.106 163.786 315.935 163.728C314.486 170.783 313.638 177.958 313.246 184.965C312.929 190.617 312.815 196.506 313.231 202.352C313.532 201.819 314.158 201.386 315.02 201.389C323.222 201.414 331.412 201.668 339.596 202.051C340.066 197.68 340.617 193.319 340.983 189.001C339.441 180.329 340.735 171.552 341.904 162.801ZM339.297 204.974C331.107 204.591 322.913 204.336 314.706 204.311C314.057 204.31 313.611 204.126 313.345 203.851C314.054 211.958 315.874 219.922 319.702 227.002C326.419 227.016 333.135 227.089 339.851 227.187C338.32 219.88 338.586 212.423 339.297 204.974ZM290.727 224.267C290.341 250.274 290.709 278.041 298.867 303.009C298.916 303.16 298.787 303.328 298.556 303.493C308.979 303.853 319.406 304.092 329.833 304.195C328.227 295.852 324.762 287.555 324.122 279.052C323.041 278.664 322.966 277.414 324.357 276.892C325.11 276.141 326.974 275.791 327.634 276.193C360.504 269.814 396.079 271.19 429.032 275.79C430.089 275.937 430.333 276.433 430.143 276.951C431.141 276.779 432.103 276.95 431.96 277.671C430.468 285.224 429.879 295.049 425.541 301.6C425.483 301.688 425.393 301.77 425.291 301.848C434.905 301.289 444.521 300.605 454.124 299.766C454.125 299.754 454.119 299.743 454.123 299.73C460.384 280.555 462.128 259.668 462.245 239.204C461.919 239.007 461.595 238.807 461.269 238.609C461.074 238.491 461.56 238.127 462.246 237.798C462.253 234.716 462.228 231.647 462.173 228.596C461.821 228.568 461.591 228.479 461.602 228.32C461.703 226.912 461.862 225.517 462.078 224.132C462.042 222.696 462.002 221.265 461.957 219.841C461.159 194.451 459.031 168.392 452.071 143.857C446.321 143.662 440.651 142.892 434.975 142.114C441.428 155.615 443.051 171.642 443.232 186.402C443.401 200.189 442.827 215.158 437.508 228.091C437.355 228.464 436.699 228.739 435.975 228.902C438.378 228.983 436.085 231.404 434.459 231.402C426.592 231.394 418.728 231.301 410.865 231.178C410.589 231.204 410.324 231.204 410.096 231.167C379.07 230.67 348.054 229.533 317.022 229.5C315.813 229.498 315.682 228.955 316.048 228.374C308.53 214.767 308.269 197.419 309.679 182.338C310.998 168.244 313.724 153.733 319.856 140.86C313.381 141.698 306.897 142.42 300.36 142.601C292.985 168.857 291.128 197.126 290.727 224.267ZM333.783 303.723C333.815 303.897 333.773 304.063 333.678 304.219C351.061 304.34 368.443 304.125 385.797 303.579C397.781 303.201 409.806 302.712 421.838 302.047C421.814 301.918 421.852 301.763 421.977 301.575C424.278 298.098 425 293.186 425.883 289.19C426.678 285.592 427.375 281.976 428.09 278.36C427.939 278.376 427.786 278.38 427.639 278.36C395.272 273.842 360.289 272.328 328.011 278.617C328.781 287.1 332.263 295.387 333.783 303.723ZM260.671 258.734C268.266 250.93 276.523 243.622 285.775 237.937C285.937 237.838 286.292 237.732 286.709 237.643C286.713 235.399 286.734 233.163 286.766 230.935C286.656 230.863 286.558 230.779 286.493 230.665C283.123 224.737 280.306 218.562 277.698 212.293C267.737 220.748 258.927 231.387 251.033 241.407C253.841 247.384 256.979 253.196 260.671 258.734ZM248.349 244.829C248.277 244.92 248.206 245.012 248.134 245.102C240.684 254.636 232.881 264.968 226.939 276.051C230.815 279.566 234.661 283.113 238.485 286.678C243.062 278.501 249.254 271.033 255.376 264.334C256.23 263.4 257.101 262.475 257.971 261.548C254.291 256.207 251.156 250.599 248.349 244.829ZM286.924 223.179C286.937 222.63 286.949 222.077 286.964 221.53C287.111 216.036 287.314 210.505 287.599 204.958C285.306 206.405 283.07 207.997 280.887 209.7C282.754 214.258 284.733 218.765 286.924 223.179ZM287.648 204.029C287.701 203.045 287.771 202.061 287.829 201.076C288.234 194.267 288.773 187.448 289.542 180.658C289.862 177.821 290.215 174.989 290.619 172.167C283.723 175.804 277.207 180.179 271.055 185.082C274.257 192.632 277.108 200.34 280.182 207.952C281.834 206.742 283.519 205.592 285.245 204.526C285.588 204.312 286.791 204.073 287.648 204.029ZM267.87 187.682C257.816 196.148 248.757 205.948 240.576 216.056C243.547 223.754 246.496 231.46 249.885 238.947C258.001 229.05 266.803 218.591 276.932 210.447C273.842 202.886 271.01 195.215 267.87 187.682ZM237.74 219.615C237.177 220.333 236.608 221.05 236.054 221.768C226.485 234.18 217.641 247.423 210.399 261.44C215.192 265.547 219.924 269.726 224.613 273.952C231.021 262.565 239.267 251.942 247.152 242.287C243.693 234.889 240.7 227.262 237.74 219.615ZM208.823 264.57C205.064 272.16 201.783 279.968 199.126 287.995C200.848 290.057 202.4 292.327 203.667 294.726C203.999 295.353 204.322 295.984 204.61 296.628C204.765 296.594 204.9 296.573 205.023 296.562C205.108 296.554 205.19 296.549 205.253 296.557C208.476 296.932 211.701 297.286 214.928 297.633C216.63 290.554 219.444 283.686 222.927 277.06C218.273 272.841 213.575 268.674 208.823 264.57ZM217.653 297.921C222.789 298.459 227.931 298.952 233.076 299.418C234.033 296.068 235.336 292.815 236.906 289.663C236.697 289.636 236.518 289.575 236.399 289.465C232.726 286.029 229.029 282.612 225.309 279.219C222.433 285.018 220.103 291.013 218.639 297.205C218.572 297.486 218.17 297.735 217.653 297.921ZM236.564 299.734C255.942 301.43 275.372 302.633 294.821 303.366C288.317 283.087 286.744 260.9 286.713 239.305C286.713 239.301 286.713 239.297 286.713 239.293C281.662 242.572 276.871 246.35 272.326 250.417C268.615 253.739 265.064 257.25 261.7 260.868C261.603 261.087 261.399 261.29 261.134 261.466C259.925 262.778 258.736 264.1 257.572 265.428C248.855 275.386 239.984 286.702 236.564 299.734ZM261.221 165.524C261.258 165.564 261.299 165.599 261.327 165.647C264.608 171.034 267.369 176.657 269.887 182.39C276.24 177.429 282.97 172.998 290.134 169.333C290.454 169.169 290.778 169.095 291.087 169.079C292.281 161.346 293.819 153.689 295.802 146.173C284.145 151.562 272.452 158.041 261.221 165.524ZM229.83 190.54C233.365 197.754 236.375 205.226 239.292 212.737C247.596 202.799 256.662 193.219 266.705 184.937C264.16 179.026 261.37 173.229 258.061 167.664C248.112 174.517 238.584 182.165 229.83 190.54ZM190.972 245.543C191.04 245.57 191.102 245.601 191.155 245.642C196.755 250.024 202.252 254.537 207.679 259.136C215.152 244.929 224.245 231.496 234.118 219.078C234.877 218.122 235.65 217.17 236.423 216.217C233.442 208.525 230.402 200.857 226.87 193.425C211.605 208.632 198.961 226.126 190.972 245.543ZM182.423 275.851C186.968 277.605 191.245 280.234 194.946 283.617C195.422 284.053 195.896 284.506 196.364 284.973C199.077 277.203 202.358 269.607 206.093 262.212C200.709 257.613 195.244 253.113 189.696 248.722C186.47 257.192 184.12 266.01 182.842 275.161C182.808 275.42 182.651 275.651 182.423 275.851ZM59.1547 493.57C64.9349 492.747 70.2512 490.241 73.6376 484.86C76.0579 481.015 77.4058 476.669 77.936 472.194C72.2791 473.415 66.7096 475.02 61.0076 476.036C60.1912 476.18 59.5841 475.956 59.213 475.598C43.3954 478.24 27.025 451.897 43.4935 442.13C43.9202 441.877 44.5074 441.792 45.0667 441.826C49.2604 438.747 52.733 434.897 55.4833 430.417C55.8319 429.85 57.4794 429.423 58.4337 429.524C53.9087 423.765 48.1152 419.299 41.5053 417.432C18.2109 410.855 2.45295 436.36 7.09724 457C10.9383 474.071 23.7207 486.769 40.1507 492.101C40.8651 491.817 41.6445 491.592 42.013 491.636C47.7229 492.307 53.4395 492.933 59.1547 493.57ZM59.0155 430.286C59.0116 430.294 59.0116 430.299 59.0063 430.307C55.6715 435.741 51.2803 440.122 46.0025 443.596C45.9892 443.604 45.9813 443.612 45.9694 443.62C36.8464 449.031 40.1415 460.227 46.3802 466.662C49.3678 469.744 54.0849 473.626 58.7544 473.082C64.3013 472.436 67.8097 467.528 68.4619 462.275C69.7462 451.931 65.9913 439.562 59.0155 430.286ZM66.6619 472.077C70.4977 471.175 74.3096 470.173 78.1666 469.374C78.3045 466.166 78.0526 462.934 77.4907 459.807C75.6682 449.665 71.1087 439.655 64.3172 431.785C72.5601 444.549 77.6404 463.209 66.6619 472.077ZM77.0784 490.727C84.306 486.7 87.6978 479.91 92.3818 473.52C107.828 452.451 123.749 431.685 140.065 411.282C150.926 397.702 161.589 384.398 170.427 369.348C180.099 352.878 188.65 335.751 198.714 319.512C205.268 308.938 202.596 297.744 195.586 289.365C195.467 289.274 195.369 289.165 195.303 289.032C193.41 286.826 191.215 284.823 188.809 283.087C187.131 281.874 185.351 280.796 183.5 279.866C173.917 275.049 162.428 274.294 153.338 280.642C153.656 280.815 153.697 281.124 153.187 281.605C125.96 307.24 100.285 334.61 74.6635 361.828C62.8752 374.349 51.1332 386.917 39.5768 399.651C35.9677 403.628 32.3559 407.608 28.8488 411.674C28.2961 412.314 25.966 414.904 25.2516 415.848C29.762 414.288 34.5972 413.784 39.4509 414.469C39.879 414.248 40.3774 414.135 40.8585 414.227C64.0734 418.65 80.7949 441.339 81.9706 464.447C82.0462 465.932 82.0475 467.441 81.9799 468.955C83.2244 469.39 83.3795 470.888 81.8102 471.374C81.0759 478.663 78.4238 485.812 72.6078 490.561C70.6037 492.197 68.4486 493.433 66.1954 494.361C66.3372 494.377 66.4803 494.394 66.6222 494.41C70.2764 493.734 73.8099 492.546 77.0784 490.727ZM649.099 489.601C644.988 486.081 642.281 481.724 638.916 477.06C632.772 468.544 626.42 460.174 620.066 451.815C611.073 439.983 602.012 428.201 592.778 416.557C582.765 403.934 572.258 391.807 563.723 378.085C553.617 361.837 545.01 344.741 535.346 328.237C529.213 317.762 522.846 308.682 528.755 296.459C529.941 294.005 531.406 291.679 533.094 289.511C529.319 290.322 525.534 291.088 521.741 291.818C520.959 292.444 518.666 292.969 518.222 292.494C473.836 300.744 428.265 303.717 383.281 305.058C333.635 306.537 283.826 305.51 234.32 301.222C231.842 301.008 229.362 300.796 226.885 300.564C219.686 299.892 212.496 299.153 205.312 298.338C206.884 302.545 207.421 307.029 206.211 311.472C204.233 318.729 199.1 325.051 195.423 331.526C190.88 339.529 186.504 347.623 182.026 355.66C173.131 371.628 163.744 387.113 152.102 401.242C143.069 412.204 134.309 423.392 125.631 434.637C117.17 445.6 108.768 456.611 100.505 467.724C96.6219 472.947 93.2553 478.737 89.2856 483.842C85.0708 489.263 79.4629 492.914 73.2148 495.102C130.334 501.172 187.638 505.573 245.013 508.267C320.306 511.802 395.822 512.754 471.138 509.32C530.674 506.607 590.644 501.73 649.099 489.601ZM657.303 487.861C653.552 483.251 651.639 477.47 651.09 471.538C649.434 471.178 649.88 469.833 650.935 469.154C650.877 467.333 650.935 465.512 651.106 463.72C653.263 440.982 669.278 418.74 692.483 414.318C693.142 414.192 693.656 414.308 694.029 414.532C698.083 413.751 702.213 413.735 706.211 414.651C705.189 413.502 704.044 412.29 703.731 411.93C700.107 407.767 696.408 403.67 692.693 399.588C681.007 386.746 669.161 374.047 657.25 361.413C631.881 334.507 606.484 307.432 579.55 282.073C579.256 281.796 579.393 281.468 579.747 281.173C570.617 274.567 558.704 274.852 548.84 279.639C547.979 280.057 547.134 280.513 546.307 280.998C545.723 281.341 545.144 281.692 544.579 282.067C544.543 282.362 544.024 282.677 543.369 282.916C537.545 287.141 533 293.094 531.109 300.121C528.056 311.471 534.621 319.167 540.023 328.596C546.502 339.904 552.581 351.435 559.071 362.735C571.061 383.608 585.897 401.63 600.683 420.486C612.669 435.769 624.488 451.189 636.077 466.776C640.049 472.118 643.505 478.472 647.786 483.514C649.48 485.508 651.408 487.212 653.495 488.667C654.764 488.398 656.037 488.139 657.303 487.861ZM667.865 433.44C668.895 431.7 670.058 430.043 671.334 428.482C662.456 437.071 656.627 449.116 655.212 461.27C654.913 463.843 654.78 466.542 654.897 469.243C658.311 469.943 661.688 470.805 665.076 471.622C663.275 469.924 661.902 467.722 661.232 465.095C658.564 454.623 662.51 442.492 667.865 433.44ZM664.398 493.668C662.543 492.712 660.799 491.503 659.218 489.972C658.803 489.572 658.409 489.157 658.03 488.732C657.752 488.859 657.458 488.965 657.182 489.026C656.389 489.201 655.594 489.36 654.801 489.532C657.758 491.385 661.004 492.753 664.398 493.668ZM726.153 442.917C723.579 430.078 713.792 416.971 699.621 416.333C684.469 415.652 673.002 428.002 667.903 441.185C665.504 447.386 663.276 454.857 664.523 461.571C665.592 467.32 670.001 474.22 676.908 472.999C688.416 470.966 698.898 453.081 688.159 444.856C687.944 444.843 687.753 444.801 687.608 444.713C681.909 441.213 677.33 436.57 673.833 430.877C673.373 430.129 676.99 428.735 677.673 429.848C680.566 434.559 684.298 438.503 688.747 441.674C689.137 441.642 689.5 441.686 689.768 441.844C704.473 450.566 692.626 469.293 680.894 474.351C678.549 475.362 676.055 475.696 673.645 475.46C673.149 475.927 672.403 476.246 671.674 476.116C666.109 475.125 660.669 473.573 655.154 472.364C655.784 477.5 657.472 482.463 660.893 486.37C668.074 494.57 679.065 494.927 689.068 492.808C689.632 492.688 690.095 492.747 690.451 492.902C712.218 486.581 731.056 467.371 726.153 442.917ZM518.907 44.3149C517.249 40.8423 507.997 32.8076 514.514 29.7604C517.768 28.2402 521.804 28.4297 524.239 31.2635C526.258 33.6121 527.526 36.7587 529.599 39.0874C529.655 39.0768 529.71 39.0702 529.766 39.0649C530.669 38.381 532.246 38.1862 532.82 39.1073C534.54 41.8642 541.075 45.9068 539.006 49.8857C541.128 49.8857 538.547 51.9043 537.248 51.9838C541.977 51.6896 538.196 49.7916 540.538 51.0574C541.101 51.3622 541.667 51.6604 542.241 51.9441C543.952 52.7884 545.678 53.6022 547.41 54.4014C553.002 56.9767 558.625 59.4844 564.228 62.0346C572.646 65.8664 581.121 69.6809 589.365 73.913C589.226 73.644 589.199 73.3259 589.365 72.9786C589.726 72.2311 590.02 71.4663 590.276 70.687C585.813 68.9891 581.535 66.773 576.828 65.8067C574.597 65.3494 577.821 63.3216 579.146 63.5946C583.183 64.423 586.925 66.1315 590.713 67.7021C591.28 66.0957 593.96 66.1871 595.233 66.6563C596.644 67.1759 598.545 68.3396 599.864 68.4059C600.187 68.4218 600.537 68.5437 600.784 68.7412C601.315 68.9056 601.666 69.2913 601.546 69.9474C601.408 70.6949 601.233 71.4358 601.034 72.1728C608.205 73.2238 614.978 75.819 621.812 78.1239C623.989 78.8582 620.754 80.7165 619.48 80.287C613.149 78.1517 606.867 75.7819 600.279 74.6062C599.764 76.0602 599.152 77.4784 598.488 78.8582C598.782 79.0265 599.081 79.1882 599.373 79.3579C599.715 79.5567 599.792 79.7886 599.71 80.0206C601.02 79.8987 602.37 80.5972 601.352 81.9133C599.254 84.6278 598.733 88.2475 596.97 91.1993C597.774 92.0952 594.627 93.3809 593.66 92.8176C581.899 85.989 569.272 80.6555 556.781 75.3312C552.33 73.4346 547.857 71.5763 543.43 69.62C544.574 74.1384 545.137 80.0723 545.476 81.6575C548.168 94.2013 550.838 106.794 554.683 119.046C554.882 119.681 553.984 120.27 553.003 120.526C552.83 120.974 552.285 121.369 551.911 121.524C551.083 121.867 550.245 122.172 549.401 122.442C550.335 125.456 550.589 128.643 551.751 131.588C552.402 133.233 548.586 134.326 547.911 132.616C546.733 129.634 546.489 126.405 545.525 123.358C543.908 123.603 542.263 123.68 540.589 123.514C539.273 123.385 539.234 122.717 539.727 122.11C535.705 109.226 533.074 95.8952 530.365 82.6887C529.162 76.8223 528.007 70.9454 526.737 65.0937C526.504 64.0187 525.268 59.1279 525.241 58.0013C524.784 57.9536 524.455 57.7905 524.431 57.4804C524.284 57.4247 524.146 57.3558 524.031 57.2524C520.898 54.4266 518.509 51.0388 516.077 47.6153C515.662 47.0307 516.032 46.2978 516.575 45.9452C517.377 45.4243 518.198 44.9405 519.019 44.4607C518.977 44.4223 518.935 44.3733 518.907 44.3149ZM590.883 74.6884C592.394 75.477 593.893 76.2829 595.384 77.1033C596.301 75.0569 597.069 72.9256 597.524 70.736C596.618 70.5345 595.747 70.1395 594.904 69.7817C594.753 69.7181 594.601 69.6571 594.45 69.5908C594.085 70.9242 593.664 72.2364 593.059 73.4889C592.675 74.2868 591.751 74.6964 590.883 74.6884ZM536.55 52.4438C534.222 54.1642 531.27 55.2007 528.621 56.4253C529.519 57.6461 529.709 60.1432 529.942 61.173C531.248 66.9506 532.39 72.7665 533.577 78.5693C536.491 92.8202 539.243 107.23 543.585 121.133C545.911 121.113 548.119 120.556 550.317 119.648C550.425 119.603 550.549 119.561 550.677 119.52C547.251 108.491 544.758 97.1835 542.33 85.9015C541.328 81.244 540.372 76.5745 539.298 71.9329C539.159 71.3298 538.503 68.8698 538.214 67.3866C537.5 66.9943 536.951 66.5596 536.943 66.1314C536.934 65.6543 537.256 65.3534 537.634 65.1268C538.296 64.4084 539.568 63.9975 540.507 64.2149C541.178 64.37 541.758 65.091 542.263 66.15C544.286 67.1388 547.731 68.3568 548.285 68.5954C553.125 70.6724 557.982 72.7096 562.821 74.7918C573.38 79.338 584.01 83.9227 594.074 89.516C595.516 86.8187 596.084 83.7172 597.861 81.1777C597.251 81.3367 596.646 81.3686 596.308 81.1724C583.655 73.807 570.138 67.9009 556.815 61.8768C551.419 59.438 545.984 57.0642 540.654 54.481C539.908 54.1191 537.711 53.3928 536.55 52.4438ZM520.281 46.9114C522.129 49.5278 524.011 52.1376 526.303 54.3776C529.044 53.0495 532.099 52.1084 534.479 50.2303C537.229 48.0619 532.258 44.1294 530.063 41.7515C526.753 43.3871 523.433 44.9896 520.281 46.9114ZM519.091 38.0814C520.167 39.554 521.452 41.0053 522.366 42.6118C523.631 41.9477 524.906 41.3022 526.186 40.6674C524.776 39.1113 523.778 37.143 522.659 35.4041C522.211 34.7056 516.762 27.8982 516.093 31.2979C515.633 33.6267 517.828 36.3518 519.091 38.0814ZM363.33 376.635C362.255 376.988 361.005 376.939 361.005 376.276C361.005 374.758 361.005 373.242 361.005 371.724C361.005 370.252 364.844 369.532 364.844 370.696C364.844 372.094 364.844 373.491 364.844 374.89C364.851 374.89 364.859 374.888 364.866 374.888C399.258 374.883 433.651 374.57 468.042 374.208C485.609 374.024 503.177 373.825 520.742 373.498C526.376 373.392 532.011 373.286 537.643 373.106C539.446 373.049 541.251 372.992 543.052 372.892C543.191 372.884 543.313 372.875 543.432 372.866C529.659 362.128 520.207 347.118 508.075 334.689C507.651 334.912 507.166 335.041 506.709 334.984C486.829 332.51 466.865 331.746 446.876 331.673C446.854 337.855 446.759 344.036 446.749 350.219C446.749 350.425 446.651 350.61 446.5 350.78C447.985 350.641 449.484 350.719 450.964 351.151C451.77 351.387 450.818 351.927 450.475 352.083C449.761 352.408 448.593 352.824 447.795 352.591C444.997 351.773 442.961 352.646 440.603 354.168C439.853 354.653 438.774 354.909 437.887 354.896C437.141 354.884 437.087 354.507 437.681 354.123C439.328 353.06 441.152 352.137 443.051 351.512C442.964 351.443 442.909 351.355 442.909 351.245C442.919 344.72 443.029 338.197 443.043 331.671C418.636 331.687 394.196 332.632 369.823 332.696C367.098 339.612 366.79 347.213 364.965 354.396C366.597 354.536 368.191 354.832 369.628 355.472C371.164 356.156 367.637 357.75 366.556 357.268C363.69 355.993 359.986 356.377 356.918 356.384C356.355 356.384 355.36 356.071 355.899 355.338C356.437 354.608 357.584 354.314 358.44 354.311C359.38 354.31 360.362 354.286 361.36 354.279C363.072 347.105 363.424 339.558 366.284 332.717C346.075 332.797 325.876 333.604 305.676 334.346C305.684 334.394 305.688 334.443 305.675 334.5C302.017 349.569 295.45 363.723 292.024 378.865C292.011 378.92 291.984 378.975 291.953 379.028C292.955 379.028 293.958 379.028 294.96 379.028C297.534 379.028 294.561 380.837 293.367 380.837C289.196 380.837 285.025 380.837 280.854 380.837C278.28 380.837 281.252 379.028 282.447 379.028C284.408 379.028 286.37 379.028 288.332 379.028C291.784 364.057 298.246 350.03 301.87 335.111C301.929 334.863 302.185 334.642 302.531 334.46C277.202 335.377 251.872 336.102 226.53 335.051C222.429 351.382 212.692 365.244 205.865 380.505C209.36 380.574 212.802 380.824 216.246 381.641C218.337 382.138 214.895 383.777 213.84 383.526C209.832 382.574 205.854 382.414 201.751 382.413C199.789 382.413 200.971 381.299 202.212 380.763C209.424 364.766 219.779 350.282 223.378 332.83C223.6 331.748 227.42 331.1 227.187 332.232C227.175 332.288 227.159 332.342 227.149 332.398C275.902 334.496 324.758 330.436 373.521 330.054C418.333 329.704 463.47 326.802 508.086 332.354C508.447 332.399 508.706 332.489 508.896 332.606C509.765 332.268 510.857 332.233 511.431 332.818C524.126 345.771 533.791 361.668 548.693 372.367C550.489 373.658 547.133 375.6 545.736 374.598C545.584 374.488 545.439 374.37 545.288 374.26C543.794 374.733 541.729 374.628 540.584 374.68C535.814 374.895 531.037 374.998 526.264 375.1C508.848 375.473 491.429 375.681 474.011 375.872C437.115 376.28 400.221 376.627 363.33 376.635ZM543.179 373.571C543.296 373.42 543.528 373.278 543.82 373.157C543.777 373.125 543.735 373.094 543.692 373.061C543.521 373.192 543.345 373.356 543.179 373.571ZM188.107 400.657C192.567 400.66 196.967 400.754 201.333 401.763C202.445 402.02 205.846 400.301 203.722 399.809C199.084 398.738 194.384 398.644 189.646 398.641C188.316 398.641 185.518 400.656 188.107 400.657ZM347.777 399.817C346.499 399.817 345.222 399.817 343.944 399.817C343.929 398.445 341.126 398.799 340.315 399.817C339.011 399.817 337.706 399.817 336.402 399.817C335.123 399.817 332.259 401.756 334.843 401.756C336.559 401.756 338.274 401.756 339.989 401.756C338.826 417.872 336.84 433.85 333.734 449.714C292.798 449.673 251.858 449.147 210.931 448.438C198.971 448.231 186.927 448.316 174.982 447.553C175.02 447.478 175.059 447.41 175.087 447.304C175.415 446.056 175.876 444.836 176.305 443.621C177.798 439.394 179.489 435.235 181.193 431.09C185.268 421.175 189.55 411.107 195.22 401.98C196.188 400.423 192.316 400.776 191.636 401.87C186.417 410.272 182.463 419.477 178.602 428.561C176.011 434.654 171.732 442.106 171.031 448.799C170.982 449.263 171.336 449.569 171.783 449.63C178.287 450.517 185.121 450.182 191.664 450.325C206.355 450.647 221.049 450.87 235.741 451.079C269.166 451.555 302.595 451.947 336.023 451.957C337.492 451.957 340.101 449.728 337.504 449.727C337.492 449.727 337.478 449.727 337.465 449.727C337.505 449.649 337.537 449.569 337.553 449.486C340.653 433.697 342.641 417.794 343.813 401.756C344.616 401.756 345.419 401.756 346.222 401.756C347.497 401.755 350.362 399.817 347.777 399.817ZM272.279 445.416C272.05 446.79 275.906 446.101 276.109 444.888C278.392 431.192 280.749 417.521 284.049 404.026C284.296 404.026 284.542 404.026 284.789 404.026C286.06 404.026 288.933 402.098 286.35 402.098C282.179 402.098 278.008 402.098 273.837 402.098C272.566 402.098 269.692 404.026 272.275 404.026C275.023 404.026 277.771 404.026 280.52 404.026C280.38 404.16 280.281 404.306 280.243 404.464C276.93 417.986 274.568 431.688 272.279 445.416ZM540.729 390.699C539.717 391.015 539.021 390.715 538.739 390.214C538.145 390.2 537.552 390.188 536.958 390.198C534.536 390.238 532.116 390.327 529.697 390.434C522.423 390.76 515.153 391.182 507.883 391.607C492.149 392.527 476.411 393.594 460.657 394.126C440.78 394.796 420.872 394.681 400.988 394.469C392.893 394.383 384.8 394.259 376.706 394.159C374.352 394.129 371.998 394.091 369.644 394.095C368.614 394.096 368.108 394.204 367.938 394.253C368.097 394.185 368.525 393.952 369.005 393.346C368.998 393.32 368.99 393.293 368.984 393.267C368.534 393.716 367.82 394.08 367.145 394.157C367.145 395.562 367.145 396.967 367.145 398.372C367.145 400.147 363.25 400.701 363.25 398.647C363.25 396.372 363.25 394.096 363.25 391.823C363.25 390.092 366.947 389.53 367.13 391.41C369.652 390.556 374.231 391.366 375.958 391.389C385.033 391.501 394.107 391.644 403.182 391.732C425.568 391.945 447.981 392.059 470.346 390.975C489.099 390.066 507.829 388.744 526.582 387.839C531.262 387.614 536.572 386.772 541.243 387.53C544.115 387.998 542.722 390.078 540.729 390.699ZM540.039 388.123C538.795 388.51 538.555 388.883 538.691 389.206C538.869 388.768 539.304 388.352 540.039 388.123ZM547.992 382.071C547.992 381.283 544.151 381.888 544.152 383.099C544.154 386.416 544.183 389.786 546.546 392.367C547.264 393.151 550.868 391.787 550.151 391.005C547.924 388.576 547.995 385.17 547.992 382.071ZM340.837 466.084C341.55 466.893 337.93 468.237 337.232 467.445C336.842 467.004 336.539 466.534 336.268 466.051C335.441 466.062 334.968 465.553 334.948 464.955C334.91 464.95 334.885 464.947 334.842 464.94C334.21 464.845 333.579 464.756 332.943 464.69C330.748 464.459 328.548 464.295 326.345 464.168C320.191 463.815 314.029 463.608 307.867 463.468C291.792 463.101 275.699 463.03 259.623 463.378C241.18 463.774 222.812 463.892 204.374 463.068C197.061 462.74 189.753 462.344 182.449 461.879C180.299 461.741 178.152 461.599 176.002 461.464C174.937 463.172 173.603 464.706 172.285 466.221C171.116 467.565 167.453 466.884 169.056 465.037C170.089 463.85 171.243 462.621 172.129 461.276C172.025 461.264 171.926 461.246 171.832 461.216C171.804 461.208 171.776 461.199 171.748 461.189C170.722 460.863 170.736 459.735 171.497 459.146C171.212 458.837 171.025 458.423 170.997 457.806C170.921 456.125 174.452 455.534 174.85 457.277C174.974 457.319 175.099 457.363 175.226 457.404C175.77 457.575 176.353 457.898 176.645 458.414C178.383 458.574 180.118 458.903 181.327 458.98C190.124 459.546 198.925 460.058 207.732 460.413C229.986 461.309 252.139 460.553 274.391 460.438C291.754 460.346 309.182 460.368 326.522 461.362C328.977 461.502 332.211 461.335 335.038 461.777C334.926 460.597 334.92 459.386 334.919 458.185C334.918 456.972 338.759 456.369 338.759 457.156C338.768 460.223 338.681 463.639 340.837 466.084ZM335.415 463.899C335.408 463.873 335.403 463.848 335.396 463.823C335.253 463.95 335.187 464.071 335.179 464.185C335.244 464.087 335.322 463.991 335.415 463.899Z" fill="#0984E3"/>
<path d="M328.925 98.82L330.245 99.4283C332.005 99.5742 333.75 99.7504 335.437 100.307C335.707 100.332 335.923 100.405 336.043 100.542C336.224 100.613 336.409 100.672 336.59 100.754C337.258 101.056 337.063 101.708 336.703 102.163C339.002 107.183 344.137 108.803 349.61 109.43C357.935 110.384 366.347 110.355 374.708 110.777C378.574 110.972 393.181 112.48 404.416 111.115C407.752 110.306 412.187 109.125 415.237 107.911C417.877 106.144 419.012 103.615 417.607 100.008C417.278 99.166 421.053 97.9637 421.447 98.979C422.199 100.914 422.282 102.572 421.896 104.022C422.227 103.91 422.537 103.826 422.82 103.76C423.492 103.338 424.166 102.917 424.836 102.49C425.504 84.2628 421.366 64.005 403.886 54.8463C398.301 51.9198 392.196 50.1172 385.956 49.2782C379.79 48.8912 373.531 48.8077 367.429 49.6904C367.174 49.7554 366.934 49.8031 366.677 49.872C360.511 51.5169 355.814 53.0968 352.165 54.5945C336.757 63.0851 329.062 81.4251 328.925 98.82ZM375.293 91.9212C388.473 92.2141 402.131 93.6694 414.515 98.4329C414.749 98.5231 411.926 100.102 410.886 99.7014C400.604 95.7476 389.186 94.0988 378.231 93.5739C366.72 93.0226 353.404 92.7523 342.916 98.2169C342.268 98.555 338.398 99.0466 340.004 98.2104C350.645 92.666 363.487 91.66 375.293 91.9212ZM472.112 204.968C475.471 197.729 479.825 190.747 484.253 183.961C497 192.26 508.888 202.207 519.425 213.399C516.523 216.22 513.523 218.976 510.759 221.98C508.22 224.739 505.899 227.675 503.659 230.675C493.861 221.401 483.402 212.217 472.112 204.968ZM468.167 206.063C467.443 207.644 466.767 209.238 466.148 210.848C466.068 208.777 465.973 206.706 465.866 204.63C466.636 205.099 467.404 205.574 468.167 206.063ZM501.566 233.507C497.168 239.584 492.969 245.823 488.029 251.477C481.103 246.466 473.869 241.86 466.571 237.445C466.608 232.492 466.563 227.564 466.478 222.69C467.264 217.605 468.813 212.657 470.849 207.826C481.842 215.264 491.967 224.47 501.566 233.507ZM486.108 181.133C489.344 176.212 492.546 171.388 495.355 166.637C508.562 175.627 521.059 186.009 532.03 197.618C531.583 197.797 531.224 198.036 531.091 198.325C528.868 203.173 525.616 207.115 522.035 210.797C511.264 199.498 499.115 189.488 486.108 181.133ZM469.468 203.323C468.212 202.56 466.949 201.815 465.671 201.106C465.088 191.366 464.164 181.602 462.739 171.94C469.276 175.028 475.676 178.548 481.889 182.461C477.466 189.213 473.026 196.139 469.468 203.323ZM530.797 264.384C534.94 269.575 539.003 275.295 541.029 281.603C538.755 283.387 536.651 285.391 534.788 287.586C530.655 288.476 526.509 289.312 522.354 290.104C520.745 284.592 517.826 279.625 514.236 275.099C519.882 271.719 525.364 268.089 530.797 264.384ZM549.415 279.091C548.535 279.563 547.691 280.016 546.882 280.45C547.709 279.965 548.554 279.51 549.415 279.091ZM529.005 262.173C523.599 265.858 518.144 269.469 512.523 272.832C512.482 272.856 512.453 272.883 512.416 272.908C508.371 268.231 503.699 264.026 499.172 260.177C495.994 257.473 492.698 254.91 489.332 252.435C490.129 252.32 490.957 252.059 491.248 251.73C495.77 246.61 499.708 241.045 503.693 235.516C504.259 236.052 504.827 236.589 505.39 237.12C513.725 245.004 521.736 253.286 529.005 262.173ZM557.793 273.597C553.096 274.619 548.536 276.556 544.401 279.208C542.088 273.01 537.897 267.468 533.802 262.335C538.451 259.132 543.082 255.9 547.745 252.716C551.187 259.223 554.184 265.924 556.672 272.777C556.847 273.257 557.28 273.51 557.793 273.597ZM462.203 168.523C461.089 161.575 459.681 154.697 457.965 147.923C457.917 146.952 457.914 146.17 457.932 145.524C470.164 151.15 482.452 157.956 494.215 165.869C493.269 165.967 492.157 166.276 491.855 166.79C489.377 171.018 486.59 175.293 483.742 179.635C477.117 175.517 470.285 171.822 463.302 168.614C462.974 168.464 462.588 168.45 462.203 168.523ZM533.946 199.661C545.214 211.937 554.73 225.56 561.576 240.353C557.525 242.812 553.547 245.379 549.617 248.017C542.491 235.251 533.673 223.301 523.603 212.481C527.534 208.625 531.266 204.641 533.946 199.661ZM520.957 215.051C530.821 225.779 539.437 237.611 546.381 250.214C541.574 253.492 536.804 256.824 532.012 260.123C525.66 252.344 518.614 245.123 511.418 238.133C509.556 236.324 507.667 234.497 505.756 232.669C508.463 228.965 511.24 225.313 514.285 221.867C516.407 219.463 518.684 217.247 520.957 215.051ZM550.985 250.516C554.859 247.912 558.779 245.378 562.768 242.943C567.002 252.626 570.056 262.808 571.717 273.429C567.778 272.611 563.736 272.583 559.761 273.225C560.355 272.882 560.733 272.354 560.513 271.748C557.874 264.477 554.671 257.386 550.985 250.516ZM234.798 301.039L227.461 300.016C229.939 300.248 232.419 300.46 234.897 300.674L234.798 301.039ZM287.288 238.746C287.288 238.75 287.288 238.754 287.288 238.758C284.496 240.798 278.885 244.976 272.901 249.869C277.446 245.803 282.237 242.024 287.288 238.746ZM233.651 298.87C228.507 298.404 223.365 297.911 218.229 297.373C218.747 297.187 219.147 296.939 219.215 296.656C220.678 290.463 223.007 284.468 225.884 278.67C229.605 282.063 233.3 285.48 236.974 288.915C237.092 289.025 237.272 289.086 237.482 289.114C235.911 292.267 234.607 295.52 233.651 298.87ZM261.903 165.099C261.875 165.051 261.834 165.016 261.797 164.976C273.027 157.493 284.72 151.013 296.377 145.625C294.393 153.141 292.856 160.798 291.662 168.531C291.353 168.547 291.029 168.622 290.709 168.785C283.545 172.45 276.815 176.881 270.462 181.842C267.944 176.109 265.183 170.487 261.903 165.099ZM225.187 273.405C220.498 269.18 215.766 265.001 210.973 260.893C218.215 246.877 227.059 233.633 236.628 221.222C237.182 220.502 237.751 219.785 238.314 219.068C241.274 226.716 244.268 234.342 247.726 241.742C239.841 251.394 231.597 262.018 225.187 273.405ZM205.828 296.006C205.766 296 205.683 296.005 205.599 296.012C205.261 295.525 204.811 294.905 204.243 294.177C202.976 291.778 201.425 289.509 199.702 287.445C202.358 279.419 205.64 271.61 209.399 264.021C214.15 268.126 218.849 272.292 223.502 276.508C220.021 283.134 217.207 290.002 215.503 297.081C212.276 296.735 209.051 296.381 205.828 296.006ZM287.499 222.631C285.308 218.218 283.329 213.71 281.462 209.154C283.645 207.451 285.881 205.859 288.174 204.411C287.887 209.958 287.685 215.489 287.539 220.983C287.524 221.528 287.512 222.081 287.499 222.631ZM248.924 244.281C251.731 250.051 254.867 255.658 258.547 261C257.676 261.926 256.806 262.852 255.952 263.786C249.828 270.485 243.636 277.953 239.06 286.13C235.236 282.565 231.39 279.018 227.514 275.503C233.456 264.42 241.26 254.088 248.709 244.554C248.78 244.464 248.853 244.372 248.924 244.281ZM291.194 171.618C290.791 174.439 290.439 177.272 290.117 180.108C289.262 186.028 288.636 192.054 288.476 197.656C288.448 198.626 288.425 199.58 288.404 200.528C288.346 201.513 288.274 202.497 288.223 203.481C287.366 203.526 286.163 203.764 285.82 203.978C284.094 205.044 282.41 206.194 280.757 207.404C277.685 199.792 274.832 192.084 271.63 184.534C277.783 179.631 284.298 175.255 291.194 171.618ZM184.075 279.319C185.925 280.25 187.707 281.327 189.385 282.54C187.174 281.309 185.398 280.202 184.075 279.319ZM278.274 211.745C280.883 218.014 283.698 224.191 287.07 230.117C287.134 230.231 287.231 230.315 287.343 230.387C287.311 232.614 287.29 234.85 287.286 237.095C286.868 237.184 286.513 237.289 286.351 237.389C277.1 243.075 268.843 250.384 261.248 258.186C257.555 252.648 254.418 246.836 251.611 240.859C259.504 230.839 268.314 220.2 278.274 211.745ZM268.445 187.134C271.585 194.667 274.419 202.34 277.507 209.897C267.378 218.042 258.576 228.501 250.46 238.398C247.071 230.912 244.122 223.206 241.152 215.506C249.332 205.4 258.392 195.599 268.445 187.134ZM234.693 218.53C224.82 230.946 215.727 244.38 208.255 258.588C202.827 253.989 197.329 249.476 191.731 245.094C191.678 245.053 191.615 245.021 191.548 244.995C199.536 225.578 212.181 208.085 227.446 192.879C230.979 200.31 234.017 207.978 236.998 215.671C236.225 216.622 235.452 217.575 234.693 218.53ZM190.273 248.174C195.821 252.565 201.286 257.065 206.67 261.664C202.934 269.059 199.654 276.655 196.941 284.425C196.472 283.957 195.998 283.503 195.523 283.069C191.822 279.686 187.545 277.057 183 275.303C183.227 275.104 183.384 274.872 183.42 274.613C184.697 265.463 187.047 256.645 190.273 248.174ZM239.867 212.189C236.949 204.678 233.94 197.206 230.405 189.992C239.16 181.617 248.687 173.97 258.637 167.116C261.945 172.681 264.735 178.478 267.28 184.389C257.239 192.671 248.171 202.251 239.867 212.189ZM434.301 228.335C427.51 228.317 420.722 228.244 413.931 228.142C414.899 221.839 415.358 215.51 415.558 209.167C423.078 209.498 430.604 209.712 438.139 209.736C438.477 209.736 438.774 209.665 439.034 209.553C438.185 216.03 436.717 222.375 434.301 228.249C434.289 228.281 434.291 228.309 434.301 228.335ZM374.342 203.636C364.215 202.914 354.087 202.214 343.95 201.69C344.397 197.453 344.942 193.225 345.326 189.035C353.173 186.492 359.053 180.583 365.934 176.212C370.481 184.47 372.997 193.966 374.342 203.636ZM341.444 137.853C342.419 140.927 343.508 144.056 344.736 147.14L344.735 147.18C344.189 147.439 343.778 147.804 343.77 148.246C343.693 152.569 343.183 156.915 342.609 161.267C342.435 161.184 342.175 161.131 341.784 161.131C334.106 161.131 326.428 161.131 318.749 161.131C318.152 161.131 317.328 161.515 316.771 161.958C318.425 154.293 320.804 146.796 324.105 139.83C329.743 139.085 335.383 138.343 341.055 137.913C341.189 137.904 341.319 137.883 341.444 137.853ZM423.184 140.132C424.331 140.22 425.473 140.338 426.614 140.457L431.261 141.474C431.236 141.527 431.227 141.576 431.248 141.619C437.874 154.875 439.439 170.454 439.923 185.064C440.158 192.154 440.119 199.619 439.341 206.972C439.103 206.874 438.811 206.813 438.45 206.812C430.84 206.788 423.24 206.572 415.644 206.234C415.767 200.145 415.704 194.046 415.668 187.947C416.944 180.923 416.149 173.85 414.98 166.777C415.1 166.797 415.237 166.81 415.395 166.814C422.031 166.985 428.376 169.204 435.018 169.375C436.615 169.416 439.056 167.04 436.452 166.972C429.815 166.801 423.471 164.582 416.829 164.411C416.129 164.393 415.267 164.839 414.739 165.352C413.601 158.699 412.251 152.049 412.116 145.447C412.109 145.128 411.73 144.977 411.213 144.959C411.942 142.599 412.573 140.274 413.12 138.042C415.738 139.833 419.008 140.326 422.18 139.782C422.349 139.963 422.665 140.094 423.184 140.132ZM344.508 226.697C342.805 219.444 342.981 212.029 343.659 204.613C354.017 205.147 364.366 205.867 374.715 206.606C375.497 213.4 375.76 220.222 375.799 226.704C375.804 227.582 379.647 226.944 379.639 225.675C379.615 221.753 379.505 217.703 379.253 213.612C379.453 213.459 379.594 213.286 379.625 213.102C379.961 211.167 380.333 209.126 380.752 207.036C391.078 207.771 401.406 208.474 411.742 208.981C411.562 215.367 411.12 221.739 410.178 228.085C388.288 227.716 366.4 227.059 344.508 226.697ZM381.363 204.136C383.445 194.738 386.761 184.766 393.181 178.319C393.349 178.375 393.52 178.434 393.693 178.497C399.484 182.649 404.864 187.516 411.831 189.421C411.864 194.966 411.909 200.512 411.812 206.048C401.655 205.546 391.509 204.857 381.363 204.136ZM340.721 135.529C340.395 135.556 340.072 135.594 339.746 135.622L340.683 135.396C340.696 135.442 340.708 135.484 340.721 135.529ZM411.816 186.62C411.791 186.609 411.767 186.595 411.742 186.584V171.596C412.334 175.901 412.672 180.202 412.35 184.481C412.025 184.725 411.809 185.02 411.809 185.358C411.811 185.78 411.815 186.2 411.816 186.62ZM384.49 185.455C385.983 181.426 387.635 178.224 389.21 177.774C389.545 177.679 389.957 177.659 390.421 177.692C388.09 179.941 386.137 182.575 384.49 185.455ZM340.427 226.637C333.711 226.539 326.995 226.468 320.278 226.453C316.45 219.373 314.63 211.407 313.921 203.302C314.189 203.576 314.634 203.761 315.283 203.762C323.488 203.787 331.683 204.042 339.873 204.425C339.161 211.875 338.895 219.332 340.427 226.637ZM316.51 163.18C316.681 163.238 316.923 163.271 317.246 163.271C324.924 163.271 332.602 163.271 340.281 163.271C340.964 163.271 341.941 162.77 342.479 162.253C341.311 171.004 340.016 179.781 341.556 188.452C341.191 192.77 340.641 197.131 340.17 201.502C331.986 201.119 323.796 200.866 315.594 200.839C314.733 200.837 314.106 201.27 313.805 201.803C313.389 195.956 313.503 190.068 313.819 184.416C314.213 177.411 315.061 170.236 316.51 163.18Z" fill="#FBC02D"/>
</g>
<defs>
<clipPath id="clip0_17_14">
<rect width="731" height="514" fill="white"/>
</clipPath>
</defs>
</svg>
