<svg width="40" height="41" viewBox="0 0 40 41" fill="none" xmlns="http://www.w3.org/2000/svg">
<path d="M31.7493 8.9331C30.2211 7.38994 28.4011 6.16637 26.3952 5.3337C24.3893 4.50103 22.2378 4.0759 20.066 4.0831C10.966 4.0831 3.54935 11.4998 3.54935 20.5998C3.54935 23.5164 4.31602 26.3498 5.74935 28.8498L3.41602 37.4164L12.166 35.1164C14.5827 36.4331 17.2993 37.1331 20.066 37.1331C29.166 37.1331 36.5827 29.7164 36.5827 20.6164C36.5827 16.1998 34.866 12.0498 31.7493 8.9331ZM20.066 34.3331C17.5993 34.3331 15.1827 33.6664 13.066 32.4164L12.566 32.1164L7.36602 33.4831L8.74935 28.4164L8.41602 27.8998C7.04526 25.7115 6.31756 23.1819 6.31602 20.5998C6.31602 13.0331 12.4827 6.86643 20.0493 6.86643C23.716 6.86643 27.166 8.29976 29.7493 10.8998C31.0287 12.1729 32.0425 13.6873 32.7321 15.3553C33.4216 17.0233 33.773 18.8116 33.766 20.6164C33.7994 28.1831 27.6327 34.3331 20.066 34.3331ZM27.5993 24.0664C27.1827 23.8664 25.1493 22.8664 24.7827 22.7164C24.3993 22.5831 24.1327 22.5164 23.8493 22.9164C23.566 23.3331 22.7827 24.2664 22.5493 24.5331C22.316 24.8164 22.066 24.8498 21.6493 24.6331C21.2327 24.4331 19.8993 23.9831 18.3327 22.5831C17.0993 21.4831 16.2827 20.1331 16.0327 19.7164C15.7993 19.2998 15.9993 19.0831 16.216 18.8664C16.3993 18.6831 16.6327 18.3831 16.8327 18.1498C17.0327 17.9164 17.116 17.7331 17.2493 17.4664C17.3827 17.1831 17.316 16.9498 17.216 16.7498C17.116 16.5498 16.2827 14.5164 15.9493 13.6831C15.616 12.8831 15.266 12.9831 15.016 12.9664H14.216C13.9327 12.9664 13.4993 13.0664 13.116 13.4831C12.7493 13.8998 11.6827 14.8998 11.6827 16.9331C11.6827 18.9664 13.166 20.9331 13.366 21.1998C13.566 21.4831 16.2827 25.6498 20.416 27.4331C21.3993 27.8664 22.166 28.1164 22.766 28.2998C23.7493 28.6164 24.6493 28.5664 25.366 28.4664C26.166 28.3498 27.816 27.4664 28.1493 26.4998C28.4993 25.5331 28.4993 24.7164 28.3827 24.5331C28.266 24.3498 28.016 24.2664 27.5993 24.0664Z" fill="#E59C14"/>
</svg>
